<svg width="906" height="848" viewBox="0 0 906 848" fill="none" xmlns="http://www.w3.org/2000/svg">
<path d="M905.328 399.82C905.328 466.513 890.651 529.87 864.465 586.726C863.965 588.059 863.465 589.06 862.797 590.227C860.796 594.562 858.795 598.897 856.46 603.232C854.792 606.567 852.957 609.901 851.289 613.236C850.289 615.07 849.288 616.904 848.287 618.571C846.286 622.073 844.284 625.574 842.283 629.075C840.615 631.743 839.114 634.244 837.279 636.912C834.778 641.247 831.942 645.415 829.107 649.75C828.606 650.25 828.273 650.917 827.773 651.584C824.937 655.752 822.102 659.92 818.933 663.922C816.765 667.09 814.263 670.424 811.761 673.426C806.09 681.095 799.919 688.431 793.581 695.601C791.413 698.102 789.078 700.603 786.91 703.104C782.74 707.605 778.571 711.94 774.401 716.109C772.733 717.609 771.065 719.277 769.398 720.944C767.896 722.444 766.229 724.112 764.561 725.612C762.559 727.446 760.558 729.447 758.556 731.281C756.555 733.115 754.554 734.782 752.385 736.617C749.216 739.451 745.881 742.285 742.545 744.953C740.21 746.954 737.875 748.955 735.373 750.622C731.537 753.79 727.701 756.791 723.865 759.625C720.696 762.126 717.36 764.461 714.025 766.628C709.521 769.796 705.018 772.797 700.515 775.632C699.514 776.465 698.68 776.965 697.68 777.466C697.013 778.133 696.345 778.466 695.678 778.633C692.009 781.3 688.34 783.468 684.504 785.469C676.331 790.471 668.159 794.972 659.653 799.141C655.816 801.308 651.814 803.309 647.644 804.976C603.112 826.151 554.411 839.99 503.041 845.158C488.03 846.659 472.853 847.492 457.341 847.492C441.83 847.492 427.82 846.659 413.477 845.158H412.976C303.231 833.32 208.497 779.133 138.28 706.938C138.114 706.605 137.947 706.272 137.613 706.105C84.7421 651.25 46.2146 586.225 26.3671 521.701C16.5268 490.188 12.3571 461.844 10.6893 440.169C9.02143 420.995 9.355 406.823 9.52179 399.82C9.85536 392.818 10.3557 385.648 11.1896 378.479C11.1896 378.479 11.1896 377.478 11.3564 376.978C11.5232 375.811 11.5232 374.811 11.69 373.81C12.5239 366.141 13.6914 358.471 15.0257 350.635C16.1932 349.134 17.3607 347.634 18.695 346.3C18.695 345.966 19.0286 345.8 19.3621 345.466C20.0293 344.466 20.8632 343.632 21.6971 342.798C22.5311 341.798 23.1982 340.964 23.8654 340.631C25.0329 339.13 26.2004 337.963 27.3679 336.963C31.0371 333.462 34.8732 330.627 38.2089 328.293C39.5432 327.292 40.7107 326.459 41.8782 325.792C43.0457 324.958 44.2132 324.291 45.2139 323.624C46.3814 322.791 47.7157 322.124 49.05 321.457C49.05 321.29 49.5504 321.123 49.8839 320.957C51.5518 320.123 53.2196 319.289 54.8875 318.622C55.2211 318.456 55.5546 318.289 55.8882 318.122C64.8946 314.288 73.0671 312.287 79.2382 311.453C81.2396 311.12 83.2411 310.953 84.7421 310.786C97.9182 308.952 108.426 310.453 114.263 311.453C99.2525 303.117 89.0786 286.443 85.0757 271.938C80.0721 253.431 81.9068 225.92 101.421 211.081C112.429 202.578 124.938 201.577 131.109 201.577C130.608 195.075 130.608 182.904 137.28 170.399C153.958 139.22 195.321 139.887 197.489 140.054C204.995 140.221 224.842 140.887 238.185 156.227C243.522 162.562 246.191 169.398 247.692 174.567C247.859 175.734 248.192 176.901 248.359 177.902C252.529 175.067 259.7 171.066 269.207 169.065C283.05 166.231 294.392 169.398 299.729 171.066C300.563 165.063 303.398 152.725 313.239 142.722C329.917 125.882 353.934 127.882 360.606 128.549C385.123 130.55 388.292 143.388 423.651 159.561C442.498 168.398 461.845 177.235 481.192 176.234C474.854 174.234 461.344 169.232 449.336 156.227C448.835 155.727 448.335 155.226 447.668 154.393C446.5 153.059 445.5 151.725 444.499 150.391C442.998 148.557 441.664 146.556 440.496 144.556C439.329 142.722 438.328 140.887 437.327 139.22C435.326 135.052 433.491 130.383 432.157 125.048C431.49 122.547 431.156 120.713 430.989 119.713C426.319 91.5352 441.163 70.0269 445.333 64.1913C450.837 56.5217 462.178 40.5156 483.193 36.514C497.87 33.6796 510.213 38.1813 515.716 40.5156C519.386 34.1798 527.058 22.3419 541.401 12.8383C547.072 9.17019 561.249 0 581.263 0C586.934 0 613.286 0 627.963 19.6742C632.967 26.3435 635.135 33.1794 636.136 37.8479C643.641 36.0138 653.982 33.8463 666.658 33.1794C680.167 32.3458 702.35 31.1787 724.866 40.6823C742.045 53.5206 758.39 67.526 773.567 82.8652C777.57 89.7012 780.405 97.5375 781.74 106.207C782.574 112.377 785.242 129.883 776.069 145.389C782.407 143.222 797.084 139.554 814.263 144.055C817.765 145.056 823.269 146.556 828.94 149.724C837.613 162.562 845.619 175.901 852.957 189.573C886.314 252.264 905.328 323.791 905.328 399.82Z" fill="url(#paint0_linear_100_2)"/>
<path d="M309.903 326.792C291.056 315.788 297.227 289.278 317.908 283.609C338.757 277.94 357.103 295.28 362.107 314.787C366.61 364.473 308.568 408.824 264.537 376.811C224.508 350.801 202.826 293.946 251.194 264.435V272.605C233.348 261.6 223.508 240.426 223.508 220.084C222.507 199.41 233.348 179.069 249.693 166.731L248.859 173.4C217.837 128.049 131.942 138.887 135.612 201.244L135.945 206.079H131.108C75.7356 204.412 74.4013 287.61 117.599 306.951C150.789 320.29 178.142 286.943 156.96 258.099C152.123 251.43 139.781 250.93 128.44 257.766C133.944 243.76 152.957 236.591 166.467 246.094C201.826 275.106 177.808 329.627 132.443 323.624C83.5745 316.788 60.7249 246.928 94.082 211.748C103.589 201.911 117.599 197.076 130.942 197.076L126.438 201.911C121.768 126.882 223.508 114.877 258.866 171.399C222.674 193.908 223.841 249.762 262.536 268.77L255.864 272.771C239.019 282.775 228.345 302.783 233.848 321.623C243.856 355.803 289.722 391.15 322.912 364.973C338.256 353.636 347.596 336.129 347.429 316.288C346.762 310.286 333.753 290.612 319.91 293.613C303.398 295.78 297.561 314.787 309.569 327.126L309.903 326.792Z" fill="white"/>
<path d="M0.848688 386.149C-2.15345 380.813 3.51726 375.811 6.85297 371.976C70.3983 303.283 152.624 356.804 215.502 395.986C257.865 425.164 307.067 446.172 359.104 445.171C446.333 449.006 504.375 392.818 497.87 304.951L506.877 307.285C477.355 352.969 403.636 355.137 391.461 294.447C377.451 241.76 429.488 188.072 481.192 215.583L474.687 218.084C487.029 184.738 528.392 175.568 557.246 193.408L550.241 196.409C570.589 119.546 695.178 150.391 698.18 222.586C701.182 256.432 685.17 294.613 651.313 307.452C634.968 313.621 608.783 311.787 603.946 291.112C600.277 272.438 610.284 255.432 623.627 246.928C592.104 269.104 603.112 298.948 591.27 329.793C558.914 427.998 449.669 471.348 353.434 462.678C289.388 458.343 230.346 429.165 178.309 393.818C151.456 378.979 122.936 362.306 92.414 357.471C59.2237 352.469 30.203 374.978 0.848688 386.315V386.149ZM7.85369 379.313C30.203 358.471 62.7262 348.467 93.248 352.135C125.104 357.971 152.624 375.144 180.143 390.984C232.014 425.997 290.556 455.675 353.934 458.009C414.811 460.51 479.857 438.835 524.222 397.986C557.413 364.974 574.091 322.291 584.265 277.273C591.103 260.267 607.782 248.095 623.96 246.762C609.617 255.265 606.281 275.773 612.619 287.944C618.289 299.949 634.134 300.616 647.81 295.947C674.496 285.443 689.507 251.43 687.172 223.419C685.671 158.228 570.088 131.217 558.58 204.412C532.228 187.572 491.866 193.408 482.026 226.087L477.355 223.919C435.826 203.245 397.132 250.93 407.139 290.778C419.481 349.468 485.862 332.795 507.21 289.111C514.215 346.633 494.868 414.159 437.994 439.336C375.283 465.012 303.231 455.008 244.689 423.663C177.308 383.981 79.5715 300.782 11.3562 381.48L9.85512 383.314L9.52155 383.814C11.0226 382.48 9.52155 379.313 8.02047 378.979L7.85369 379.313Z" fill="white"/>
<path d="M690.841 231.756C725.533 217.083 782.407 226.254 783.908 271.938C782.407 284.609 772.233 298.782 757.722 297.281C742.879 295.614 735.206 274.606 748.549 266.602C735.206 284.109 722.697 304.284 736.207 322.791C749.717 338.63 774.901 341.798 794.082 332.628C844.284 312.954 859.295 242.593 809.593 212.915L824.437 213.749C852.123 215.75 852.623 182.57 840.115 165.73C827.105 147.057 798.251 142.722 777.403 150.058L774.234 140.887C787.077 136.719 800.753 136.219 813.929 139.387C858.628 145.056 880.143 221.919 824.103 223.419L827.439 214.916C848.12 231.922 854.625 261.434 848.287 286.777C842.45 312.12 824.103 334.962 799.919 345.8C762.893 367.308 700.348 339.797 717.194 290.612C721.03 277.273 735.54 264.935 748.216 266.936C742.712 279.774 754.887 292.112 766.229 285.943C771.399 283.109 776.569 277.607 777.57 271.271C778.237 250.596 755.221 233.757 735.873 232.923C721.863 231.756 707.02 235.257 694.344 240.759L690.508 231.922L690.841 231.756Z" fill="white"/>
<path d="M354.935 316.121C358.937 317.288 366.943 320.456 372.947 328.126C381.787 339.297 380.453 352.635 379.786 359.304C377.451 381.313 363.107 395.818 357.436 401.321C336.255 421.995 309.902 425.33 296.56 426.997C280.715 428.998 267.539 427.831 258.699 426.33" stroke="white" stroke-width="0.58" stroke-miterlimit="10"/>
<path d="M126.939 316.788C119.433 313.787 106.257 309.786 89.5786 310.453C85.2422 310.453 71.7325 311.453 55.8879 318.122C51.2179 320.123 31.2036 329.126 15.0254 350.635C8.52076 359.305 4.5179 367.475 2.01611 373.31" stroke="white" stroke-width="0.25" stroke-miterlimit="10"/>
<path d="M659.485 505.861C660.152 509.029 665.823 510.863 670.16 510.696C677.998 510.196 683.169 502.693 686.171 498.192C706.852 467.513 705.018 456.009 718.527 443.17C733.705 428.832 751.885 428.498 751.051 421.996C750.55 417.661 742.545 414.826 736.707 414.326C733.705 413.993 726.7 413.993 715.358 422.663C696.512 436.835 688.339 457.009 686.171 462.511C681.001 476.183 683.336 479.518 677.165 487.521C669.159 498.192 658.318 501.193 659.318 506.028L659.485 505.861Z" fill="white"/>
<path d="M687.005 512.364C688.84 517.199 695.345 521.034 700.682 520.033C704.851 519.366 707.52 515.865 708.521 514.531C714.692 506.361 724.198 497.525 743.045 479.518C755.888 467.346 762.726 460.844 773.901 458.676C784.075 456.676 793.248 459.01 794.082 456.342C794.749 454.175 789.578 450.006 784.575 448.006C770.398 442.337 754.22 452.007 745.881 457.009C739.209 461.011 728.535 468.513 719.028 482.019C722.197 473.849 727.701 464.012 737.541 456.509C754.387 443.671 774.067 445.505 774.401 439.836C774.568 436.168 766.729 431.833 759.557 431.499C753.052 431.166 747.048 434.167 736.374 444.004C722.364 456.842 720.362 463.178 703.017 485.02C690.675 500.692 684.67 506.361 687.005 512.364Z" fill="white"/>
<path d="M709.521 526.869C710.355 530.538 713.858 533.872 717.36 534.372C723.698 535.373 727.868 526.369 738.709 516.532C747.715 508.362 756.221 504.194 761.392 501.693C774.568 495.191 786.91 489.022 800.586 492.189C809.76 494.19 815.43 499.526 821.435 496.358C824.437 494.69 826.938 491.189 826.271 488.688C825.604 486.687 822.769 484.687 809.593 483.853C800.92 483.353 788.745 483.519 773.901 486.187C780.238 479.018 785.909 477.017 789.912 476.683C796.583 476.183 801.42 479.685 808.425 476.683C808.926 476.517 813.929 474.183 813.762 471.848C813.429 468.68 802.921 466.846 798.251 466.513C785.075 465.513 774.568 471.682 755.387 485.02C709.855 516.532 708.521 523.201 709.521 526.869Z" fill="white"/>
<path d="M725.032 543.876C725.866 546.71 729.369 547.877 729.869 548.044C740.043 551.545 748.049 533.705 769.064 523.034C774.734 520.2 794.082 510.529 814.263 515.865C824.603 518.699 832.442 524.535 836.278 521.2C838.947 518.866 838.613 513.03 836.278 509.362C831.442 501.526 817.432 502.193 805.256 502.86C798.585 503.193 793.248 504.027 790.412 504.694C783.407 506.028 759.223 511.196 736.207 529.037C725.866 537.04 724.032 541.208 724.865 543.876H725.032Z" fill="white"/>
<path d="M733.872 555.714C733.872 558.882 739.209 561.383 739.876 561.716C748.049 565.384 756.221 559.715 775.568 551.545C786.743 546.877 792.247 544.543 797.584 543.209C806.424 541.041 821.434 537.54 836.779 543.209C845.452 546.377 850.455 551.212 852.79 549.211C854.958 547.377 853.624 540.875 850.455 536.706C848.454 533.872 844.284 530.204 827.772 528.37C815.096 526.869 799.919 525.202 781.906 531.871C774.401 534.706 776.903 535.039 764.56 540.541C745.547 549.044 733.872 550.878 733.705 555.547L733.872 555.714Z" fill="white"/>
<path d="M746.381 581.891C743.545 579.39 742.378 574.888 743.379 571.72C745.547 565.218 756.722 564.717 783.741 559.215C800.586 555.881 797.084 555.881 805.757 554.38C827.605 550.712 844.451 548.211 855.792 557.381C860.462 561.049 864.298 567.052 862.964 569.219C861.463 571.553 854.625 568.886 848.12 567.385C836.779 564.717 828.106 565.718 810.593 567.385C773.4 571.053 755.554 590.06 746.381 581.724V581.891Z" fill="white"/>
<path d="M864.465 589.56C864.465 589.56 863.631 590.227 862.797 590.227C859.795 590.227 853.624 587.393 844.951 585.392C836.278 583.391 829.607 583.391 821.268 583.558C812.261 583.558 799.085 584.559 783.407 589.06C807.758 588.227 825.437 590.728 836.612 592.895C843.951 594.229 852.79 596.563 856.459 603.232C854.792 606.567 852.957 609.902 851.289 613.236C850.455 612.403 849.288 611.736 848.12 610.902C848.12 610.902 845.285 609.068 831.942 603.566C817.932 597.73 784.241 603.399 778.404 604.399C792.414 604.9 819.099 606.9 840.782 615.237C843.283 616.237 845.952 617.238 848.287 618.572C846.286 622.073 844.284 625.574 842.283 629.076C841.282 628.242 840.281 627.408 839.281 626.741C831.275 621.239 818.766 620.739 794.248 619.405C777.236 618.405 768.73 617.905 764.394 618.572C756.388 619.572 747.882 621.906 745.714 618.405C744.88 617.071 745.38 615.737 746.214 612.403C748.716 603.232 746.714 599.731 748.049 595.563C750.217 589.394 758.389 586.893 776.069 582.558C800.419 576.555 812.928 573.554 822.602 572.887C849.288 570.887 856.459 576.555 859.295 579.39C861.63 581.557 863.798 584.559 864.465 586.726C864.799 588.06 864.966 588.894 864.465 589.56Z" fill="white"/>
<path d="M829.107 649.749C826.271 648.249 823.936 647.082 822.102 646.415C824.103 648.249 826.105 649.916 827.772 651.583C824.937 655.752 822.102 659.92 818.933 663.921C804.756 652.751 788.911 648.582 779.238 645.915C756.889 639.912 741.377 642.58 738.876 634.744C737.708 631.576 738.876 626.741 741.544 624.906C744.88 622.739 749.717 624.907 752.219 625.907C753.386 626.24 752.385 625.907 784.408 628.575C809.76 630.909 822.435 632.076 826.772 633.243C830.107 634.243 833.777 635.411 837.279 636.911C834.777 641.246 831.942 645.414 829.107 649.749Z" fill="white"/>
<path d="M811.761 673.426C806.09 681.095 799.919 688.431 793.581 695.601C792.247 693.767 790.746 691.933 789.078 690.099C782.073 682.096 772.066 670.758 755.554 664.089C742.211 658.587 728.869 658.086 728.035 652.418C727.701 649.416 731.037 646.582 731.871 645.915C734.706 643.581 742.378 639.746 794.582 664.089C797.918 665.589 804.256 668.59 811.761 673.426Z" fill="white"/>
<path d="M786.91 703.103C782.74 707.605 778.571 711.94 774.401 716.108C772.233 712.107 770.732 709.272 769.564 707.271C754.053 681.762 719.362 683.762 719.195 669.59C719.195 666.923 720.529 662.754 723.364 661.254C726.367 659.586 730.036 661.42 735.54 664.088C748.716 670.424 755.221 673.592 755.554 673.759C759.057 676.093 769.231 682.929 784.908 700.769C785.576 701.603 786.409 702.436 786.91 703.103Z" fill="white"/>
<path d="M771.065 723.111C768.897 723.945 766.896 724.779 764.561 725.612C762.559 727.446 760.558 729.447 758.556 731.281C757.889 730.448 757.055 729.447 756.055 728.447C751.218 723.445 742.878 717.443 729.536 707.772C710.522 693.934 702.183 689.599 703.017 683.596C703.517 679.595 707.853 675.927 711.356 676.093C715.359 676.427 716.86 681.596 721.03 686.764C727.534 694.767 735.373 696.601 741.544 699.436C751.218 703.771 761.392 711.774 769.397 720.944C769.898 721.611 770.398 722.445 771.065 723.111Z" fill="white"/>
<path d="M735.373 750.622C731.537 753.79 727.701 756.791 723.865 759.625C722.364 752.789 719.695 747.454 715.192 739.784C714.024 737.784 712.69 735.616 711.356 733.282C697.346 710.273 684.17 701.436 687.672 694.267C689.006 691.266 693.009 689.098 696.011 689.598C699.514 690.265 701.515 694.6 702.516 696.601C707.686 707.272 709.855 703.437 720.696 720.277C724.198 725.946 727.034 731.281 729.535 736.283C731.87 741.285 733.705 746.12 735.373 750.622Z" fill="white"/>
<path d="M752.385 736.616C749.216 739.45 745.881 742.285 742.545 744.953C741.211 741.951 739.543 738.45 737.375 734.115C736.874 732.948 736.207 731.614 735.54 730.113C732.204 723.111 730.37 719.776 731.37 718.943C733.038 717.442 742.378 726.279 743.379 727.279C744.046 727.779 745.38 729.113 747.382 731.114C748.716 732.614 750.551 734.448 752.385 736.616Z" fill="white"/>
<path d="M714.024 766.628C709.521 769.796 705.018 772.797 700.515 775.631C699.514 776.465 698.68 776.965 697.679 777.465C697.679 775.798 697.679 774.131 697.346 772.463C695.845 761.959 691.341 759.458 682.669 745.62C680.5 742.285 678.165 738.284 675.497 733.282C662.988 709.606 665.823 704.104 667.157 702.103C669.492 698.935 674.496 696.934 677.331 698.435C680.334 700.102 679.833 704.937 680.667 709.606C682.335 720.443 690.174 726.446 695.511 732.448C698.18 735.282 700.681 738.617 702.85 742.285H703.016C707.686 749.788 711.689 758.291 714.024 766.628Z" fill="white"/>
<path d="M660.153 795.306C663.822 771.964 665.156 768.963 665.323 764.128C665.49 758.292 663.655 757.125 659.485 748.788C659.485 748.622 659.319 748.288 659.152 748.121C657.984 745.454 656.483 742.286 654.649 737.951C654.482 737.617 654.315 737.117 654.148 736.617C648.644 722.778 641.806 705.938 647.143 701.77C649.645 699.603 654.649 700.603 657.818 703.104C664.989 708.773 657.818 719.61 662.988 734.783C665.156 741.285 667.991 743.786 671.16 746.954C673.162 748.622 675.163 750.622 677.165 753.79H677.331C678.332 755.791 679.5 757.958 680.667 760.793C680.834 761.293 682.168 764.461 683.169 769.463C684.17 773.631 684.837 779.133 684.503 785.469C676.331 790.471 668.158 794.973 659.652 799.141C659.652 797.807 659.986 796.64 660.153 795.306Z" fill="white"/>
<path d="M624.294 702.603C627.629 700.436 633.3 700.769 635.468 703.604C637.637 706.438 635.635 711.107 634.968 712.941C629.964 726.112 635.969 733.782 633.967 760.792C632.466 780.633 631.299 797.806 620.958 802.642C615.12 805.309 606.614 803.976 603.279 799.307C599.943 794.805 602.278 788.303 604.279 782.634C608.449 770.629 613.286 770.296 617.289 761.292C619.457 756.291 619.79 745.12 620.124 723.111C620.291 711.44 620.124 705.438 624.294 702.603Z" fill="white"/>
<path d="M640.138 729.113C637.97 729.78 643.641 742.285 641.973 761.292C639.972 783.968 629.297 794.305 634.968 801.308C638.471 805.643 646.309 806.477 650.312 803.642C653.314 801.475 653.481 797.806 653.148 777.632C652.814 758.291 652.647 756.624 652.147 754.79C649.478 740.951 642.307 728.446 639.972 729.113H640.138Z" fill="white"/>
<path d="M609.45 708.606C611.451 702.937 612.452 700.103 613.62 700.27C614.954 700.27 615.621 703.438 615.955 704.438C618.623 714.608 613.453 727.113 610.784 735.617C606.448 749.789 610.617 748.622 606.114 765.795C602.445 779.967 599.276 792.305 589.769 795.973C582.764 798.808 573.257 796.307 572.09 792.305C570.922 788.637 577.427 785.636 585.099 775.632C592.605 765.962 595.94 756.625 597.608 751.956C600.277 744.62 599.61 743.119 605.114 721.278C605.114 721.278 605.447 719.944 609.283 708.773L609.45 708.606Z" fill="white"/>
<path d="M598.275 698.435C601.277 697.101 605.28 697.435 606.614 699.435C608.616 702.103 605.113 707.439 602.945 711.607C595.44 725.445 600.777 727.946 593.605 746.954C591.27 753.289 586.433 760.959 576.927 776.298C572.257 783.635 569.588 787.469 565.252 787.97C559.748 788.636 552.576 783.468 552.242 778.132C551.742 770.63 564.918 768.462 576.593 751.455C579.762 746.954 581.43 743.286 582.931 739.951C593.605 717.109 589.602 702.103 598.275 698.602V698.435Z" fill="white"/>
<path d="M582.43 688.098C585.933 687.598 589.936 690.599 590.77 693.6C591.937 697.435 588.268 700.603 585.266 706.105C580.762 713.941 582.43 717.443 579.762 726.613C577.594 734.116 571.923 741.619 560.748 756.458C548.239 772.964 545.237 774.131 542.569 774.131C535.397 774.131 527.725 765.294 528.559 758.292C529.559 750.955 539.233 751.289 551.408 739.284C558.914 731.781 563.083 724.112 567.253 715.942C576.092 699.102 576.593 688.765 582.597 688.098H582.43Z" fill="white"/>
<path d="M570.755 677.928C573.424 678.261 575.592 681.596 575.926 684.43C576.259 688.765 572.423 691.6 568.921 695.601C562.083 703.437 564.584 706.772 558.747 716.943C553.91 725.279 552.242 723.278 535.063 741.119C525.556 751.122 523.055 754.791 519.219 754.124C514.215 753.29 509.879 745.12 511.38 738.784C512.881 732.115 519.552 731.615 530.894 722.945C541.901 714.608 548.906 705.105 553.743 698.769C563.25 685.931 566.252 677.094 570.922 677.761L570.755 677.928Z" fill="white"/>
<path d="M485.695 704.937C484.527 710.106 486.696 716.775 490.865 718.442C493.367 719.443 496.202 718.109 501.54 715.108C509.879 710.773 516.383 707.105 520.553 704.937C516.55 711.94 512.047 715.941 508.378 718.442C503.708 721.61 499.371 723.111 499.038 726.279C498.871 728.613 500.706 730.947 502.707 731.781C504.041 732.448 507.544 733.448 516.217 727.112C523.555 721.777 526.057 717.275 532.061 710.439C534.563 707.438 540.401 701.936 552.076 690.932C562.75 680.761 566.586 677.593 566.586 672.258C566.586 668.09 564.084 663.255 560.582 662.087C556.245 660.754 551.742 664.755 547.572 668.09C543.069 671.591 531.728 677.427 508.878 689.098C492.867 697.268 487.029 698.768 485.528 704.937H485.695Z" fill="white"/>
<path d="M475.354 685.764C474.687 689.432 476.188 693.767 478.69 694.6C481.358 695.434 484.193 691.599 488.53 688.098C493.367 684.096 495.201 684.43 510.879 677.927C529.392 670.258 525.723 670.258 535.563 666.756C547.572 662.588 554.077 662.255 556.078 656.919C557.246 653.751 556.578 649.75 554.243 648.083C551.408 646.082 546.571 648.583 540.233 651.751C532.395 655.752 524.222 659.087 516.55 663.422C491.032 677.761 477.022 676.76 475.521 685.764H475.354Z" fill="white"/>
<path d="M551.742 633.91C552.743 635.577 550.741 638.412 549.907 639.412C544.737 646.415 536.565 646.748 526.891 649.416C513.215 653.084 502.874 659.42 494.034 664.922C481.525 672.592 477.689 677.927 474.187 676.093C470.017 673.926 469.517 663.255 474.187 658.753C476.855 656.252 480.024 656.586 486.529 655.585C491.032 654.918 497.537 653.584 505.209 650.583C502.373 649.083 498.371 647.415 493.367 646.915C484.361 645.748 480.024 649.083 476.688 646.248C472.686 643.08 472.686 634.41 476.021 631.909C479.19 629.742 483.36 634.077 492.2 636.911C501.54 639.912 509.212 638.745 523.889 636.911C540.401 634.744 550.074 630.742 551.742 633.743V633.91Z" fill="white"/>
<path d="M477.856 611.568C475.521 613.569 474.687 617.737 476.022 620.905C479.691 630.075 500.539 629.742 508.378 629.575C525.223 629.241 526.724 624.74 538.733 627.074C543.737 628.074 548.573 629.742 551.742 627.074C554.578 624.74 555.578 619.738 553.577 617.07C551.409 614.069 546.238 614.736 541.735 615.236C522.054 617.237 511.38 618.237 501.373 616.403C488.53 614.069 482.026 607.9 477.856 611.401V611.568Z" fill="white"/>
<path d="M489.698 589.226C486.029 591.06 482.86 595.062 483.527 597.896C484.194 601.231 489.865 602.565 499.038 604.732C503.708 605.899 508.044 606.9 514.549 607.233C527.558 608.067 528.726 604.899 537.565 606.566C545.738 608.067 547.739 611.235 552.409 609.734C557.413 608.067 561.583 602.565 560.415 599.23C560.081 598.23 558.58 595.896 544.237 594.895C527.892 593.895 527.225 596.729 517.551 595.562C502.707 593.561 497.37 585.725 489.698 589.393V589.226Z" fill="white"/>
<path d="M499.038 572.553C494.034 578.055 494.034 578.889 494.034 579.389C494.368 581.39 497.37 581.89 510.713 584.891C520.053 587.059 523.722 587.892 529.393 587.392C531.061 587.392 537.899 586.725 538.066 584.891C538.232 582.724 528.726 582.89 519.386 575.554C512.381 570.052 511.046 564.55 507.043 565.05C505.542 565.217 503.374 567.718 499.038 572.553Z" fill="white"/>
<path d="M512.047 554.546C511.547 549.711 514.215 544.542 517.051 544.042C520.22 543.542 522.221 548.711 528.892 555.88C536.398 564.05 544.57 568.885 548.74 571.386C559.748 578.055 566.252 578.555 566.753 583.224C567.086 586.225 564.751 589.893 561.749 590.727C557.413 591.894 553.076 586.225 547.406 580.723C529.226 563.216 513.381 565.05 512.047 554.713V554.546Z" fill="white"/>
<path d="M530.06 536.54C530.394 531.371 535.064 526.202 538.066 526.536C540.734 526.869 540.734 531.371 543.57 537.04C547.573 545.043 552.409 545.376 569.588 560.049C578.595 567.552 580.93 570.553 580.096 573.054C579.429 575.555 575.593 577.222 572.59 577.389C565.252 578.056 561.583 570.886 547.072 556.881C534.73 545.043 529.226 542.375 529.727 536.373L530.06 536.54Z" fill="white"/>
<path d="M550.575 519.2C552.409 514.531 560.248 511.863 564.918 514.198C568.087 515.698 568.087 518.699 571.089 526.536C574.592 535.873 578.094 545.21 585.433 553.213C589.603 557.881 593.772 560.549 592.938 563.217C592.271 565.217 589.269 566.384 586.767 566.384C581.597 566.384 579.262 561.549 568.754 549.044C562.583 541.708 561.082 540.541 557.58 535.372C551.909 527.203 549.24 523.034 550.741 519.2H550.575Z" fill="white"/>
<path d="M575.425 506.695C578.428 501.693 587.267 500.026 590.269 503.027C592.771 505.361 589.436 509.196 589.602 517.366C589.769 529.037 596.941 539.207 599.609 542.876C604.446 549.711 608.783 552.546 607.615 555.88C606.781 558.381 603.279 560.549 600.11 560.216C594.773 559.715 592.771 552.879 583.431 532.371C575.592 515.198 572.924 511.03 575.425 506.862V506.695Z" fill="white"/>
<path d="M636.135 619.738C635.301 617.07 631.132 615.736 628.13 616.07C625.795 616.237 621.959 617.571 621.291 620.405C620.624 623.74 624.294 627.574 628.13 627.908C632.8 628.241 637.136 623.073 636.135 619.905V619.738Z" fill="white"/>
<path d="M640.472 623.073C637.136 624.573 634.801 629.408 636.469 632.076C638.137 635.077 643.474 634.244 645.809 633.577C646.143 633.577 651.813 631.909 651.98 628.908C652.147 625.74 645.476 620.738 640.472 623.073Z" fill="white"/>
<path d="M631.632 612.736C632.8 614.903 636.469 615.904 637.97 614.903C638.971 614.07 638.304 612.736 638.471 608.067C638.637 602.899 639.638 601.898 638.471 600.231C636.803 597.563 631.966 596.73 630.965 598.23C630.131 599.231 631.966 600.731 632.3 604.399C632.633 608.901 630.298 610.568 631.632 612.903V612.736Z" fill="white"/>
<path d="M619.123 602.899C619.79 601.064 621.792 599.23 623.793 599.564C625.294 599.564 626.128 601.064 628.13 603.565C629.798 605.733 630.465 606.733 630.298 607.9C629.964 609.735 627.629 610.902 625.628 611.068C621.792 611.068 617.956 606.567 619.123 603.065V602.899Z" fill="white"/>
<path d="M610.784 609.068C611.117 608.067 612.118 605.399 613.619 605.399C615.12 605.399 615.287 608.067 618.956 610.901C620.624 612.235 621.792 612.569 621.792 613.402C621.792 614.736 619.457 616.237 617.455 616.57C615.12 616.904 611.785 616.237 610.617 613.736C609.783 612.069 610.617 610.235 610.951 609.068H610.784Z" fill="white"/>
<path d="M642.64 615.403C641.806 616.404 641.973 618.238 642.974 619.405C644.975 621.572 648.811 619.071 651.647 621.572C653.148 622.906 652.981 624.24 653.815 624.407C655.65 624.574 658.985 618.571 657.151 616.404C656.317 615.237 654.816 616.07 648.811 615.403C644.975 615.07 643.474 614.403 642.64 615.403Z" fill="white"/>
<path d="M644.642 602.898C642.474 603.399 640.806 606.733 641.806 609.067C642.307 610.401 643.641 611.068 644.642 611.568C645.309 611.902 647.811 613.069 650.479 611.902C651.146 611.568 652.981 610.901 653.315 609.401C653.648 607.567 650.813 605.899 648.645 604.399C646.643 603.232 645.809 602.565 644.642 602.898Z" fill="white"/>
<path d="M616.288 624.907C617.455 623.74 617.455 621.073 616.288 619.905C614.787 618.405 612.452 620.406 608.449 619.238C605.78 618.405 604.946 616.904 603.779 617.404C602.278 618.071 601.611 621.406 602.778 623.24C603.612 624.407 605.447 624.574 609.283 625.074C613.286 625.574 615.12 625.741 616.121 624.741L616.288 624.907Z" fill="white"/>
<path d="M623.794 633.41C624.127 635.911 621.959 637.912 619.457 640.246C616.789 642.747 614.787 644.581 612.285 643.915C609.617 643.248 607.449 639.746 608.283 637.745C608.783 636.245 610.618 636.578 613.62 634.578C617.456 632.077 617.623 629.242 619.791 629.242C621.625 629.242 623.46 631.243 623.794 633.244V633.41Z" fill="white"/>
<path d="M603.946 629.908C603.112 631.576 604.28 634.41 605.947 635.077C606.448 635.244 607.282 635.41 613.453 631.742C616.288 630.075 616.455 629.908 616.455 629.575C616.288 627.908 605.781 626.574 604.113 629.908H603.946Z" fill="white"/>
<path d="M625.962 637.745C623.46 638.578 624.294 641.913 620.958 644.914C618.623 646.915 616.955 646.582 616.621 648.082C615.954 650.416 619.457 654.418 621.959 653.918C623.96 653.584 623.626 650.75 627.463 645.581C629.798 642.413 631.632 641.413 631.132 640.079C630.631 638.412 627.796 637.245 625.795 637.912L625.962 637.745Z" fill="white"/>
<path d="M635.302 640.747C633.467 641.58 633.8 643.748 631.632 649.083C629.631 653.918 628.297 654.585 628.797 656.253C629.798 659.421 636.302 661.088 638.471 659.087C640.138 657.42 637.47 654.919 638.804 649.75C639.805 645.915 641.806 644.748 640.972 642.914C640.138 641.08 637.303 639.913 635.468 640.747H635.302Z" fill="white"/>
<path d="M644.641 640.746C643.807 642.747 645.475 643.58 645.308 647.248C645.142 651.25 642.973 652.084 643.807 654.751C644.308 656.752 646.142 658.419 648.144 658.753C651.313 659.42 654.648 657.086 655.649 654.418C656.483 652.084 654.982 651.25 654.148 646.081C653.314 640.913 654.315 639.079 652.981 638.078C650.979 636.578 646.142 638.078 644.975 640.913L644.641 640.746Z" fill="white"/>
<path d="M656.65 633.91C655.983 636.411 657.151 638.245 658.151 641.08C660.486 647.749 658.151 651.417 659.986 652.251C661.987 653.251 666.658 650.083 667.491 646.082C667.825 644.081 666.657 641.747 664.156 637.078C660.82 630.909 659.653 630.909 659.152 630.909C657.818 630.909 656.984 632.743 656.65 634.077V633.91Z" fill="white"/>
<path d="M662.321 622.74C661.32 623.907 661.654 625.908 661.654 626.074C662.154 628.742 664.489 629.242 667.158 632.243C670.66 636.078 669.993 638.746 671.828 639.079C674.33 639.579 678.333 635.245 677.999 631.076C677.665 627.075 673.329 625.074 670.16 623.573C668.826 622.906 663.989 620.739 662.154 622.573L662.321 622.74Z" fill="white"/>
<path d="M664.489 611.068C663.822 612.902 663.988 615.236 665.156 616.903C666.323 618.737 667.991 618.571 672.328 620.572C677.665 623.072 678.666 624.907 680.167 624.24C682.168 623.239 682.835 617.904 680.5 615.57C677.998 613.069 673.329 615.57 672.661 614.069C672.161 612.902 674.83 610.067 677.665 610.067C678.999 610.067 679.5 610.734 680.5 610.401C682.668 609.567 683.836 604.565 682.001 602.898C680.667 601.564 677.832 602.898 673.328 604.732C668.492 606.9 665.656 608.067 664.656 610.901L664.489 611.068Z" fill="white"/>
<path d="M671.494 590.561C668.825 590.394 668.825 592.895 661.32 599.231C659.485 600.731 658.151 601.731 657.984 603.565C657.818 605.566 659.152 608.067 660.82 608.234C662.821 608.401 663.155 604.399 666.991 601.731C671.661 598.397 676.498 600.731 677.498 598.397C678.499 596.063 675.163 590.894 671.661 590.561H671.494Z" fill="white"/>
<path d="M602.111 501.527C604.446 499.026 608.95 498.025 611.118 499.693C613.453 501.36 612.118 505.195 612.118 510.197C612.118 520.534 617.622 522.868 623.293 542.709C624.794 548.044 625.461 551.379 623.627 553.88C621.625 556.381 617.122 557.715 614.287 556.048C610.617 553.88 612.285 548.545 609.283 537.374C607.449 530.704 606.615 531.538 603.946 523.035C600.777 512.864 598.442 505.361 602.111 501.36V501.527Z" fill="white"/>
<path d="M625.295 500.526C622.626 502.027 621.458 505.195 621.292 507.696C620.958 511.697 623.627 512.697 625.628 520.034C626.462 523.201 626.462 525.036 627.463 525.369C629.131 525.702 631.466 520.867 631.799 520.367C633.967 515.865 632.8 514.031 634.968 511.03C637.136 508.029 639.805 508.362 639.972 506.695C640.305 503.527 630.965 497.191 625.461 500.526H625.295Z" fill="white"/>
<path d="M645.809 506.694C641.806 508.028 642.473 513.197 636.802 525.035C633.467 531.871 632.466 531.537 630.631 536.873C628.797 541.875 625.795 550.211 629.631 555.213C631.799 558.047 635.969 559.715 637.97 558.381C639.805 557.214 638.637 554.046 638.971 547.543C638.971 544.709 639.304 538.873 641.806 533.038C643.14 529.87 645.309 526.869 649.812 520.7C653.981 515.031 655.649 513.53 655.149 511.363C654.315 508.362 649.478 505.861 645.809 507.028V506.694Z" fill="white"/>
<path d="M661.987 514.531C659.485 515.865 659.652 518.366 657.651 522.868C654.649 530.037 652.314 528.87 649.645 535.039C646.81 541.541 649.645 542.542 646.476 551.712C644.975 556.38 643.307 558.881 644.641 561.382C645.809 563.383 648.644 564.884 650.813 564.217C653.815 563.216 653.481 558.215 656.15 548.044C658.651 538.54 659.819 533.872 663.321 530.37C667.658 525.869 672.495 525.369 672.995 521.367C673.329 518.366 670.994 516.032 670.827 515.865C668.492 513.531 664.656 513.197 662.154 514.698L661.987 514.531Z" fill="white"/>
<path d="M679.666 521.7C683.502 520.533 686.838 521.534 687.505 521.7C691.508 522.867 696.011 526.536 695.511 529.537C695.011 532.538 689.674 532.038 684.336 537.04C682.669 538.54 681.334 541.375 678.499 547.043C673.329 557.214 672.661 560.382 668.492 564.383C666.824 566.051 662.988 569.886 660.152 568.718C658.318 568.052 657.317 565.717 656.984 563.717C656.316 558.548 661.487 556.714 664.822 549.711C668.158 542.708 664.489 541.208 667.991 533.538C668.825 531.537 672.328 523.868 679.833 521.7H679.666Z" fill="white"/>
<path d="M665.99 582.224C667.825 582.224 669.66 584.225 669.66 585.892C669.66 588.06 666.824 588.727 662.821 592.728C658.318 597.23 657.985 600.565 655.316 600.731C653.481 600.731 651.146 599.231 650.312 597.397C648.478 593.228 654.315 590.394 654.315 582.558C654.315 579.056 653.314 576.889 654.649 575.722C655.983 574.721 658.818 575.221 659.652 576.722C660.153 577.722 659.652 578.389 658.985 580.724C658.485 582.891 658.318 586.559 659.319 586.893C660.653 587.393 662.655 582.057 665.823 582.224H665.99Z" fill="white"/>
<path d="M645.476 570.719C647.144 570.053 649.645 570.719 650.479 572.22C651.147 573.554 650.479 575.054 650.146 575.888C646.977 584.058 651.147 589.894 647.31 593.228C645.309 595.062 641.807 595.562 640.139 594.228C639.138 593.395 638.971 591.894 641.139 582.057C643.141 572.887 643.808 571.22 645.476 570.553V570.719Z" fill="white"/>
<path d="M628.13 568.218C630.131 565.717 635.969 566.051 637.803 568.552C638.971 570.219 637.636 571.72 636.803 576.388C635.468 584.725 638.637 588.393 635.802 591.227C634.134 592.894 631.132 593.561 629.631 592.394C627.796 591.06 629.631 587.726 629.297 580.89C628.964 573.053 626.128 570.386 628.13 568.218Z" fill="white"/>
<path d="M616.955 569.052C618.123 566.884 621.459 565.884 622.793 566.884C623.794 567.551 623.46 569.219 623.794 572.387C623.794 574.221 623.96 573.387 625.962 583.558C627.129 589.226 627.296 590.56 626.295 591.894C625.128 593.395 622.793 594.228 621.625 593.395C620.291 592.394 621.625 589.893 621.959 586.225C622.459 577.222 614.787 572.887 616.955 568.885V569.052Z" fill="white"/>
<path d="M603.946 573.721C604.446 571.053 607.615 568.886 609.45 569.386C610.284 569.552 610.951 570.219 613.119 574.888C614.954 578.723 615.955 581.39 615.955 581.39C619.791 591.894 619.791 593.395 619.123 594.729C618.456 596.063 616.788 597.563 615.788 597.23C613.953 596.73 614.787 592.561 612.952 587.559C609.95 579.39 603.112 577.889 603.946 573.554V573.721Z" fill="white"/>
<path d="M598.942 576.889C597.608 576.889 595.773 579.556 595.773 582.224C595.773 583.224 596.274 584.892 601.944 590.06C606.448 594.062 608.616 595.896 609.783 595.396C611.118 594.562 610.784 590.06 608.616 587.059C606.781 584.392 604.947 584.892 602.445 581.724C600.277 579.056 600.277 577.055 599.109 577.055L598.942 576.889Z" fill="white"/>
<path d="M588.435 584.058C586.767 584.558 585.6 586.559 585.6 588.393C585.6 591.228 589.102 592.061 594.606 596.396C601.111 601.732 602.111 605.733 605.447 605.4C607.615 605.233 609.784 603.066 609.784 601.398C609.784 598.564 603.612 598.897 599.276 593.395C597.441 590.894 597.441 589.56 594.94 587.226C593.439 585.892 590.77 583.391 588.435 584.058Z" fill="white"/>
<path d="M580.095 591.894C578.428 592.728 576.76 594.562 576.76 596.396C576.76 597.897 578.094 598.73 583.098 602.065C589.602 606.567 589.602 606.734 591.27 607.567C593.772 608.734 599.443 610.902 600.61 609.234C601.611 607.901 598.775 604.399 598.442 604.066C594.606 599.564 590.937 601.065 587.768 596.896C585.599 594.229 585.766 591.728 583.431 591.228C581.93 590.894 580.596 591.561 580.095 591.894Z" fill="white"/>
<path d="M565.085 617.238C564.251 614.737 565.085 611.235 567.086 610.568C567.753 610.235 568.587 610.568 571.756 612.069C576.927 614.903 576.76 615.737 579.095 616.571C583.765 618.405 587.768 616.571 588.268 617.738C588.601 618.571 587.601 619.739 586.767 620.405C583.931 622.406 581.263 619.572 574.925 619.905C571.089 620.072 569.254 621.406 567.086 619.905C565.752 618.905 565.251 617.404 565.085 616.904V617.238Z" fill="white"/>
<path d="M575.759 601.231C573.591 600.897 570.922 602.731 570.422 604.732C569.921 607.567 573.757 610.068 574.758 610.568C580.596 614.403 584.765 610.568 590.603 614.569C592.604 615.903 593.772 617.404 595.273 617.07C596.774 616.57 597.941 614.403 597.274 612.902C596.774 611.401 594.772 611.568 590.936 610.401C587.601 609.401 583.097 608.067 579.595 604.565C577.76 602.731 577.26 601.398 575.759 601.231Z" fill="white"/>
<path d="M595.773 623.073C596.774 624.24 596.941 626.24 596.273 627.407C595.273 628.908 593.105 628.408 588.601 628.575C586.6 628.575 582.263 628.741 577.927 629.908C572.59 631.409 571.923 633.243 568.587 632.91C568.087 632.91 563.417 632.243 562.082 628.741C561.248 626.741 561.749 623.906 563.25 622.906C564.918 621.905 566.752 623.573 570.422 624.24C572.757 624.74 573.591 624.24 580.596 623.239C592.771 621.405 594.606 621.905 595.606 623.239L595.773 623.073Z" fill="white"/>
<path d="M563.25 637.078C561.082 638.912 562.583 643.914 563.918 646.582C564.752 648.416 565.752 650.416 567.253 650.583C569.755 650.917 570.589 646.915 575.092 643.914C579.262 641.079 584.432 640.579 589.436 640.079C594.439 639.579 596.774 640.079 597.775 638.578C598.776 636.911 597.775 633.743 595.94 632.409C594.606 631.409 592.772 631.409 584.099 633.743C574.258 636.578 573.591 637.411 569.922 637.245C566.253 637.078 564.585 635.911 563.25 637.245V637.078Z" fill="white"/>
<path d="M580.929 647.916C577.26 649.917 575.926 649.583 573.091 651.917C571.589 653.251 570.255 654.418 569.755 656.252C569.254 659.254 571.256 662.755 573.424 663.088C574.258 663.088 575.092 662.755 579.262 657.753C584.265 651.751 584.098 650.917 586.6 648.916C590.103 646.082 593.272 645.748 593.105 644.415C593.105 643.414 591.27 642.747 589.769 642.581C586.767 642.247 585.766 645.081 580.763 647.916H580.929Z" fill="white"/>
<path d="M599.943 643.08C602.778 643.08 605.614 646.748 605.113 649.249C604.78 650.916 602.945 651.083 600.443 652.584C596.774 654.751 594.773 658.086 590.603 664.588C586.266 671.424 586.1 673.925 583.931 674.259C581.263 674.592 577.594 670.757 577.76 667.256C577.76 664.255 580.763 663.921 586.6 657.419C588.935 654.918 591.77 651.25 593.772 648.916C597.441 644.414 598.275 643.08 599.943 643.08Z" fill="white"/>
<path d="M702.683 535.039C706.519 536.206 709.688 541.041 708.687 544.376C707.853 547.21 704.518 547.377 698.847 550.878C698.347 551.212 691.842 555.213 687.172 561.049C680.334 569.719 681.501 577.222 677.332 577.722C674.83 578.055 671.828 575.721 671.327 573.053C670.327 569.219 675.163 567.051 680.167 559.048C685.004 551.378 683.002 549.544 687.672 543.709C689.007 541.875 696.012 533.038 702.516 534.872L702.683 535.039Z" fill="white"/>
<path d="M716.693 553.213C720.863 553.213 724.866 556.714 725.033 559.715C725.033 562.717 721.03 564.05 714.358 569.052C702.35 577.889 701.182 584.558 691.008 587.726C689.007 588.393 684.337 589.727 682.669 587.726C680.834 585.559 683.003 580.223 685.504 577.055C688.673 572.72 692.009 572.22 697.179 569.219C709.522 561.883 710.022 553.213 716.693 553.38V553.213Z" fill="white"/>
<path d="M729.369 569.885C727.201 569.219 725.533 571.886 719.195 577.722C713.524 582.89 709.521 586.725 704.351 589.893C696.012 594.895 690.341 595.062 689.841 598.73C689.507 600.897 691.175 603.232 693.176 604.232C697.346 606.4 700.682 601.398 708.521 600.564C716.359 599.564 718.361 603.899 728.535 602.898C734.873 602.231 736.541 600.23 736.874 599.564C739.543 595.729 737.541 588.893 734.539 587.892C732.037 587.059 730.703 590.727 724.699 592.561C719.695 594.061 714.692 593.561 714.525 592.561C714.525 591.894 716.86 591.06 722.864 587.892C730.87 583.557 731.871 582.057 732.204 581.39C734.372 577.222 732.371 570.552 729.369 569.719V569.885Z" fill="white"/>
<path d="M734.205 608.234C732.871 606.9 731.37 607.067 724.699 607.233C712.023 607.567 709.521 607.4 709.188 608.567C708.687 610.068 712.357 612.402 715.859 614.569C723.364 619.238 730.036 623.406 733.705 620.905C737.041 618.571 737.374 611.068 734.205 608.067V608.234Z" fill="white"/>
<path d="M692.509 611.568C690.841 613.903 691.508 617.237 692.509 619.238C694.844 623.573 699.514 621.906 707.353 625.907C714.692 629.575 715.859 633.577 724.532 636.578C727.367 637.578 729.536 637.912 731.037 636.745C733.372 635.244 733.872 631.076 732.371 628.408C730.87 625.407 727.868 625.907 721.196 623.073C711.689 619.071 704.518 613.236 704.518 613.236C702.016 611.235 699.347 608.901 696.178 609.234C695.845 609.234 693.677 609.568 692.509 611.402V611.568Z" fill="white"/>
<path d="M608.282 653.251C609.95 653.251 611.785 654.918 611.952 656.585C612.285 658.753 609.784 660.087 607.115 663.255C603.112 667.923 603.612 670.758 597.108 681.095C595.94 682.762 595.106 684.263 593.605 684.429C591.437 684.429 588.935 681.262 588.769 678.094C588.602 673.925 592.771 672.925 598.609 665.756C604.446 658.586 605.114 653.084 608.449 653.251H608.282Z" fill="white"/>
<path d="M615.955 659.42C611.618 661.421 612.953 666.589 608.283 674.259C603.946 681.262 599.443 682.762 600.11 686.43C600.61 689.098 603.779 691.265 606.448 691.099C609.784 690.765 611.785 686.597 613.453 683.262C616.455 677.093 614.787 675.426 617.456 669.757C620.124 663.922 623.794 661.921 622.793 660.254C621.959 658.753 618.623 658.419 616.121 659.587L615.955 659.42Z" fill="white"/>
<path d="M626.629 663.421C628.463 662.588 631.132 662.588 632.466 664.088C633.634 665.422 633.133 667.256 632.299 670.591C630.298 678.761 629.297 682.929 628.964 684.763C628.13 691.265 629.964 693.433 627.963 695.267C625.294 697.935 618.456 696.767 617.289 693.933C616.455 692.099 618.623 690.932 620.124 686.764C622.125 680.595 619.457 678.594 621.291 671.591C621.959 669.09 623.126 664.922 626.629 663.421Z" fill="white"/>
<path d="M638.971 666.756C636.469 669.924 638.971 672.925 637.97 679.261C636.969 687.264 631.966 690.598 633.967 693.766C634.968 695.267 637.303 696.1 638.804 695.6C640.638 695.1 641.639 693.099 643.307 689.765C644.641 686.764 645.308 684.596 645.642 684.596C645.976 684.596 645.142 687.764 646.142 691.599C646.476 693.099 646.976 694.767 648.477 695.6C650.145 696.434 652.647 696.1 653.815 694.6C656.483 691.765 653.481 684.763 651.48 680.094C648.811 673.759 646.976 673.425 646.142 668.757C645.809 666.756 645.809 664.922 644.475 664.255C642.973 663.421 640.305 664.755 638.971 666.589V666.756Z" fill="white"/>
<path d="M656.15 663.922C654.649 663.922 652.647 664.755 651.98 666.256C651.146 668.09 652.481 669.924 656.483 676.426C661.153 684.429 661.987 686.264 661.654 688.598C661.32 690.932 659.986 692.266 660.653 693.266C661.654 694.6 665.49 694.267 667.325 692.266C669.326 690.098 668.492 686.764 667.325 681.095C665.824 673.925 663.322 670.257 662.488 668.924C660.653 666.256 658.818 663.755 656.15 663.755V663.922Z" fill="white"/>
<path d="M689.34 626.907C687.672 628.241 687.172 631.242 688.173 633.243C689.84 636.578 694.01 634.744 700.348 637.912C704.684 640.079 711.356 645.581 715.192 652.584C715.859 653.751 716.359 655.085 717.694 655.418C721.196 656.419 727.2 650.25 726.367 646.081C725.866 644.081 724.032 643.414 718.861 640.579C710.022 635.577 711.189 634.911 704.017 631.242C696.845 627.574 691.842 625.073 689.34 627.074V626.907Z" fill="white"/>
<path d="M667.825 656.919C665.49 656.752 662.988 658.586 662.321 660.92C661.153 664.922 666.324 668.757 666.991 669.257C670.827 672.091 672.328 670.257 675.664 672.758C679.5 675.593 678.166 678.927 683.169 683.429C686.004 686.097 687.506 685.93 688.006 685.763C689.841 685.43 691.342 683.262 691.508 681.261C691.842 677.927 688.673 675.092 683.669 670.757C678.833 666.589 678.332 667.423 675.33 664.255C671.161 659.92 670.827 657.085 668.158 656.752L667.825 656.919Z" fill="white"/>
<path d="M675.997 649.25C674.329 649.917 672.995 651.917 672.995 653.918C672.995 656.252 674.997 657.586 681.835 662.755C691.175 669.758 692.009 670.758 693.009 672.259C695.178 675.593 695.178 677.927 697.012 678.261C699.514 678.761 703.35 675.426 703.517 671.925C703.517 669.424 701.849 668.591 693.51 660.254C690.841 657.586 687.839 654.585 683.002 651.417C679.5 649.083 677.665 648.416 675.997 649.083V649.25Z" fill="white"/>
<path d="M671.327 676.927C668.492 678.761 668.659 686.097 672.495 689.099C674.663 690.766 677.332 690.599 677.665 690.432C679.667 690.099 682.335 688.932 682.335 687.431C682.335 685.764 679.166 685.931 677.165 682.763C675.497 680.095 676.498 677.761 674.83 676.76C673.829 676.094 672.328 676.26 671.327 676.927Z" fill="white"/>
<path d="M686.672 639.079C684.67 639.746 682.502 641.746 682.502 643.747C682.502 645.748 684.67 646.915 690.841 650.917C702.516 658.253 703.851 659.753 704.851 661.587C706.519 664.422 706.519 666.589 708.187 666.923C710.355 667.423 714.024 664.422 714.191 661.421C714.191 659.42 713.024 658.253 707.019 651.917C700.682 645.415 700.515 644.914 698.68 643.581C695.011 640.913 690.841 637.745 686.838 639.079H686.672Z" fill="white"/>
<path d="M764.561 725.613C762.559 727.447 760.558 729.448 758.556 731.282C756.555 733.116 754.553 734.783 752.385 736.617C749.216 739.451 745.881 742.286 742.545 744.953C740.21 746.954 737.875 748.955 735.373 750.622C731.537 753.79 727.701 756.791 723.865 759.626C720.696 762.127 717.36 764.461 714.025 766.628C709.521 769.796 705.018 772.798 700.515 775.632C699.514 776.466 698.68 776.966 697.68 777.466V780.134C697.68 780.134 696.345 779.3 695.678 778.633C692.009 781.301 688.34 783.468 684.503 785.469C676.331 790.471 668.158 794.973 659.652 799.141C655.816 801.308 651.814 803.309 647.644 804.977C603.112 826.151 554.411 839.99 503.041 845.159H412.976C303.231 833.321 208.497 779.133 138.28 706.939C140.115 705.772 141.783 704.605 143.451 703.604C143.451 703.604 143.617 703.604 143.617 703.438C217.003 657.086 274.211 640.58 318.576 638.079C319.076 638.079 319.576 637.912 319.91 637.912C338.59 636.912 354.935 638.413 369.112 641.08C383.288 643.748 395.797 647.916 407.306 652.751C437.16 665.756 459.843 684.93 486.529 702.771C492.2 706.605 497.87 710.273 504.041 713.775C506.043 715.109 508.044 716.109 510.046 717.276C513.715 719.277 517.384 721.278 521.22 723.278C523.055 723.945 524.89 724.946 526.724 725.779C529.393 726.947 532.061 728.114 534.73 729.281C537.232 730.281 539.734 731.282 542.235 732.282C542.569 732.282 543.069 732.615 543.403 732.782C546.905 733.949 550.408 735.116 554.077 736.283C559.748 738.117 565.585 739.785 571.923 741.285C573.257 741.619 574.758 741.952 576.093 742.286C577.761 742.619 579.595 743.119 581.263 743.286C585.6 744.287 589.602 744.953 593.939 745.62H594.106C595.773 745.954 597.608 746.287 599.443 746.287C602.612 746.788 605.614 747.288 608.616 747.454C612.285 747.955 615.955 748.121 619.457 748.288C624.627 748.788 629.464 748.955 634.468 748.955C637.136 748.955 639.638 748.955 642.14 748.788C644.975 748.955 647.644 748.788 650.479 748.455C653.315 748.622 655.983 748.455 658.652 748.121C658.652 748.288 658.985 748.121 658.985 748.121C662.321 748.121 665.49 747.788 668.659 747.288C669.493 747.288 670.327 747.288 670.994 746.954C674.83 746.954 678.666 746.287 682.502 745.62C689.507 744.787 696.012 743.62 702.683 742.286H702.85C707.02 741.619 711.022 740.785 715.025 739.785C720.029 738.784 724.699 737.617 729.369 736.283C732.037 735.617 734.706 734.95 737.208 734.116C740.544 733.282 744.046 732.282 747.215 731.115C750.217 730.281 753.052 729.448 755.888 728.447C758.723 727.447 761.559 726.446 764.394 725.613H764.561Z" fill="white"/>
<path d="M773.233 722.444V725.946C772.566 724.945 771.732 724.112 771.232 723.111C771.899 723.111 772.566 722.611 773.233 722.444Z" fill="white"/>
<path d="M8.6875 436.835C148.954 331.961 238.185 538.374 375.783 501.026C393.629 496.358 410.474 488.021 426.152 477.684C362.607 534.539 280.215 516.699 214.501 473.182C146.119 431.166 89.245 401.488 12.8571 443.337L8.6875 436.668V436.835Z" fill="white"/>
<path d="M700.515 775.632C699.514 776.466 698.68 776.966 697.679 777.466V780.134C697.679 780.134 696.345 779.3 695.678 778.633C692.009 781.301 688.339 783.468 684.503 785.469C676.331 790.471 668.158 794.973 659.652 799.141C655.816 801.308 651.813 803.309 647.644 804.977C603.112 826.151 554.41 839.99 503.04 845.159C488.03 846.659 472.852 847.493 457.341 847.493C441.83 847.493 427.82 846.659 413.476 845.159H412.976C409.307 836.155 405.638 827.318 401.968 818.482C436.993 784.969 468.182 761.96 495.869 746.787H496.035C501.373 743.786 506.209 741.119 511.213 738.951C518.051 735.616 524.556 732.782 530.727 730.615C532.228 730.114 533.562 729.614 534.73 729.281C541.234 726.947 547.405 725.112 553.243 723.779C553.243 723.779 553.354 723.723 553.577 723.612C557.246 722.945 560.915 722.111 564.251 721.611C570.088 720.611 575.759 720.111 581.263 719.944C584.098 719.61 586.934 719.444 589.769 719.61C593.105 719.61 596.107 719.777 599.276 720.111C601.277 720.277 603.445 720.444 605.447 720.777C608.616 721.111 611.785 721.611 614.787 722.278C616.621 722.611 618.456 723.112 620.124 723.612C620.958 723.779 621.625 723.945 622.292 724.112C625.962 725.112 629.631 726.28 633.133 727.613C635.468 728.447 637.637 729.281 639.638 730.281C640.805 730.781 641.973 731.281 643.14 731.782C647.143 733.616 650.979 735.617 654.649 737.951C659.485 740.785 664.322 743.953 668.825 747.288C671.661 749.455 674.329 751.456 677.165 753.79H677.331C684.336 759.792 690.841 765.962 697.346 772.464C698.513 773.464 699.514 774.631 700.515 775.632Z" fill="white"/>
<path d="M540.067 722.945C540.067 722.945 540.901 721.611 541.068 721.277C539.9 721.277 539.9 723.445 540.067 722.945Z" fill="white"/>
<path d="M528.725 723.278L529.226 722.611L527.058 723.778L528.725 723.278Z" fill="white"/>
<path d="M519.552 719.61C519.219 722.778 523.055 720.444 524.389 722.111V722.778L526.057 720.777C523.889 720.444 520.72 720.777 519.552 719.443V719.61Z" fill="white"/>
<path d="M517.051 711.606C517.051 712.774 515.55 712.107 518.051 712.44C518.051 712.44 518.051 712.273 518.051 712.107C517.885 712.107 517.551 711.94 517.217 711.606H517.051Z" fill="white"/>
<path d="M518.051 712.107C517.885 710.94 519.052 712.441 518.051 712.107V712.107Z" fill="white"/>
<path d="M513.381 710.773L515.049 710.44C515.049 710.44 514.049 709.106 514.716 708.772C513.215 708.772 513.215 709.439 513.548 710.773H513.381Z" fill="white"/>
<path d="M511.38 712.274H512.214C512.214 712.274 512.214 711.607 511.38 712.274Z" fill="white"/>
<path d="M513.882 711.94H512.214C512.214 711.94 511.88 713.608 513.048 712.107C512.548 712.941 513.048 712.107 514.049 711.94H513.882Z" fill="white"/>
<path d="M514.549 712.774C515.049 713.608 515.716 714.442 514.048 714.942C516.717 715.609 517.05 713.441 514.549 712.774Z" fill="white"/>
<path d="M517.885 722.277L518.552 723.444L519.719 722.777C519.719 722.777 518.218 721.277 517.885 722.111V722.277Z" fill="white"/>
<path d="M506.376 705.938C506.376 705.938 506.043 707.606 505.876 708.439H507.044C506.71 707.606 506.043 706.772 506.376 705.938Z" fill="white"/>
<path d="M505.876 708.439L504.041 708.773C505.209 709.44 505.709 709.106 505.876 708.439Z" fill="white"/>
<path d="M509.712 715.275L512.881 714.107L509.378 715.108L509.712 715.275Z" fill="white"/>
<path d="M501.206 703.437L502.707 702.437L500.372 703.77L501.206 703.437Z" fill="white"/>
<path d="M497.703 701.936C498.871 701.103 497.87 699.769 498.871 699.269C497.87 698.935 496.536 699.602 495.535 699.935C496.536 699.935 497.203 700.436 497.87 701.77L497.703 701.936Z" fill="white"/>
<path d="M493.7 700.769C493.7 700.769 494.868 700.436 495.535 700.103C495.034 700.103 494.367 700.269 493.7 700.769Z" fill="white"/>
<path d="M501.873 707.439C501.873 707.439 502.207 706.105 501.54 705.271L501.206 707.106L501.706 707.439H501.873Z" fill="white"/>
<path d="M501.206 707.271C501.206 707.271 500.205 706.604 500.038 706.604C500.038 706.604 500.538 706.938 501.206 707.271Z" fill="white"/>
<path d="M506.71 712.107C505.542 712.608 503.374 712.941 504.375 714.942C505.542 714.108 504.875 712.941 506.71 712.107Z" fill="white"/>
<path d="M501.54 709.773L502.874 710.773C502.874 710.773 503.041 709.606 503.708 709.272L501.54 709.606V709.773Z" fill="white"/>
<path d="M500.706 709.94L501.54 709.773L501.206 709.439L500.706 709.94Z" fill="white"/>
<path d="M495.368 703.437C494.368 703.771 493.701 703.437 492.867 703.271C493.534 703.937 494.201 704.604 495.035 705.105C495.368 704.604 496.202 703.937 495.368 703.604V703.437Z" fill="white"/>
<path d="M498.037 705.438H497.87C497.87 705.438 497.87 705.771 498.037 705.438Z" fill="white"/>
<path d="M485.361 699.269V699.602L485.528 699.435L485.361 699.269Z" fill="white"/>
<path d="M495.035 705.438C495.035 705.438 496.036 705.938 496.703 705.438C496.202 705.438 495.702 705.271 495.035 704.938C495.035 705.104 494.701 705.271 495.035 705.271V705.438Z" fill="white"/>
<path d="M491.199 700.436C491.199 700.436 491.532 701.436 491.866 701.936C491.866 701.269 491.532 700.102 491.199 700.436Z" fill="white"/>
<path d="M497.87 704.938C497.87 704.938 497.036 705.271 496.536 705.438C497.036 705.438 497.37 705.438 497.87 705.438C497.87 705.438 497.87 705.104 497.87 704.938Z" fill="white"/>
<path d="M477.523 708.106C478.523 706.772 480.858 706.272 481.359 708.606C483.36 708.272 485.028 702.937 485.361 699.603C485.028 700.269 484.694 700.77 482.693 700.936C482.693 701.937 484.694 704.438 482.693 705.105C480.358 704.771 481.525 703.771 481.025 702.437C480.858 704.604 477.189 703.771 476.021 706.605H478.19C478.19 706.605 477.022 707.272 477.189 707.939L477.523 708.106Z" fill="white"/>
<path d="M488.03 701.27H488.697C488.697 701.27 488.03 699.936 487.863 698.269C486.529 698.435 486.028 698.936 485.695 699.269L488.363 701.103H488.03V701.27Z" fill="white"/>
<path d="M491.199 702.77C489.864 704.104 488.197 704.104 488.03 706.271C489.864 707.105 489.864 705.605 491.366 705.438C488.363 704.437 492.7 704.938 491.199 702.937C491.866 702.937 492.366 703.104 492.867 703.27C492.533 702.77 492.199 702.27 491.866 701.77C491.866 701.77 491.866 702.27 491.866 701.936C491.866 701.936 491.532 702.27 491.366 702.437C490.698 701.77 491.366 701.936 491.866 701.936V701.77L488.697 701.27C488.697 701.27 489.864 702.103 491.366 702.603L491.199 702.77Z" fill="white"/>
<path d="M501.206 717.943C501.206 717.943 501.206 717.609 501.206 717.442C500.873 717.442 500.873 717.609 501.206 717.943Z" fill="white"/>
<path d="M500.539 716.275C500.539 716.275 501.373 715.608 501.873 716.108C502.207 716.942 501.54 716.942 501.206 717.442C501.873 717.276 503.207 716.942 502.207 715.608H501.873C501.039 714.608 500.539 711.94 500.872 711.773C500.539 713.441 500.372 714.608 500.372 716.442L500.539 716.275Z" fill="white"/>
<path d="M495.535 709.94L492.867 709.606L493.367 711.607L493.701 710.774C494.868 711.774 495.035 710.607 495.535 710.107V709.94Z" fill="white"/>
<path d="M485.695 698.268L486.862 696.768L484.194 698.435L485.695 698.268Z" fill="white"/>
<path d="M482.526 696.934L483.527 695.601L482.192 695.934L482.526 696.934Z" fill="white"/>
<path d="M307.568 650.25L306.9 650.917C306.9 650.917 307.401 650.583 307.568 650.25Z" fill="white"/>
<path d="M312.905 649.25V648.416C312.905 648.416 312.738 649.25 312.905 649.25Z" fill="white"/>
<path d="M417.313 647.915C417.646 646.081 418.48 643.413 417.313 644.914L416.312 646.415C416.312 646.415 417.313 647.248 417.48 647.915H417.313Z" fill="white"/>
<path d="M357.103 636.578L357.437 637.078C357.437 637.078 358.104 635.911 358.271 635.411L357.103 636.578Z" fill="white"/>
<path d="M355.936 644.081L354.602 642.914C354.602 642.914 355.269 643.748 355.936 644.081Z" fill="white"/>
<path d="M279.381 659.42L279.047 661.421C280.382 660.921 279.548 660.254 279.381 659.42Z" fill="white"/>
<path d="M453.505 678.928C453.172 677.761 452.671 677.094 452.171 676.594C452.504 678.094 452.171 679.928 453.505 678.928Z" fill="white"/>
<path d="M306.067 630.742C306.067 630.742 305.566 631.576 305.566 631.909C306.067 631.576 306.234 631.076 306.067 630.742Z" fill="white"/>
<path d="M450.003 675.093C450.003 675.093 450.003 675.426 450.003 675.76C450.67 675.926 451.504 676.093 452.004 676.76C451.837 675.593 451.337 674.759 449.836 675.093H450.003Z" fill="white"/>
<path d="M176.808 699.936C176.808 699.936 176.641 699.936 176.474 699.936C176.474 700.102 176.641 700.102 176.808 699.936Z" fill="white"/>
<path d="M139.614 696.602C139.614 696.602 140.281 696.101 140.782 695.935C140.448 695.935 140.115 695.935 139.614 696.602Z" fill="white"/>
<path d="M470.684 697.268C470.684 697.268 470.183 697.601 470.017 697.935C470.35 697.601 470.517 697.434 470.684 697.268Z" fill="white"/>
<path d="M472.018 690.599C472.018 690.599 471.685 689.932 471.518 689.599C471.518 689.765 471.685 690.099 472.018 690.599Z" fill="white"/>
<path d="M472.352 689.766C472.352 689.766 472.686 690.099 472.852 690.266C473.019 690.099 473.186 689.932 472.352 689.766Z" fill="white"/>
<path d="M470.684 688.932C470.684 688.932 471.351 689.432 471.518 689.765C471.518 689.599 471.518 689.432 471.518 689.432C471.351 689.432 471.018 689.265 470.684 688.932Z" fill="white"/>
<path d="M229.345 671.258C229.345 671.258 229.345 671.258 229.178 671.258C228.845 672.258 229.178 671.925 229.345 671.258Z" fill="white"/>
<path d="M391.461 651.084H391.628L391.461 650.917V651.084Z" fill="white"/>
<path d="M388.959 651.751C390.627 649.917 391.127 650.417 391.628 651.084L393.129 646.082C391.628 647.916 390.293 649.917 388.959 651.751Z" fill="white"/>
<path d="M295.059 653.585L297.227 654.752C295.726 657.92 294.058 657.253 296.226 659.253C295.059 653.585 302.731 657.086 301.73 651.417L303.064 652.251C303.064 652.251 302.731 652.584 302.397 652.584C305.233 654.752 303.064 648.082 306.233 648.416C307.401 648.583 308.235 649.25 307.568 650.083L309.569 648.249C309.569 648.249 310.236 649.25 309.569 649.25L312.905 648.083C312.905 648.083 314.072 645.748 314.573 645.081C315.573 645.748 314.239 645.748 314.573 646.415L316.24 644.748C317.241 646.082 315.907 647.749 314.573 647.749C317.241 653.084 315.907 646.082 320.243 648.749L318.575 649.75C320.243 652.751 321.411 651.417 323.579 653.251C323.079 652.251 318.909 648.749 320.744 647.082C321.411 647.416 322.245 647.582 323.079 646.248C323.412 648.249 324.413 647.582 325.747 647.249V649.917C327.248 648.916 327.082 647.582 327.749 646.248C329.417 646.248 329.917 648.416 330.417 650.083C333.086 650.25 328.249 646.915 331.418 646.082C333.753 646.915 335.087 645.748 337.589 643.914C339.09 644.748 337.422 645.582 337.923 646.248L339.09 644.081C339.09 644.081 339.424 644.748 339.257 645.081C340.424 644.248 339.257 642.414 341.092 641.58C341.592 638.579 344.928 645.915 347.096 642.414C347.596 643.247 346.762 644.081 347.096 645.081C350.098 642.747 349.764 643.414 352.266 640.58L354.434 642.414C352.933 640.246 355.102 638.079 356.936 636.078C356.436 635.077 355.935 634.244 355.602 633.744L358.604 632.41C358.604 632.41 358.604 633.744 358.104 634.911L358.604 634.244C359.605 635.244 358.938 636.745 358.104 638.245L357.103 636.578C356.269 638.245 355.602 639.913 355.602 641.58C355.769 641.247 356.102 641.08 356.603 640.913C356.436 641.413 356.269 641.747 356.269 642.08C356.269 642.414 356.603 641.747 357.103 641.08L357.603 644.081V642.914L361.273 644.915C364.108 642.247 366.943 638.079 371.447 637.412C370.112 639.412 370.779 640.913 370.279 643.581C369.445 640.746 366.943 644.414 364.775 643.581C365.943 644.081 365.442 645.248 365.109 645.582L369.278 643.581C368.945 645.748 369.945 645.248 370.779 646.248C370.779 641.913 374.115 643.914 375.783 642.914C375.783 644.248 374.949 645.748 373.114 644.915C374.615 648.416 376.617 640.58 378.285 643.581C377.784 643.581 377.618 643.247 377.284 643.914C378.618 642.914 381.12 644.414 380.119 645.415H379.619C382.955 646.248 387.958 647.749 389.793 644.581C389.793 645.081 387.792 648.416 387.458 649.083C390.293 645.915 393.796 642.747 397.632 639.913C395.797 642.58 393.796 649.416 390.96 650.25C391.461 650.917 391.794 651.417 393.295 651.084C393.295 650.583 394.797 646.749 395.464 646.749C394.963 650.583 395.464 648.916 395.464 652.417C395.464 651.584 398.799 648.082 399.633 649.083C398.966 649.583 396.631 652.751 395.964 652.918C397.632 652.251 399.3 651.751 401.134 651.25C399.967 651.25 398.299 654.085 397.799 655.585C398.299 654.752 399.467 657.253 400.467 657.586V655.919C402.302 658.753 407.472 653.585 409.807 656.252C408.807 656.586 404.804 659.754 405.804 661.421C408.139 660.254 416.479 655.585 419.981 656.252L419.481 657.586L422.316 657.92C418.814 659.754 410.474 662.421 406.805 662.922C406.972 664.589 405.971 664.422 407.472 665.756C407.139 667.257 405.304 666.423 404.804 666.089L407.639 669.924C409.474 667.757 412.309 670.258 413.643 668.424L407.806 667.09C409.64 664.922 415.478 663.255 417.479 665.756C417.479 667.09 413.643 669.091 412.976 669.758C413.977 669.257 416.479 670.424 416.312 671.258H414.31C414.978 673.426 418.98 670.591 418.98 674.092C419.481 674.759 418.313 678.427 419.481 677.094C420.648 673.759 426.986 666.089 429.154 664.756C429.154 665.089 430.155 669.591 429.655 671.425C428.988 674.092 424.318 674.926 423.817 677.26C424.318 676.76 425.485 676.427 425.985 676.427C426.152 677.427 424.151 678.094 425.819 678.928C427.82 676.927 428.487 681.262 427.987 677.594C429.822 678.094 428.988 679.261 430.655 680.428C431.323 678.594 435.993 676.593 437.827 677.094C437.327 677.594 436.993 678.594 436.827 679.094C439.328 681.429 439.995 683.596 442.664 685.43C442.497 686.097 443.331 687.764 441.997 688.431C442.664 688.431 443.665 687.764 444.499 688.431C444.499 691.599 442.497 687.431 441.83 690.766C442.998 689.432 445.333 690.432 447 690.432C448.168 688.098 444.665 688.098 442.831 688.098C444.999 685.263 449.169 683.596 452.671 684.263C455.34 685.097 452.338 686.764 453.005 686.597C456.674 689.932 460.01 683.763 461.844 688.265C461.844 691.099 459.343 692.099 458.842 693.6C456.507 693.1 456.841 690.599 455.673 689.765L456.507 691.599C455.507 691.766 454.005 691.599 453.672 690.599C453.672 693.1 460.343 695.601 462.678 699.269C463.679 698.935 465.013 698.935 465.013 697.935L463.846 697.602C463.846 695.434 467.182 696.601 466.348 695.101C468.349 694.934 471.018 694.1 472.352 696.101L471.351 698.602C471.351 698.602 470.851 696.601 469.85 696.935C471.184 696.434 471.018 701.77 473.686 699.269L473.186 696.935C475.187 696.601 478.356 695.267 479.69 696.935C480.191 694.267 479.19 696.935 479.524 693.6C478.69 697.435 475.187 690.932 475.02 695.267C475.521 691.599 473.686 692.766 473.519 689.265C473.186 690.099 473.186 690.932 472.018 689.765C471.852 689.932 471.518 690.099 471.351 690.265C471.351 690.766 471.518 691.266 471.351 691.766C469.683 692.933 467.348 691.433 466.181 691.766C465.514 690.932 467.015 691.099 467.015 690.099L465.013 690.599C465.847 688.932 464.513 686.597 467.015 686.931L465.347 685.764C464.847 684.263 463.679 682.929 462.512 682.929C462.011 682.096 459.343 683.263 460.844 682.596L457.508 681.762V681.429C455.34 679.428 450.503 680.095 449.502 675.093C448.335 674.759 447.167 674.593 446 673.092L446.667 671.592C445.166 671.258 444.332 667.757 442.831 668.757C444.499 664.422 438.161 663.755 436.827 661.588L435.325 663.088C434.158 661.921 432.49 661.254 430.322 660.587L429.154 662.088C426.653 662.088 426.486 658.086 424.318 656.252C424.985 655.919 425.318 656.419 425.485 657.086C425.819 651.751 417.98 654.418 417.98 650.083C416.979 650.083 416.645 649.416 416.645 648.749H416.812L416.645 648.583C416.645 648.082 416.645 647.582 416.645 647.082C416.645 647.582 416.645 648.082 416.645 648.416C416.145 648.082 415.311 647.582 414.477 647.249L415.645 645.582C415.645 645.582 415.645 645.582 415.478 645.582C415.478 644.414 414.31 645.748 413.477 647.249C412.976 647.249 412.309 647.249 411.809 647.249C413.643 644.414 409.307 646.248 410.975 643.081C409.474 643.914 406.138 640.413 403.469 643.081C403.803 642.747 403.469 642.247 404.137 642.58C403.469 641.58 402.802 640.413 401.301 640.746L402.302 638.245C400.968 638.746 399.467 639.246 398.132 639.913C397.465 638.079 397.298 636.912 399.633 635.744C394.797 637.078 396.131 635.744 392.128 637.412L392.795 635.911C391.628 635.578 389.293 637.078 389.126 635.578C387.458 631.409 378.118 632.577 372.781 628.742C373.281 633.744 370.279 626.241 369.612 629.909C369.445 628.742 368.611 627.908 369.612 627.074C366.443 627.908 365.275 624.74 362.774 627.575C362.607 626.407 363.608 625.907 363.274 625.24C362.94 625.407 362.273 626.074 361.94 625.407C361.606 624.74 362.44 624.407 362.94 624.073C359.772 624.073 359.271 627.575 358.771 630.909C357.27 629.242 356.603 629.409 355.268 631.576C354.768 630.409 353.934 629.242 355.935 628.908C354.935 628.742 349.431 626.908 349.264 629.742C348.93 629.075 347.763 629.575 347.429 629.742C345.094 629.742 344.761 629.409 342.426 629.742L343.093 630.242C342.259 633.577 341.258 631.076 339.257 631.409V631.076C334.92 628.908 337.589 632.243 333.086 629.909L333.419 631.91C333.419 636.245 329.583 629.742 327.248 631.576L328.249 632.577C327.082 634.244 323.913 626.908 322.412 626.741C322.078 626.407 322.745 626.074 323.245 625.741C319.409 623.74 323.245 628.408 320.577 629.409C319.91 628.075 320.744 625.741 318.909 625.741C317.742 624.74 314.406 631.076 311.57 628.742C312.238 629.742 312.905 630.742 311.904 631.743C310.069 632.41 306.233 628.575 305.066 632.41C304.732 632.243 304.565 631.91 304.565 631.576C303.398 632.743 300.229 633.91 299.895 635.911C297.06 629.409 292.057 641.247 290.555 635.077L286.386 636.411V635.744C283.55 636.078 282.883 637.912 282.383 639.579C281.716 639.412 281.883 638.579 281.883 638.245C277.546 638.245 277.213 638.412 274.878 642.58L273.877 640.746C273.377 642.247 267.205 639.412 264.203 642.914C264.203 642.747 264.203 642.247 264.203 641.913C260.701 645.582 252.028 640.079 253.029 647.749L250.86 650.583C254.697 649.917 251.528 653.918 253.362 654.585C252.195 655.585 249.026 653.751 250.527 652.751L250.86 653.084C250.193 649.083 246.024 653.418 245.023 650.917C238.018 653.751 230.513 654.585 223.841 657.086L225.843 659.587L223.508 660.421C222.674 660.087 221.84 658.587 223.508 657.92C222.007 656.753 221.339 660.421 221.673 661.087C218.004 661.254 221.506 657.253 220.505 657.586L219.338 658.42H219.838C219.338 660.254 219.838 661.421 217.67 662.255C216.169 662.255 216.336 660.754 215.835 660.921C215.835 660.754 215.502 660.754 215.002 661.087L211.999 662.088L214.168 663.755C213.334 665.422 211.499 664.756 213.834 666.756C210.165 663.755 202.659 669.924 200.992 669.257C199.991 671.591 198.323 672.425 195.988 673.092C196.655 673.259 198.156 675.593 196.155 676.26C194.487 670.758 191.818 675.593 188.649 672.592C191.151 674.426 183.646 675.593 187.315 678.094C185.647 678.428 186.314 676.26 184.647 675.593C181.978 679.261 175.974 677.927 171.804 680.595C171.971 681.262 173.305 681.929 172.805 683.429L168.969 681.095C168.969 681.095 169.969 685.43 167.301 683.763C167.801 684.263 168.468 684.93 167.968 685.43C157.627 686.097 151.289 696.268 139.448 694.1C141.282 694.934 140.448 695.434 139.448 695.767C140.115 695.767 140.115 697.435 140.782 698.268L135.945 697.435C136.445 700.269 131.942 699.436 132.776 702.103L133.777 701.103C133.443 704.604 138.78 706.438 140.282 710.273C140.615 706.272 147.12 712.941 147.954 707.105C148.954 707.605 147.954 708.606 148.621 709.273C148.621 707.439 149.455 706.605 151.289 706.605V707.105C155.793 704.604 158.461 705.271 163.965 703.937L162.798 702.27C163.965 701.937 164.465 702.437 165.299 702.77C165.299 699.436 162.13 704.104 161.964 700.436C165.133 703.437 169.803 696.935 172.805 700.769C174.473 699.936 171.304 698.935 173.138 698.102L174.139 699.102V697.435C175.14 697.101 176.307 698.268 176.808 699.269C176.474 699.269 176.14 699.936 175.974 700.103C177.975 700.769 179.81 697.768 180.644 697.935H178.642C182.812 694.767 189.15 693.767 192.652 689.432L191.985 688.765C194.654 685.597 195.154 688.431 198.657 685.93V686.264C198.99 685.097 199.824 684.263 200.825 683.763C200.324 685.263 203.493 684.93 202.826 686.597C205.828 683.263 203.994 684.43 205.161 680.095L206.329 681.262C206.662 679.595 206.329 678.928 208.163 677.594C207.163 679.595 210.332 679.261 209.331 681.595C214.668 682.929 213.834 675.927 217.67 679.595C217.67 674.759 213.334 678.928 214.001 677.594C212.5 676.76 214.168 673.926 215.669 673.759C217.003 673.259 220.005 677.927 223.174 676.427C222.84 676.427 223.007 676.927 222.674 676.927C224.342 677.427 224.342 674.593 226.677 675.593C226.51 672.925 228.678 674.926 227.51 671.758L224.842 673.759C226.176 672.258 226.176 667.923 229.679 668.59C229.679 669.257 229.178 670.424 228.845 671.091C230.012 671.592 230.179 669.758 231.347 670.424C232.347 673.592 228.011 672.592 227.344 675.76C228.678 676.76 229.679 672.092 230.346 675.76C229.845 670.925 233.682 674.926 234.515 670.758L235.183 672.592C235.183 672.592 235.683 670.925 236.35 670.758V673.592C237.184 670.758 240.353 673.926 241.52 672.258C238.018 673.759 239.853 670.424 237.851 669.591C241.187 665.422 242.354 673.426 246.858 670.591C246.357 671.091 244.022 670.591 244.689 669.257C245.69 669.257 247.191 669.424 248.192 670.258C251.194 668.59 247.024 668.59 247.858 666.923C249.86 668.757 249.026 665.423 250.193 664.089L250.86 665.923C255.03 665.756 250.36 661.588 254.196 661.754L253.696 664.922L255.197 663.588L255.697 665.923C257.032 663.588 257.699 663.755 259.867 663.755C258.866 662.588 258.866 660.254 260.534 659.587C262.035 660.254 260.534 661.588 262.869 660.587C262.869 661.921 262.869 663.755 261.034 662.255C261.034 662.922 261.034 663.588 261.034 664.255C262.702 665.089 264.203 663.422 265.037 663.088C264.704 663.088 264.203 663.088 264.037 663.088L266.538 659.253C266.538 659.253 267.039 660.587 266.872 661.254C267.539 660.754 267.706 659.754 268.54 659.253C268.873 660.921 269.374 662.421 268.206 663.755L270.875 660.921C270.875 660.921 273.21 662.255 272.876 662.922C274.878 663.255 276.212 658.42 279.047 658.92C279.047 658.587 279.214 658.253 279.714 657.753C282.049 657.419 284.551 658.92 286.553 655.919L288.888 658.42C290.722 657.253 285.885 655.419 288.888 653.418C291.056 651.751 290.389 655.585 291.556 656.086C292.39 654.252 293.724 650.917 296.56 652.584C295.893 653.251 295.225 653.084 294.558 653.418L295.059 653.585ZM320.744 647.082C320.744 647.082 319.409 649.083 318.909 647.916C319.076 645.582 319.743 646.582 320.744 647.082ZM360.939 640.746C360.939 640.746 359.938 641.08 359.271 640.246C359.772 640.246 360.272 640.246 360.939 640.746ZM464.179 686.597C463.679 685.263 463.846 685.764 464.179 686.597V686.597ZM465.68 688.598C465.68 688.598 466.181 688.265 466.181 687.931C465.68 688.265 465.347 687.931 464.847 687.598C464.847 688.098 464.847 688.598 465.68 688.598ZM216.836 661.754L217.503 662.088C216.669 663.088 216.836 662.421 216.836 661.754Z" fill="white"/>
<path d="M356.103 643.247C356.103 643.247 356.103 642.58 356.103 642.08C355.936 642.414 355.936 642.747 356.103 643.247Z" fill="white"/>
<path d="M279.381 659.087H279.214L279.381 659.42V659.087Z" fill="white"/>
<path d="M424.651 679.761C424.651 679.761 424.484 678.761 424.651 678.261C424.318 678.594 424.151 679.094 424.651 679.761Z" fill="white"/>
<path d="M478.19 692.433L476.688 692.1C476.688 692.1 477.356 692.933 477.522 693.433C477.689 692.933 477.856 692.266 478.19 692.433Z" fill="white"/>
<path d="M483.694 709.939C483.694 709.939 484.194 710.106 484.527 709.939L484.861 709.106C484.027 708.606 483.026 709.106 483.694 709.939Z" fill="white"/>
<path d="M476.022 698.935C475.188 700.436 476.355 700.436 477.523 700.769C479.024 698.768 477.523 698.935 476.188 698.935H476.022Z" fill="white"/>
<path d="M477.689 700.77C477.689 700.77 478.356 700.936 478.523 701.27C479.19 700.436 478.189 700.936 477.689 700.77Z" fill="white"/>
<path d="M468.85 689.265C468.85 689.265 470.351 687.598 470.184 688.265C471.852 686.764 465.848 688.598 468.85 689.265Z" fill="white"/>
<path d="M473.853 704.271L474.687 702.104L473.186 703.271L473.853 704.271Z" fill="white"/>
<path d="M467.182 698.435L468.349 699.936C468.349 699.936 468.85 699.602 469.183 699.602C468.349 698.935 467.515 697.935 467.182 698.602V698.435Z" fill="white"/>
<path d="M469.183 699.436C469.183 699.436 470.184 699.936 470.517 699.936C470.184 699.936 469.683 699.602 469.183 699.436Z" fill="white"/>
<path d="M471.518 703.437L471.351 702.937L470.351 702.104L471.518 703.437Z" fill="white"/>
<path d="M451.67 687.598L449.836 686.931C449.836 686.931 449.502 688.098 450.169 688.265C450.837 688.265 451.504 688.265 451.67 687.598Z" fill="white"/>
<path d="M453.172 695.601C453.172 695.601 453.172 694.6 453.338 693.767L451.837 695.934L453.172 695.601Z" fill="white"/>
<path d="M448.168 692.933C448.168 692.933 444.665 692.933 446.834 694.266C447.334 693.766 449.335 694.433 448.168 692.933Z" fill="white"/>
<path d="M426.986 672.258L427.32 672.591L429.988 669.257L426.986 672.258Z" fill="white"/>
<path d="M400.634 662.087C401.635 664.422 402.969 660.587 403.469 662.921C404.637 662.588 402.969 660.92 403.97 660.754C402.135 660.587 402.135 659.586 400.634 662.087Z" fill="white"/>
<path d="M133.61 696.768L131.942 696.602L133.443 697.435L133.61 696.768Z" fill="white"/>
<path d="M132.442 700.77L130.941 698.436V701.103C130.941 701.103 131.942 700.436 132.442 700.77Z" fill="white"/>
<path d="M325.247 652.084V651.417C325.247 651.417 324.58 650.75 323.913 650.75L325.247 652.084Z" fill="white"/>
<path d="M306.4 653.084H306.734L305.566 650.75L306.4 653.084Z" fill="white"/>
<path d="M291.556 659.92C291.556 659.92 292.724 659.087 293.391 659.087C292.057 659.92 290.556 657.086 291.556 659.92Z" fill="white"/>
<path d="M700.682 774.131C700.682 774.131 700.348 774.965 700.348 775.131C701.182 773.131 700.682 774.131 700.682 774.131Z" fill="white"/>
<path d="M694.177 769.796L694.844 769.296L692.676 769.963L694.177 769.796Z" fill="white"/>
<path d="M688.006 765.127C686.672 767.961 690.508 766.461 691.008 768.128V768.795L692.676 767.294C691.175 766.628 688.339 766.628 688.006 765.294V765.127Z" fill="white"/>
<path d="M689.007 757.458C688.506 758.458 687.672 757.625 689.507 758.292C689.507 758.292 689.507 758.125 689.507 757.958C689.507 757.958 689.174 757.791 689.007 757.458Z" fill="white"/>
<path d="M686.171 756.124H687.672C687.672 756.124 687.338 754.624 687.839 754.457C686.671 754.124 686.338 754.791 686.171 756.124Z" fill="white"/>
<path d="M684.17 757.125H684.837C684.837 757.125 684.837 756.624 684.17 757.125Z" fill="white"/>
<path d="M686.338 757.124H684.837C684.837 757.124 684.003 758.291 685.504 757.124C684.837 757.791 685.504 757.124 686.338 757.124Z" fill="white"/>
<path d="M686.505 757.958C686.505 758.792 686.838 759.625 685.337 759.792C687.172 760.792 688.173 758.958 686.505 757.958Z" fill="white"/>
<path d="M685.838 767.295V768.462L687.172 768.129C686.505 768.295 686.338 766.628 685.838 767.295Z" fill="white"/>
<path d="M682.335 750.622C682.335 750.622 681.501 752.123 681.001 752.79H682.002C682.002 752.79 681.668 751.289 682.335 750.622Z" fill="white"/>
<path d="M681.001 752.789H679.333C680 753.623 680.501 753.289 681.001 752.789Z" fill="white"/>
<path d="M681.835 759.458L684.837 759.125L681.501 759.292L681.835 759.458Z" fill="white"/>
<path d="M678.999 747.621L680.501 746.954L678.166 747.788L678.999 747.621Z" fill="white"/>
<path d="M676.665 745.787C677.832 745.12 677.499 743.786 678.499 743.62C677.832 743.286 676.498 743.62 675.497 743.953C676.331 743.953 676.831 744.62 676.831 745.954L676.665 745.787Z" fill="white"/>
<path d="M673.662 744.287C673.662 744.287 674.663 744.287 675.33 743.953C674.83 743.953 674.329 743.953 673.662 744.287Z" fill="white"/>
<path d="M677.999 751.289C677.999 751.289 678.666 750.122 678.499 749.288L677.665 750.955L677.999 751.289Z" fill="white"/>
<path d="M677.665 750.956C677.665 750.956 677.165 750.289 676.998 750.122C676.998 750.122 677.332 750.456 677.665 750.956Z" fill="white"/>
<path d="M680.5 756.291C679.333 756.624 677.498 756.291 677.665 758.625C678.832 757.958 678.832 756.791 680.5 756.291Z" fill="white"/>
<path d="M677.165 753.456L677.832 754.623C677.832 754.623 678.332 753.623 679 753.456H677.165Z" fill="white"/>
<path d="M676.331 753.456H677.165L676.831 752.956L676.331 753.456Z" fill="white"/>
<path d="M673.996 746.787C672.995 746.954 672.494 746.787 671.994 746.287C672.328 746.954 672.661 747.621 673.328 748.121C673.829 747.788 674.663 747.287 674.162 746.787H673.996Z" fill="white"/>
<path d="M667.158 742.118L666.991 742.285L667.158 742.118Z" fill="white"/>
<path d="M673.162 748.454C673.162 748.454 673.829 748.955 674.496 748.788C673.996 748.788 673.662 748.455 673.329 748.121C673.162 748.121 672.995 748.454 673.329 748.454H673.162Z" fill="white"/>
<path d="M671.661 743.619C671.661 743.619 671.661 744.453 671.661 744.953C671.828 744.286 671.995 743.286 671.661 743.619Z" fill="white"/>
<path d="M675.83 748.455C675.83 748.455 674.996 748.622 674.496 748.788C674.83 748.788 675.163 748.955 675.497 748.788C675.497 748.788 675.497 748.455 675.664 748.288L675.83 748.455Z" fill="white"/>
<path d="M657.651 749.121C657.651 749.121 658.318 748.621 658.651 748.454C658.651 748.454 659.819 748.121 659.652 748.454H660.152C660.152 748.454 660.819 748.954 660.819 749.788C662.654 749.788 665.823 745.286 667.157 742.285C666.657 742.785 666.323 743.119 665.156 743.119L659.819 748.454C659.819 748.454 659.819 747.954 660.152 747.787C660.152 747.787 659.986 747.787 659.819 748.454L664.489 743.953C664.489 745.12 664.822 746.62 663.321 746.954C662.487 746.787 662.321 746.453 662.321 746.12L659.819 748.454C659.819 748.454 659.819 747.954 660.486 747.621C660.319 747.621 660.319 747.621 660.486 747.621L661.153 745.286C659.986 745.953 658.318 745.787 656.983 747.787H658.818C658.818 747.787 657.651 748.621 657.651 749.288V749.121Z" fill="white"/>
<path d="M668.659 743.953H669.159C669.159 743.953 669.159 742.786 669.326 741.285C668.158 741.285 667.491 741.619 667.158 741.952L668.826 743.786H668.492L668.659 743.953Z" fill="white"/>
<path d="M670.827 745.786C669.326 746.787 667.825 746.62 666.991 748.454C668.159 749.288 668.826 748.121 669.993 748.121C667.825 746.787 671.161 747.787 670.66 745.953C671.161 745.953 671.661 746.287 671.995 746.453C671.828 745.953 671.661 745.453 671.661 744.953C671.661 744.953 671.661 745.286 671.661 745.12L671.161 745.62C670.827 744.953 671.328 745.286 671.661 745.12H671.828V744.953L669.326 744.119C669.326 744.119 669.993 744.953 670.994 745.62L670.827 745.786Z" fill="white"/>
<path d="M673.996 760.625C673.996 760.625 673.996 760.292 674.163 760.292C673.829 760.292 673.829 760.292 673.996 760.625Z" fill="white"/>
<path d="M673.996 759.126C673.996 759.126 674.83 758.625 675.163 759.126C675.163 759.793 674.663 759.793 674.163 760.293C674.663 760.293 675.997 760.126 675.664 758.792H675.33C674.997 757.792 675.497 755.124 675.831 755.124C674.997 756.458 674.329 757.625 673.829 759.292L673.996 759.126Z" fill="white"/>
<path d="M671.994 752.623L669.826 751.956L669.493 753.79L670.16 753.123C670.827 754.124 671.327 753.123 671.994 752.623Z" fill="white"/>
<path d="M667.491 741.285L668.992 740.118L667.157 740.952L659.485 748.621C659.485 748.621 659.485 748.121 659.652 748.121C659.652 748.121 659.485 748.288 659.485 748.621L666.824 741.452H667.491V741.285Z" fill="white"/>
<path d="M664.823 738.95L665.823 737.783L664.823 738.117V738.95Z" fill="white"/>
<path d="M516.05 750.122L515.549 750.789C515.549 750.789 515.883 750.456 516.05 750.122Z" fill="white"/>
<path d="M520.22 749.122V748.288C520.22 748.288 520.053 749.122 520.22 749.122Z" fill="white"/>
<path d="M597.775 715.441C596.941 713.941 595.773 711.44 595.94 713.274L596.273 715.108C596.273 715.108 597.441 715.108 597.775 715.441Z" fill="white"/>
<path d="M552.409 730.614L552.743 731.114C552.743 731.114 552.91 729.78 553.076 729.28L552.409 730.614Z" fill="white"/>
<path d="M553.243 738.117L551.909 737.116C551.909 737.116 552.743 737.783 553.243 738.117Z" fill="white"/>
<path d="M494.534 760.292V762.293C495.535 761.793 494.701 761.126 494.534 760.292Z" fill="white"/>
<path d="M638.971 721.944C638.303 720.944 637.803 720.444 637.303 720.11C637.97 721.444 638.303 723.278 638.971 721.944Z" fill="white"/>
<path d="M511.713 731.281C511.713 731.281 511.38 732.115 511.547 732.448C511.88 732.115 511.88 731.615 511.713 731.281Z" fill="white"/>
<path d="M634.468 719.443L635.302 719.777V720.11C635.302 720.11 636.469 719.61 637.303 720.11C636.636 719.11 636.469 718.61 635.469 719.443H634.635H634.468Z" fill="white"/>
<path d="M414.144 793.639C414.144 793.639 414.144 793.639 413.81 793.639C413.81 793.805 413.977 793.805 414.144 793.639Z" fill="white"/>
<path d="M383.288 787.469C383.288 787.469 383.788 787.135 384.122 786.969C383.955 786.969 383.622 786.969 383.288 787.469Z" fill="white"/>
<path d="M654.815 738.617C654.815 738.617 654.315 738.784 653.981 739.117C654.315 738.784 654.482 738.617 654.815 738.617Z" fill="white"/>
<path d="M657.484 732.449C657.484 732.449 657.484 731.782 657.15 731.448C657.15 731.615 657.15 731.948 657.484 732.449Z" fill="white"/>
<path d="M657.984 731.614C657.984 731.614 658.151 731.948 658.318 732.114C658.652 731.948 658.652 731.781 657.984 731.614Z" fill="white"/>
<path d="M656.483 730.614C656.483 730.614 656.984 731.115 657.15 731.448C657.15 731.281 657.15 731.114 657.15 731.114C656.984 731.114 656.817 730.781 656.316 730.614H656.483Z" fill="white"/>
<path d="M455.006 770.129C455.006 770.129 455.006 770.129 454.84 770.129C454.673 771.129 454.84 770.796 455.006 770.129Z" fill="white"/>
<path d="M581.263 736.116C581.93 733.782 582.431 734.115 583.098 734.449L582.097 729.28L581.263 736.116Z" fill="white"/>
<path d="M506.543 754.123L508.378 755.124C507.711 758.292 506.376 757.792 508.378 759.459C506.543 753.957 513.214 757.125 511.38 751.623L512.714 752.456C512.714 752.456 512.547 752.79 512.214 752.79C514.715 754.79 512.214 748.288 514.549 748.455C515.549 748.621 516.217 749.288 515.883 750.122L517.217 748.288C517.217 748.288 517.884 749.288 517.384 749.288L519.886 748.121C519.886 748.121 520.386 745.787 520.72 745.12C521.554 745.787 520.72 745.787 520.887 746.454L521.887 744.787C522.888 745.954 522.054 747.788 521.053 747.788C524.056 752.79 521.887 746.12 525.723 748.455L524.556 749.622C526.39 752.456 527.058 751.122 529.226 752.623C528.559 751.789 524.723 748.621 525.89 746.787C526.39 747.121 527.058 747.121 527.725 745.787C528.225 747.788 529.059 746.954 530.06 746.621L530.727 749.288C531.561 748.288 531.227 746.954 531.561 745.62C532.895 745.62 533.729 747.454 534.396 749.122C536.564 749.122 532.228 746.287 534.396 745.12C536.398 745.62 537.232 744.286 538.899 742.119C540.234 742.619 539.066 743.786 539.733 744.453L540.234 742.119C540.234 742.119 540.567 742.786 540.567 743.119C541.234 742.119 540.067 740.452 541.234 739.284C541.068 737.617 542.402 738.951 543.736 739.785L544.904 739.451C544.904 739.451 544.737 741.619 544.57 738.617L546.405 739.284C546.405 739.284 546.572 740.785 547.072 741.785C548.907 739.118 548.573 739.785 549.907 736.617L551.909 737.951C550.241 736.283 551.242 733.616 552.409 731.281C551.742 730.448 551.242 729.614 550.908 729.281L552.909 727.447C552.909 727.447 553.243 728.78 552.909 729.948L553.243 729.281C554.244 730.114 554.077 731.782 553.743 733.282L552.576 731.782C552.242 733.449 552.242 735.45 552.576 736.95C552.576 736.617 552.909 736.283 553.076 736.117C553.076 736.617 553.076 736.95 553.076 737.284C553.076 737.617 553.243 736.95 553.577 736.117L554.577 738.951V737.784L557.579 739.118C558.413 737.284 559.081 735.116 560.081 733.282H559.581V733.115H560.248C561.082 731.448 562.083 730.114 563.584 729.447C563.083 731.782 563.917 732.949 564.251 735.616C563.083 733.449 562.249 735.95 560.915 736.617H559.748H560.748C560.748 736.617 560.415 736.617 560.081 736.617C560.415 736.617 560.748 736.95 560.748 737.284C558.747 737.617 560.248 737.617 559.748 737.784V738.117H560.915C560.915 738.117 560.915 738.451 560.915 738.617H559.748L561.249 738.284L563.584 735.783C563.917 737.951 564.418 737.284 565.418 738.117C564.251 733.949 567.253 735.116 568.254 733.616C568.587 734.949 568.421 736.45 566.919 736.283C569.088 739.284 568.42 731.115 570.422 733.616C570.088 733.616 569.755 733.616 569.755 734.283C570.422 732.949 572.757 733.616 572.423 734.949H572.09C574.592 735.283 579.595 734.116 579.595 730.614C579.595 731.115 579.595 734.949 579.595 735.616C580.763 731.448 581.93 727.447 583.264 723.278C583.098 726.446 584.932 733.616 583.098 735.45C583.765 735.783 584.432 736.283 585.599 735.116C585.266 734.783 584.432 730.781 584.932 730.448C586.6 733.782 586.1 732.282 587.934 734.949C587.267 734.283 587.934 729.447 588.768 729.614C588.768 730.281 588.935 734.449 588.768 734.949L591.103 730.281C590.436 731.115 591.103 734.283 591.604 735.616C591.437 734.616 593.605 735.616 594.272 735.283L593.272 734.116C595.94 734.783 595.94 727.447 598.775 727.78C598.442 728.78 597.942 733.782 599.109 734.449C599.776 732.115 601.944 723.945 604.613 721.444H604.113C604.113 721.444 604.613 721.111 604.78 721.111L605.28 722.611L607.282 721.278C606.448 722.945 605.28 725.613 604.279 728.113C602.778 730.948 601.444 733.782 600.61 735.283C601.444 736.45 600.777 736.95 602.111 736.784C602.445 738.117 601.277 738.784 600.777 738.784L603.279 739.451H604.279C604.279 739.451 604.446 739.618 604.613 739.618C604.613 736.783 607.115 736.95 607.115 734.616C606.114 735.283 604.78 736.117 604.279 736.784H603.445L602.945 737.117C602.945 736.283 603.279 735.116 603.779 733.949H604.446C604.947 731.615 606.948 729.447 608.449 729.948C608.949 731.115 607.615 734.949 607.615 735.95C607.949 734.949 609.95 734.283 610.117 734.949L608.949 736.45C610.117 737.617 611.451 732.949 612.619 735.783C613.119 735.95 613.786 739.618 614.12 737.951C613.619 734.616 614.787 724.612 615.788 722.445C615.954 722.778 618.456 725.946 618.957 727.613C619.457 730.281 616.622 733.282 617.122 735.616C617.122 734.783 617.956 733.949 618.123 733.782C618.623 734.449 617.456 736.117 618.79 735.95C619.457 733.115 621.292 736.617 619.79 733.616C621.125 733.115 620.958 734.449 622.459 734.616C622.459 732.782 624.961 728.78 626.462 728.113C626.295 728.78 626.462 729.781 626.462 730.281C628.797 730.948 629.798 732.282 631.799 732.949L632.633 733.115C632.633 733.782 633.634 734.949 632.633 735.95C633.133 735.616 633.634 734.783 634.468 734.949C634.968 737.784 632.8 734.783 632.967 737.951C633.634 736.45 635.468 736.45 636.803 735.783C637.47 733.282 634.634 734.449 633.3 735.116C634.301 731.782 637.303 728.78 640.639 728.28C643.14 728.28 640.639 730.781 641.306 730.448C644.975 732.615 647.977 726.613 649.812 730.781C649.812 733.449 647.31 734.449 646.643 736.117C644.642 735.95 645.142 733.449 643.974 732.949C644.308 733.449 644.475 734.116 644.642 734.616C643.808 734.949 642.473 734.949 642.307 734.116C642.307 736.117 647.81 737.951 648.644 741.619C649.478 741.452 650.646 741.452 650.979 740.452L650.145 740.118C650.646 738.117 653.148 739.451 652.814 737.951C654.649 737.951 657.15 737.45 657.984 739.451L656.483 741.619C656.483 741.619 656.483 739.618 655.649 739.951C656.984 739.618 655.483 744.453 658.318 742.619C658.318 741.952 658.485 741.285 658.652 740.452C660.653 740.452 663.322 739.284 663.822 740.785C665.156 738.451 663.322 740.785 664.823 737.951C662.988 741.285 662.321 735.45 660.653 739.284C662.154 735.95 659.986 736.783 660.653 733.282C660.153 733.949 659.986 734.949 659.152 733.616C658.985 733.616 658.652 733.949 658.485 733.949C658.485 734.449 658.485 734.949 658.151 735.45C656.317 736.45 654.649 734.783 653.314 735.116C652.981 734.283 654.148 734.616 654.315 733.616L652.48 733.949C653.481 732.448 652.48 729.781 654.815 730.448L653.314 729.114C653.314 727.447 651.647 726.279 650.479 726.279C649.979 725.446 647.143 726.78 648.811 725.946L644.808 725.279V724.779C642.307 723.612 637.803 725.446 636.302 721.611H635.969H635.135C634.134 721.944 633.133 722.111 631.966 721.278V719.61C630.798 719.944 628.797 717.276 627.963 718.943C627.463 714.442 622.292 716.776 620.291 715.775L619.957 717.943C618.456 717.609 617.122 717.943 615.12 718.61V720.444C613.286 721.778 611.118 718.777 608.449 718.777C608.616 718.11 609.283 718.276 609.783 718.777C608.282 716.442 606.948 717.109 604.78 717.943H605.614C603.946 718.777 602.445 719.777 601.11 718.276C600.443 718.943 599.943 718.61 599.443 718.276H599.609C599.609 718.276 599.443 718.276 599.276 718.276C598.942 717.943 598.609 717.609 598.442 717.276C598.775 717.776 598.942 718.11 599.109 718.276C598.609 718.276 597.775 718.61 597.108 718.943L596.774 716.943C596.774 716.943 596.774 716.943 596.607 716.943C595.94 716.276 595.94 717.943 596.441 719.443C596.107 719.777 595.773 720.11 595.44 720.611C594.939 717.276 593.438 721.778 592.604 718.276C592.104 719.944 588.935 719.61 588.602 723.112C588.602 722.611 588.268 722.445 588.602 722.445C587.768 722.111 586.934 721.778 586.267 722.778L585.766 720.277L584.098 723.778C582.931 722.278 582.43 721.444 583.431 719.277C580.929 722.445 581.263 720.444 579.262 723.778V722.111C579.262 722.111 577.427 724.612 576.76 723.278C574.592 720.277 568.087 723.945 563.083 721.444C564.751 726.113 560.582 719.443 561.082 723.278C560.582 722.111 559.914 721.611 560.415 720.444C559.914 720.777 559.414 720.944 558.914 720.944H560.582V720.777H559.414C558.08 720.777 556.912 720.11 556.078 722.611C555.578 721.444 556.412 720.777 556.078 720.277C556.078 720.611 555.411 721.444 555.078 720.777C554.744 720.11 555.244 719.777 555.578 719.11C553.076 719.777 553.41 723.278 553.91 726.613C552.409 725.279 551.909 725.612 551.408 727.947C550.741 726.946 549.907 725.946 551.408 725.279C550.574 725.279 545.904 724.779 546.405 727.28C545.904 726.613 545.237 727.28 545.07 727.613C544.737 727.613 544.403 727.613 544.237 727.613H545.571C543.903 727.613 542.902 727.613 541.068 728.28L541.902 727.947C541.902 727.947 541.568 727.947 541.401 728.113L541.902 728.447C541.902 731.782 540.567 729.614 539.233 730.281V729.948C535.397 728.614 538.066 731.448 534.229 729.781L534.897 731.615C535.73 735.95 531.394 729.947 530.06 732.115L531.06 733.115C530.393 734.783 526.724 728.28 525.557 727.947C525.223 727.613 525.723 727.28 526.057 726.946C522.721 725.279 526.39 729.614 524.556 730.781C523.722 729.447 524.055 727.113 522.554 727.28C521.554 726.446 519.886 732.782 517.384 730.781C518.051 731.782 518.885 732.615 518.218 733.782C516.884 734.616 513.214 730.948 512.881 734.616C512.547 734.449 512.38 734.116 512.38 733.949C511.547 735.116 509.378 736.283 509.378 738.451C506.043 732.282 504.041 744.12 501.873 737.951L498.704 739.451V738.784C496.369 739.118 496.202 740.952 496.036 742.619C495.368 742.452 495.535 741.785 495.368 741.452C494.868 741.452 494.534 741.452 494.201 741.452C492.033 741.619 491.699 742.452 490.532 745.787L489.531 743.953C489.364 745.287 484.194 742.619 482.192 746.12C482.192 745.954 482.192 745.454 482.192 745.12C479.857 748.788 472.352 742.953 473.853 750.622L472.352 753.29C475.354 752.623 473.186 756.458 474.854 757.125C474.02 757.958 471.184 756.124 472.352 755.291L472.685 755.624C471.685 751.789 468.683 755.624 467.849 753.29C462.512 755.791 456.341 755.958 451.17 757.958L453.005 760.459L451.17 761.126C451.17 761.126 449.502 759.125 450.837 758.792C449.502 757.458 449.335 760.959 449.502 761.626C446.5 761.626 449.002 757.958 448.168 758.125L447.167 758.792H447.501C447.167 760.459 447.501 761.793 446 762.293C444.832 762.293 444.666 760.793 444.332 760.793C444.332 760.626 443.998 760.626 443.665 760.793L441.33 761.46L443.164 763.294C442.664 764.794 440.996 764.127 443.164 766.128C439.829 762.793 434.325 768.462 432.824 767.629C432.157 769.796 430.822 770.463 429.154 770.963C429.822 771.297 431.156 773.631 429.655 773.964C427.82 768.629 425.985 772.964 423.15 769.796C425.318 771.797 419.314 772.297 422.483 774.965C421.149 774.965 421.482 773.131 420.148 772.297C418.147 775.632 413.31 773.798 409.974 776.132C410.308 776.799 411.308 777.633 410.975 778.966L407.639 776.465C407.639 776.465 408.807 780.634 406.472 778.8C406.972 779.3 407.639 779.967 407.139 780.467C398.799 780.467 394.296 789.47 384.456 786.636C385.957 787.47 385.457 787.97 384.789 788.303C385.457 788.303 385.457 789.971 386.124 790.804L381.954 789.637C382.621 792.472 378.952 791.304 379.619 793.805L380.286 792.972C380.286 796.473 384.956 798.474 386.457 802.309C386.457 798.474 392.295 805.477 392.462 799.808C393.295 800.308 392.462 801.142 393.295 801.975C393.295 800.141 393.629 799.474 395.297 799.641V800.141C398.799 798.14 400.968 798.974 405.638 798.14L404.47 796.473C405.471 796.473 405.971 796.807 406.472 797.14C406.305 793.972 403.97 798.14 403.469 794.639C406.305 797.807 409.641 791.971 412.309 795.806C413.643 795.139 410.975 793.805 412.309 793.305L413.143 794.306L412.809 792.638C413.81 792.638 414.811 793.639 415.311 794.639C414.978 794.639 414.811 795.139 414.644 795.306C416.479 796.14 417.646 793.472 418.313 793.639H416.646C419.814 790.804 424.985 790.304 427.487 786.302L426.819 785.636C428.821 782.801 429.488 785.636 431.99 783.468V783.802C432.157 782.634 432.824 781.968 433.658 781.634C433.324 782.968 435.993 782.968 435.492 784.468C437.66 781.467 436.326 782.468 436.827 778.466L437.994 779.633C437.994 777.966 437.827 777.299 439.162 776.299C438.494 778.133 441.163 777.966 440.496 780.3C444.999 781.967 443.665 775.132 447.167 778.966C446.834 774.465 443.498 777.966 443.832 776.799C442.497 775.798 443.832 773.298 444.832 773.298C445.833 772.964 448.835 777.632 451.337 776.465C451.003 776.465 451.337 776.799 451.003 776.966C452.338 777.633 452.171 774.798 454.172 775.965C453.839 773.298 455.673 775.465 454.506 772.297L452.504 773.964C453.505 772.631 453.172 768.462 456.007 769.296C456.007 769.963 455.84 771.13 455.507 771.63C456.507 772.297 456.507 770.463 457.508 771.13C458.675 774.298 455.006 772.964 454.673 775.965C455.84 776.966 456.34 772.631 457.174 776.299C456.34 771.63 459.843 775.798 460.177 771.797L460.844 773.631C460.844 773.631 461.177 772.13 461.678 771.964V774.798C462.345 772.13 465.18 775.465 466.014 773.798C463.345 774.965 464.513 771.797 462.678 770.963C465.013 767.128 466.681 774.965 470.184 772.464C469.85 772.964 467.849 772.13 468.182 770.963C469.016 770.963 470.35 771.297 471.184 772.13C473.519 770.63 470.017 770.463 470.684 768.796C472.519 770.63 471.518 767.295 472.352 766.128L473.186 767.962C476.522 767.962 472.352 763.794 475.521 764.127V767.128L476.522 765.961L477.189 768.296C478.023 766.128 478.69 766.295 480.358 766.295C479.524 765.128 479.19 762.794 480.358 762.127C481.692 762.794 480.524 764.127 482.359 763.127C482.359 764.461 482.526 766.128 481.025 764.794C481.192 765.461 481.025 766.128 481.192 766.795C482.693 767.629 483.693 766.128 484.36 765.795C484.027 765.795 483.693 765.795 483.527 765.795L485.028 762.127C485.028 762.127 485.695 763.294 485.528 764.127C486.028 763.627 486.028 762.627 486.695 762.127C487.029 763.794 487.696 765.294 487.029 766.462L488.864 763.627C488.864 763.627 490.865 764.961 490.698 765.628C492.366 765.961 492.867 761.293 495.202 761.626C495.202 761.293 495.202 760.959 495.535 760.459C497.203 760.126 499.204 761.126 500.539 758.959L496.536 759.626L500.705 758.625V758.292L503.04 760.626C504.375 759.459 500.205 757.792 502.373 755.791C503.874 754.29 504.041 757.958 504.875 758.458C505.209 756.791 505.876 753.29 508.378 754.957C508.044 755.624 507.377 755.457 506.877 755.791L506.543 754.123ZM526.057 746.454C526.057 746.454 525.39 748.455 524.723 747.454C524.556 745.12 525.223 746.12 526.057 746.454ZM556.078 733.782C556.078 733.782 555.411 734.283 554.744 733.616C555.078 733.449 555.578 733.449 556.078 733.782ZM650.813 727.613C650.312 726.446 650.479 726.946 650.813 727.613V727.613ZM651.98 729.781C651.98 729.781 652.48 729.447 652.647 729.114C652.147 729.447 651.813 729.114 651.48 728.614C651.313 729.114 651.313 729.614 651.98 729.781ZM443.832 759.959L444.332 760.293C443.832 761.126 443.832 760.626 443.832 759.959Z" fill="white"/>
<path d="M553.076 737.284C553.076 737.284 552.743 736.617 552.743 736.283C552.743 736.617 552.743 737.117 553.076 737.284Z" fill="white"/>
<path d="M617.288 735.782C617.288 735.782 616.788 735.115 616.788 734.615C616.788 735.115 616.788 735.616 617.288 735.782Z" fill="white"/>
<path d="M663.155 735.116L661.654 734.449C661.654 734.449 662.154 735.283 662.154 735.783C662.488 735.45 662.821 734.783 663.155 735.116Z" fill="white"/>
<path d="M662.154 751.289C662.154 751.289 662.488 751.455 662.821 751.455L663.489 750.789C663.489 750.789 661.987 750.455 662.321 751.289H662.154Z" fill="white"/>
<path d="M659.152 740.618C657.985 741.952 658.985 741.952 659.819 742.285C661.654 740.618 660.486 740.618 659.319 740.618H659.152Z" fill="white"/>
<path d="M659.819 742.285C659.819 742.285 660.32 742.452 660.32 742.785C660.987 742.118 660.32 742.452 659.819 742.285Z" fill="white"/>
<path d="M654.815 730.781C654.815 730.781 656.316 729.281 656.15 729.948C657.818 728.614 652.147 729.948 654.815 730.781Z" fill="white"/>
<path d="M655.649 745.119L656.983 743.452L655.482 744.286L655.649 745.119Z" fill="white"/>
<path d="M651.646 739.284L652.314 740.618C652.314 740.618 652.814 740.285 653.148 740.285C652.48 739.618 652.147 738.617 651.646 739.118V739.284Z" fill="white"/>
<path d="M653.147 740.451C653.147 740.451 653.815 741.118 654.315 740.951C654.148 740.951 653.648 740.451 653.147 740.451Z" fill="white"/>
<path d="M653.815 744.286V743.786L653.314 742.952L653.815 744.286Z" fill="white"/>
<path d="M639.138 730.447H637.47C637.47 730.447 637.47 731.614 637.97 731.614C638.47 731.281 639.138 731.114 639.138 730.447Z" fill="white"/>
<path d="M640.639 737.283C640.639 737.283 640.639 736.283 640.972 735.616L639.638 737.95L640.639 737.283Z" fill="white"/>
<path d="M636.803 736.45C636.803 736.45 634.134 737.784 635.802 738.117C636.135 737.451 637.803 737.451 636.803 736.45Z" fill="white"/>
<path d="M616.121 728.446H616.455L616.955 724.111L616.121 728.446Z" fill="white"/>
<path d="M595.94 737.284C597.608 738.284 596.441 734.616 597.942 735.95C598.442 734.95 596.774 734.95 597.108 733.949C596.107 734.95 595.44 734.449 595.94 737.284Z" fill="white"/>
<path d="M597.107 733.949C597.107 733.949 597.441 733.616 597.608 733.282C597.274 733.616 597.107 733.782 597.107 733.949Z" fill="white"/>
<path d="M378.451 786.969L377.117 786.636L378.285 787.636L378.451 786.969Z" fill="white"/>
<path d="M377.784 790.804L376.45 788.47L376.784 790.971C376.784 790.971 377.284 790.304 377.784 790.971V790.804Z" fill="white"/>
<path d="M530.56 750.956V750.289C530.56 750.289 529.893 749.622 529.393 749.788L530.56 750.956Z" fill="white"/>
<path d="M515.55 753.123H515.883L514.549 750.789L515.55 753.123Z" fill="white"/>
<path d="M504.875 760.292C504.875 760.292 505.709 759.459 506.209 759.459C505.375 760.292 503.541 757.458 504.875 760.292Z" fill="white"/>
<defs>
<linearGradient id="paint0_linear_100_2" x1="450.503" y1="-54.8544" x2="464.004" y2="840.823" gradientUnits="userSpaceOnUse">
<stop offset="0.23" stop-color="#07338B"/>
<stop offset="0.81" stop-color="#93BEDB"/>
</linearGradient>
</defs>
</svg>
