<?xml version="1.0" encoding="UTF-8"?><svg id="Layer_1" xmlns="http://www.w3.org/2000/svg" width="56" height="52" xmlns:xlink="http://www.w3.org/1999/xlink" viewBox="0 0 56 52"><defs><linearGradient id="linear-gradient" x1="27.31" y1="-2.42" x2="28.12" y2="51.3" gradientUnits="userSpaceOnUse"><stop offset=".23" stop-color="#07338b"/><stop offset=".81" stop-color="#93bedb"/></linearGradient></defs><path d="m54.58,24.85c0,4-.88,7.8-2.45,11.21h0c-.03.08-.06.14-.1.21-.12.26-.24.52-.38.78-.1.2-.21.4-.31.6-.06.11-.12.22-.18.32-.12.21-.24.42-.36.63-.1.16-.19.31-.3.47-.15.26-.32.51-.49.77-.03.03-.05.07-.08.11-.17.25-.34.5-.53.74-.13.19-.28.39-.43.57-.34.46-.71.9-1.09,1.33-.13.15-.27.3-.4.45-.25.27-.5.53-.75.78-.1.09-.2.19-.3.29-.09.09-.19.19-.29.28-.12.11-.24.23-.36.34-.12.11-.24.21-.37.32-.19.17-.39.34-.59.5-.14.12-.28.24-.43.34-.23.19-.46.37-.69.54-.19.15-.39.29-.59.42-.27.19-.54.37-.81.54-.06.05-.11.08-.17.11-.04.04-.08.06-.12.07-.22.16-.44.29-.67.41-.49.3-.98.57-1.49.82-.23.13-.47.25-.72.35-2.67,1.27-5.59,2.1-8.67,2.41-.9.09-1.81.14-2.74.14s-1.77-.05-2.63-.14h-.03c-6.58-.71-12.26-3.96-16.47-8.29-.01-.02-.02-.04-.04-.05-3.17-3.29-5.48-7.19-6.67-11.06-.59-1.89-.84-3.59-.94-4.89-.1-1.15-.08-2-.07-2.42.02-.42.05-.85.1-1.28h0s0-.06.01-.09h0c.01-.07.01-.13.02-.19h0c.05-.46.12-.92.2-1.39.07-.09.14-.18.22-.26,0-.02.02-.03.04-.05.04-.06.09-.11.14-.16.05-.06.09-.11.13-.13.07-.09.14-.16.21-.22.22-.21.45-.38.65-.52.08-.06.15-.11.22-.15.07-.05.14-.09.2-.13.07-.05.15-.09.23-.13,0-.01.03-.02.05-.03.1-.05.2-.1.3-.14.02-.01.04-.02.06-.03.54-.23,1.03-.35,1.4-.4.12-.02.24-.03.33-.04.79-.11,1.42-.02,1.77.04-.9-.5-1.51-1.5-1.75-2.37-.3-1.11-.19-2.76.98-3.65.66-.51,1.41-.57,1.78-.57-.03-.39-.03-1.12.37-1.87,1-1.87,3.48-1.83,3.61-1.82.45.01,1.64.05,2.44.97.32.38.48.79.57,1.1.01.07.03.14.04.2.25-.17.68-.41,1.25-.53.83-.17,1.51.02,1.83.12.05-.36.22-1.1.81-1.7,1-1.01,2.44-.89,2.84-.85,1.47.12,1.66.89,3.78,1.86,1.13.53,2.29,1.06,3.45,1-.38-.12-1.19-.42-1.91-1.2-.03-.03-.06-.06-.1-.11-.07-.08-.13-.16-.19-.24-.09-.11-.17-.23-.24-.35-.07-.11-.13-.22-.19-.32-.12-.25-.23-.53-.31-.85-.04-.15-.06-.26-.07-.32-.28-1.69.61-2.98.86-3.33.33-.46,1.01-1.42,2.27-1.66.88-.17,1.62.1,1.95.24.22-.38.68-1.09,1.54-1.66.34-.22,1.19-.77,2.39-.77.34,0,1.92,0,2.8,1.18.3.4.43.81.49,1.09.45-.11,1.07-.24,1.83-.28.81-.05,2.14-.12,3.49.45,1.03.77,2.01,1.61,2.92,2.53.24.41.41.88.49,1.4.05.37.21,1.42-.34,2.35.38-.13,1.26-.35,2.29-.08.21.06.54.15.88.34.52.77,1,1.57,1.44,2.39,2,3.76,3.14,8.05,3.14,12.61Z" fill="url(#linear-gradient)"/><path d="m18.88,20.47c-1.13-.66-.76-2.25.48-2.59,1.25-.34,2.35.7,2.65,1.87.27,2.98-3.21,5.64-5.85,3.72-2.4-1.56-3.7-4.97-.8-6.74,0,0,0,.49,0,.49-1.07-.66-1.66-1.93-1.66-3.15-.06-1.24.59-2.46,1.57-3.2,0,0-.05.4-.05.4-1.86-2.72-7.01-2.07-6.79,1.67,0,0,.02.29.02.29h-.29c-3.32-.1-3.4,4.89-.81,6.05,1.99.8,3.63-1.2,2.36-2.93-.29-.4-1.03-.43-1.71-.02.33-.84,1.47-1.27,2.28-.7,2.12,1.74.68,5.01-2.04,4.65-2.93-.41-4.3-4.6-2.3-6.71.57-.59,1.41-.88,2.21-.88l-.27.29c-.28-4.5,5.82-5.22,7.94-1.83-2.17,1.35-2.1,4.7.22,5.84,0,0-.4.24-.4.24-1.01.6-1.65,1.8-1.32,2.93.6,2.05,3.35,4.17,5.34,2.6.92-.68,1.48-1.73,1.47-2.92-.04-.36-.82-1.54-1.65-1.36-.99.13-1.34,1.27-.62,2.01h0Z" fill="#fff"/><path d="m.35,24.03c-.18-.32.16-.62.36-.85,3.81-4.12,8.74-.91,12.51,1.44,2.54,1.75,5.49,3.01,8.61,2.95,5.23.23,8.71-3.14,8.32-8.41,0,0,.54.14.54.14-1.77,2.74-6.19,2.87-6.92-.77-.84-3.16,2.28-6.38,5.38-4.73,0,0-.39.15-.39.15.74-2,3.22-2.55,4.95-1.48,0,0-.42.18-.42.18,1.22-4.61,8.69-2.76,8.87,1.57.18,2.03-.78,4.32-2.81,5.09-.98.37-2.55.26-2.84-.98-.22-1.12.38-2.14,1.18-2.65-1.89,1.33-1.23,3.12-1.94,4.97-1.94,5.89-8.49,8.49-14.26,7.97-3.84-.26-7.38-2.01-10.5-4.13-1.61-.89-3.32-1.89-5.15-2.18-1.99-.3-3.73,1.05-5.49,1.73H.35Zm.42-.41c1.34-1.25,3.29-1.85,5.12-1.63,1.91.35,3.56,1.38,5.21,2.33,3.11,2.1,6.62,3.88,10.42,4.02,3.65.15,7.55-1.15,10.21-3.6,1.99-1.98,2.99-4.54,3.6-7.24.41-1.02,1.41-1.75,2.38-1.83-.86.51-1.06,1.74-.68,2.47.34.72,1.29.76,2.11.48,1.6-.63,2.5-2.67,2.36-4.35-.09-3.91-7.02-5.53-7.71-1.14-1.58-1.01-4-.66-4.59,1.3,0,0-.28-.13-.28-.13-2.49-1.24-4.81,1.62-4.21,4.01.74,3.52,4.72,2.52,6-.1.42,3.45-.74,7.5-4.15,9.01-3.76,1.54-8.08.94-11.59-.94-4.04-2.38-9.9-7.37-13.99-2.53,0,0-.09.11-.09.11,0,0-.02.03-.02.03.09-.08,0-.27-.09-.29h0Z" fill="#fff"/><path d="m30.53,8.86c-.45.24-1.15.08-1.45-.46-.68-1.37.92-2.32,2.11-1.78,1.16.42,1.5,1.9,1.14,2.97-.4,1.07-1.37,1.79-2.44,2.1-2.64.51-4.98-1.34-7.1-2.55-1.69-.6-3.95.07-4.27,2.03,0,0-.05.31-.05.31l-.27-.11c-.94-.39-2.06-.35-3.01.18.85-.72,2.07-.94,3.15-.64,0,0-.31.2-.31.2.15-2.49,2.89-3.51,5.02-2.58,2.31,1.24,5.31,3.81,7.85,1.88,1.55-1.04.97-4.01-1.12-3.18-.8.54-.27,1.76.74,1.64h0Z" fill="#fff"/><path d="m28.79,11.25c-5.28-1.32-2.55-10.21,2.54-8.19,0,0-.32.11-.32.11,1.4-2.94,6.78-3.83,7.73-.09,0,0-.35-.22-.35-.22,1.76-.44,3.91-.54,5.49.11,2.31.91,4.24,3.27,3.64,5.84-.4,1.72-2.35,2.84-4,2.16-2.93-1.03-.97-5.31,1.61-3.66.38.35.37.87.22,1.22-.13-1.66-2.5-.91-2.5.39-.22,1.41,1.83,2.1,2.87,1.39.6-.36.99-.99,1.1-1.66.38-2.18-1.24-4.24-3.18-5.03-1.68-.7-3.66-.58-5.41-.14-.65-3.6-5.63-2.69-6.89.14-2.07-1.16-4.16.49-4.81,2.48-.76,2.03.43,4.13,2.27,5.14h0Z" fill="#fff"/><path d="m41.72,14.77c2.08-.88,5.49-.33,5.58,2.41-.09.76-.7,1.61-1.57,1.52-.89-.1-1.35-1.36-.55-1.84-.8,1.05-1.55,2.26-.74,3.37.81.95,2.32,1.14,3.47.59,3.01-1.18,3.91-5.4.93-7.18,0,0,.89.05.89.05,1.66.12,1.69-1.87.94-2.88-.78-1.12-2.51-1.38-3.76-.94,0,0-.19-.55-.19-.55.77-.25,1.59-.28,2.38-.09,2.68.34,3.97,4.95.61,5.04,0,0,.2-.51.2-.51,1.24,1.02,1.63,2.79,1.25,4.31-.35,1.52-1.45,2.89-2.9,3.54-2.22,1.29-5.97-.36-4.96-3.31.23-.8,1.1-1.54,1.86-1.42-.33.77.4,1.51,1.08,1.14.31-.17.62-.5.68-.88.04-1.24-1.34-2.25-2.5-2.3-.84-.07-1.73.14-2.49.47l-.23-.53h0Z" fill="#fff"/><path d="m21.58,19.83c.24.07.72.26,1.08.72.53.67.45,1.47.41,1.87-.14,1.32-1,2.19-1.34,2.52-1.27,1.24-2.85,1.44-3.65,1.54-.95.12-1.74.05-2.27-.04" fill="none" stroke="#fff" stroke-miterlimit="10" stroke-width=".58"/><path d="m7.91,19.87c-.45-.18-1.24-.42-2.24-.38-.26,0-1.07.06-2.02.46-.28.12-1.48.66-2.45,1.95-.39.52-.63,1.01-.78,1.36" fill="none" stroke="#fff" stroke-miterlimit="10" stroke-width=".25"/><path d="m39.84,31.21c.04.19.38.3.64.29.47-.03.78-.48.96-.75,1.24-1.84,1.13-2.53,1.94-3.3.91-.86,2-.88,1.95-1.27-.03-.26-.51-.43-.86-.46-.18-.02-.6-.02-1.28.5-1.13.85-1.62,2.06-1.75,2.39-.31.82-.17,1.02-.54,1.5-.48.64-1.13.82-1.07,1.11Z" fill="#fff"/><path d="m41.49,31.6c.11.29.5.52.82.46.25-.04.41-.25.47-.33.37-.49.94-1.02,2.07-2.1.77-.73,1.18-1.12,1.85-1.25.61-.12,1.16.02,1.21-.14.04-.13-.27-.38-.57-.5-.85-.34-1.82.24-2.32.54-.4.24-1.04.69-1.61,1.5.19-.49.52-1.08,1.11-1.53,1.01-.77,2.19-.66,2.21-1,.01-.22-.46-.48-.89-.5-.39-.02-.75.16-1.39.75-.84.77-.96,1.15-2,2.46-.74.94-1.1,1.28-.96,1.64Z" fill="#fff"/><path d="m42.84,32.47c.05.22.26.42.47.45.38.06.63-.48,1.28-1.07.54-.49,1.05-.74,1.36-.89.79-.39,1.53-.76,2.35-.57.55.12.89.44,1.25.25.18-.1.33-.31.29-.46-.04-.12-.21-.24-1-.29-.52-.03-1.25-.02-2.14.14.38-.43.72-.55.96-.57.4-.03.69.18,1.11,0,.03-.01.33-.15.32-.29-.02-.19-.65-.3-.93-.32-.79-.06-1.42.31-2.57,1.11-2.73,1.89-2.81,2.29-2.75,2.51Z" fill="#fff"/><path d="m43.77,33.49c.05.17.26.24.29.25.61.21,1.09-.86,2.35-1.5.34-.17,1.5-.75,2.71-.43.62.17,1.09.52,1.32.32.16-.14.14-.49,0-.71-.29-.47-1.13-.43-1.86-.39-.4.02-.72.07-.89.11-.42.08-1.87.39-3.25,1.46-.62.48-.73.73-.68.89Z" fill="#fff"/><path d="m44.3,34.2c0,.19.32.34.36.36.49.22.98-.12,2.14-.61.67-.28,1-.42,1.32-.5.53-.13,1.43-.34,2.35,0,.52.19.82.48.96.36.13-.11.05-.5-.14-.75-.12-.17-.37-.39-1.36-.5-.76-.09-1.67-.19-2.75.21-.45.17-.3.19-1.04.52-1.14.51-1.84.62-1.85.9Z" fill="#fff"/><path d="m45.05,35.77c-.17-.15-.24-.42-.18-.61.13-.39.8-.42,2.42-.75,1.01-.2.8-.2,1.32-.29,1.31-.22,2.32-.37,3,.18.28.22.51.58.43.71-.09.14-.5-.02-.89-.11-.68-.16-1.2-.1-2.25,0-2.23.22-3.3,1.36-3.85.86Z" fill="#fff"/><path d="m52.13,36.23s-.05.04-.1.04c-.18,0-.55-.17-1.07-.29-.52-.12-.92-.12-1.42-.11-.54,0-1.33.06-2.27.33,1.46-.05,2.52.1,3.19.23.44.08.97.22,1.19.62-.1.2-.21.4-.31.6-.05-.05-.12-.09-.19-.14,0,0-.17-.11-.97-.44-.84-.35-2.86-.01-3.21.05.84.03,2.44.15,3.74.65.15.06.31.12.45.2-.12.21-.24.42-.36.63-.06-.05-.12-.1-.18-.14-.48-.33-1.23-.36-2.7-.44-1.02-.06-1.53-.09-1.79-.05-.48.06-.99.2-1.12-.01-.05-.08-.02-.16.03-.36.15-.55.03-.76.11-1.01.13-.37.62-.52,1.68-.78,1.46-.36,2.21-.54,2.79-.58,1.6-.12,2.03.22,2.2.39.14.13.27.31.31.44h0c.02.08.03.13,0,.17Z" fill="#fff"/><path d="m50.01,39.84c-.17-.09-.31-.16-.42-.2.12.11.24.21.34.31-.17.25-.34.5-.53.74-.85-.67-1.8-.92-2.38-1.08-1.34-.36-2.27-.2-2.42-.67-.07-.19,0-.48.16-.59.2-.13.49,0,.64.06.07.02.01,0,1.93.16,1.52.14,2.28.21,2.54.28.2.06.42.13.63.22-.15.26-.32.51-.49.77Z" fill="#fff"/><path d="m48.97,41.26c-.34.46-.71.9-1.09,1.33-.08-.11-.17-.22-.27-.33-.42-.48-1.02-1.16-2.01-1.56-.8-.33-1.6-.36-1.65-.7-.02-.18.18-.35.23-.39.17-.14.63-.37,3.76,1.09.2.09.58.27,1.03.56Z" fill="#fff"/><path d="m47.48,43.04c-.25.27-.5.53-.75.78-.13-.24-.22-.41-.29-.53-.93-1.53-3.01-1.41-3.02-2.26,0-.16.08-.41.25-.5.18-.1.4.01.73.17.79.38,1.18.57,1.2.58.21.14.82.55,1.76,1.62.04.05.09.1.12.14Z" fill="#fff"/><path d="m46.53,44.24c-.13.05-.25.1-.39.15-.12.11-.24.23-.36.34-.04-.05-.09-.11-.15-.17-.29-.3-.79-.66-1.59-1.24-1.14-.83-1.64-1.09-1.59-1.45.03-.24.29-.46.5-.45.24.02.33.33.58.64.39.48.86.59,1.23.76.58.26,1.19.74,1.67,1.29.03.04.06.09.1.13Z" fill="#fff"/><path d="m44.39,45.89c-.23.19-.46.37-.69.54-.09-.41-.25-.73-.52-1.19-.07-.12-.15-.25-.23-.39-.84-1.38-1.63-1.91-1.42-2.34.08-.18.32-.31.5-.28.21.04.33.3.39.42.31.64.44.41,1.09,1.42.21.34.38.66.53.96.14.3.25.59.35.86Z" fill="#fff"/><path d="m45.41,45.05c-.19.17-.39.34-.59.5-.08-.18-.18-.39-.31-.65-.03-.07-.07-.15-.11-.24-.2-.42-.31-.62-.25-.67.1-.09.66.44.72.5.04.03.12.11.24.23.08.09.19.2.3.33Z" fill="#fff"/><path d="m43.11,46.85c-.27.19-.54.37-.81.54-.06.05-.11.08-.17.11,0-.1,0-.2-.02-.3-.09-.63-.36-.78-.88-1.61-.13-.2-.27-.44-.43-.74-.75-1.42-.58-1.75-.5-1.87.14-.19.44-.31.61-.22.18.1.15.39.2.67.1.65.57,1.01.89,1.37.16.17.31.37.44.59h.01c.28.45.52.96.66,1.46Z" fill="#fff"/><path d="m39.88,48.57c.22-1.4.3-1.58.31-1.87.01-.35-.1-.42-.35-.92,0-.01-.01-.03-.02-.04-.07-.16-.16-.35-.27-.61-.01-.02-.02-.05-.03-.08-.33-.83-.74-1.84-.42-2.09.15-.13.45-.07.64.08.43.34,0,.99.31,1.9.13.39.3.54.49.73.12.1.24.22.36.41h.01c.06.12.13.25.2.42.01.03.09.22.15.52.06.25.1.58.08.96-.49.3-.98.57-1.49.82,0-.08.02-.15.03-.23Z" fill="#fff"/><path d="m37.73,43.01c.2-.13.54-.11.67.06.13.17.01.45-.03.56-.3.79.06,1.25-.06,2.87-.09,1.19-.16,2.22-.78,2.51-.35.16-.86.08-1.06-.2-.2-.27-.06-.66.06-1,.25-.72.54-.74.78-1.28.13-.3.15-.97.17-2.29.01-.7,0-1.06.25-1.23Z" fill="#fff"/><path d="m38.68,44.6c-.13.04.21.79.11,1.93-.12,1.36-.76,1.98-.42,2.4.21.26.68.31.92.14.18-.13.19-.35.17-1.56-.02-1.16-.03-1.26-.06-1.37-.16-.83-.59-1.58-.73-1.54Z" fill="#fff"/><path d="m36.84,43.37c.12-.34.18-.51.25-.5.08,0,.12.19.14.25.16.61-.15,1.36-.31,1.87-.26.85-.01.78-.28,1.81-.22.85-.41,1.59-.98,1.81-.42.17-.99.02-1.06-.22-.07-.22.32-.4.78-1,.45-.58.65-1.14.75-1.42.16-.44.12-.53.45-1.84,0,0,.02-.08.25-.75Z" fill="#fff"/><path d="m36.17,42.76c.18-.08.42-.06.5.06.12.16-.09.48-.22.73-.45.83-.13.98-.56,2.12-.14.38-.43.84-1,1.76-.28.44-.44.67-.7.7-.33.04-.76-.27-.78-.59-.03-.45.76-.58,1.46-1.6.19-.27.29-.49.38-.69.64-1.37.4-2.27.92-2.48Z" fill="#fff"/><path d="m35.22,42.14c.21-.03.45.15.5.33.07.23-.15.42-.33.75-.27.47-.17.68-.33,1.23-.13.45-.47.9-1.14,1.79-.75.99-.93,1.06-1.09,1.06-.43,0-.89-.53-.84-.95.06-.44.64-.42,1.37-1.14.45-.45.7-.91.95-1.4.53-1.01.56-1.63.92-1.67Z" fill="#fff"/><path d="m34.52,41.53c.16.02.29.22.31.39.02.26-.21.43-.42.67-.41.47-.26.67-.61,1.28-.29.5-.39.38-1.42,1.45-.57.6-.72.82-.95.78-.3-.05-.56-.54-.47-.92.09-.4.49-.43,1.17-.95.66-.5,1.08-1.07,1.37-1.45.57-.77.75-1.3,1.03-1.26Z" fill="#fff"/><path d="m29.42,43.15c-.07.31.06.71.31.81.15.06.32-.02.64-.2.5-.26.89-.48,1.14-.61-.24.42-.51.66-.73.81-.28.19-.54.28-.56.47-.01.14.1.28.22.33.08.04.29.1.81-.28.44-.32.59-.59.95-1,.15-.18.5-.51,1.2-1.17.64-.61.87-.8.87-1.12,0-.25-.15-.54-.36-.61-.26-.08-.53.16-.78.36-.27.21-.95.56-2.32,1.26-.96.49-1.31.58-1.4.95Z" fill="#fff"/><path d="m28.8,42c-.04.22.05.48.2.53.16.05.33-.18.59-.39.29-.24.4-.22,1.34-.61,1.11-.46.89-.46,1.48-.67.72-.25,1.11-.27,1.23-.59.07-.19.03-.43-.11-.53-.17-.12-.46.03-.84.22-.47.24-.96.44-1.42.7-1.53.86-2.37.8-2.46,1.34Z" fill="#fff"/><path d="m33.38,38.89c.06.1-.06.27-.11.33-.31.42-.8.44-1.38.6-.82.22-1.44.6-1.97.93-.75.46-.98.78-1.19.67-.25-.13-.28-.77,0-1.04.16-.15.35-.13.74-.19.27-.04.66-.12,1.12-.3-.17-.09-.41-.19-.71-.22-.54-.07-.8.13-1-.04-.24-.19-.24-.71-.04-.86.19-.13.44.13.97.3.56.18,1.02.11,1.9,0,.99-.13,1.57-.37,1.67-.19Z" fill="#fff"/><path d="m28.95,37.55c-.14.12-.19.37-.11.56.22.55,1.47.53,1.94.52,1.01-.02,1.1-.29,1.82-.15.3.06.59.16.78,0,.17-.14.23-.44.11-.6-.13-.18-.44-.14-.71-.11-1.18.12-1.82.18-2.42.07-.77-.14-1.16-.51-1.41-.3Z" fill="#fff"/><path d="m29.66,36.21c-.22.11-.41.35-.37.52.04.2.38.28.93.41.28.07.54.13.93.15.78.05.85-.14,1.38-.04.49.09.61.28.89.19.3-.1.55-.43.48-.63-.02-.06-.11-.2-.97-.26-.98-.06-1.02.11-1.6.04-.89-.12-1.21-.59-1.67-.37Z" fill="#fff"/><path d="m30.22,35.21c-.3.33-.3.38-.3.41.02.12.2.15,1,.33.56.13.78.18,1.12.15.1,0,.51-.04.52-.15.01-.13-.56-.12-1.12-.56-.42-.33-.5-.66-.74-.63-.09.01-.22.16-.48.45Z" fill="#fff"/><path d="m31,34.13c-.03-.29.13-.6.3-.63.19-.03.31.28.71.71.45.49.94.78,1.19.93.66.4,1.05.43,1.08.71.02.18-.12.4-.3.45-.26.07-.52-.27-.86-.6-1.09-1.05-2.04-.94-2.12-1.56Z" fill="#fff"/><path d="m32.08,33.05c.02-.31.3-.62.48-.6.16.02.16.29.33.63.24.48.53.5,1.56,1.38.54.45.68.63.63.78-.04.15-.27.25-.45.26-.44.04-.66-.39-1.53-1.23-.74-.71-1.07-.87-1.04-1.23Z" fill="#fff"/><path d="m33.31,32.01c.11-.28.58-.44.86-.3.19.09.19.27.37.74.21.56.42,1.12.86,1.6.25.28.5.44.45.6-.04.12-.22.19-.37.19-.31,0-.45-.29-1.08-1.04-.37-.44-.46-.51-.67-.82-.34-.49-.5-.74-.41-.97Z" fill="#fff"/><path d="m34.8,31.26c.18-.3.71-.4.89-.22.15.14-.05.37-.04.86.01.7.44,1.31.6,1.53.29.41.55.58.48.78-.05.15-.26.28-.45.26-.32-.03-.44-.44-1-1.67-.47-1.03-.63-1.28-.48-1.53Z" fill="#fff"/><path d="m38.44,38.04c-.05-.16-.3-.24-.48-.22-.14.01-.37.09-.41.26-.04.2.18.43.41.45.28.02.54-.29.48-.48Z" fill="#fff"/><path d="m38.7,38.24c-.2.09-.34.38-.24.54.1.18.42.13.56.09.02,0,.36-.1.37-.28.01-.19-.39-.49-.69-.35Z" fill="#fff"/><path d="m38.17,37.62c.07.13.29.19.38.13.06-.05.02-.13.03-.41.01-.31.07-.37,0-.47-.1-.16-.39-.21-.45-.12-.05.06.06.15.08.37.02.27-.12.37-.04.51Z" fill="#fff"/><path d="m37.42,37.03c.04-.11.16-.22.28-.2.09,0,.14.09.26.24.1.13.14.19.13.26-.02.11-.16.18-.28.19-.23,0-.46-.27-.39-.48Z" fill="#fff"/><path d="m36.92,37.4c.02-.06.08-.22.17-.22.09,0,.1.16.32.33.1.08.17.1.17.15,0,.08-.14.17-.26.19-.14.02-.34-.02-.41-.17-.05-.1,0-.21.02-.28Z" fill="#fff"/><path d="m38.83,37.78c-.05.06-.04.17.02.24.12.13.35-.02.52.13.09.08.08.16.13.17.11.01.31-.35.2-.48-.05-.07-.14-.02-.5-.06-.23-.02-.32-.06-.37,0Z" fill="#fff"/><path d="m38.95,37.03c-.13.03-.23.23-.17.37.03.08.11.12.17.15.04.02.19.09.35.02.04-.02.15-.06.17-.15.02-.11-.15-.21-.28-.3-.12-.07-.17-.11-.24-.09Z" fill="#fff"/><path d="m37.25,38.35c.07-.07.07-.23,0-.3-.09-.09-.23.03-.47-.04-.16-.05-.21-.14-.28-.11-.09.04-.13.24-.06.35.05.07.16.08.39.11.24.03.35.04.41-.02Z" fill="#fff"/><path d="m37.7,38.86c.02.15-.11.27-.26.41-.16.15-.28.26-.43.22-.16-.04-.29-.25-.24-.37.03-.09.14-.07.32-.19.23-.15.24-.32.37-.32.11,0,.22.12.24.24Z" fill="#fff"/><path d="m36.51,38.65c-.05.1.02.27.12.31.03.01.08.02.45-.2.17-.1.18-.11.18-.13-.01-.1-.64-.18-.74.02Z" fill="#fff"/><path d="m37.83,39.12c-.15.05-.1.25-.3.43-.14.12-.24.1-.26.19-.04.14.17.38.32.35.12-.02.1-.19.33-.5.14-.19.25-.25.22-.33-.03-.1-.2-.17-.32-.13Z" fill="#fff"/><path d="m38.39,39.3c-.11.05-.09.18-.22.5-.12.29-.2.33-.17.43.06.19.45.29.58.17.1-.1-.06-.25.02-.56.06-.23.18-.3.13-.41-.05-.11-.22-.18-.33-.13Z" fill="#fff"/><path d="m38.95,39.3c-.05.12.05.17.04.39-.01.24-.14.29-.09.45.03.12.14.22.26.24.19.04.39-.1.45-.26.05-.14-.04-.19-.09-.5-.05-.31.01-.42-.07-.48-.12-.09-.41,0-.48.17Z" fill="#fff"/><path d="m39.67,38.89c-.04.15.03.26.09.43.14.4,0,.62.11.67.12.06.4-.13.45-.37.02-.12-.05-.26-.2-.54-.2-.37-.27-.37-.3-.37-.08,0-.13.11-.15.19Z" fill="#fff"/><path d="m40.01,38.22c-.06.07-.04.19-.04.2.03.16.17.19.33.37.21.23.17.39.28.41.15.03.39-.23.37-.48-.02-.24-.28-.36-.47-.45-.08-.04-.37-.17-.48-.06Z" fill="#fff"/><path d="m40.14,37.52c-.04.11-.03.25.04.35.07.11.17.1.43.22.32.15.38.26.47.22.12-.06.16-.38.02-.52-.15-.15-.43,0-.47-.09-.03-.07.13-.24.3-.24.08,0,.11.04.17.02.13-.05.2-.35.09-.45-.08-.08-.25,0-.52.11-.29.13-.46.2-.52.37Z" fill="#fff"/><path d="m40.56,36.29c-.16-.01-.16.14-.61.52-.11.09-.19.15-.2.26-.01.12.07.27.17.28.12.01.14-.23.37-.39.28-.2.57-.06.63-.2.06-.14-.14-.45-.35-.47Z" fill="#fff"/><path d="m36.4,30.95c.14-.15.41-.21.54-.11.14.1.06.33.06.63,0,.62.33.76.67,1.95.09.32.13.52.02.67-.12.15-.39.23-.56.13-.22-.13-.12-.45-.3-1.12-.11-.4-.16-.35-.32-.86-.19-.61-.33-1.06-.11-1.3Z" fill="#fff"/><path d="m37.79,30.89c-.16.09-.23.28-.24.43-.02.24.14.3.26.74.05.19.05.3.11.32.1.02.24-.27.26-.3.13-.27.06-.38.19-.56.13-.18.29-.16.3-.26.02-.19-.54-.57-.87-.37Z" fill="#fff"/><path d="m39.02,31.26c-.24.08-.2.39-.54,1.1-.2.41-.26.39-.37.71-.11.3-.29.8-.06,1.1.13.17.38.27.5.19.11-.07.04-.26.06-.65,0-.17.02-.52.17-.87.08-.19.21-.37.48-.74.25-.34.35-.43.32-.56-.05-.18-.34-.33-.56-.26Z" fill="#fff"/><path d="m39.99,31.73c-.15.08-.14.23-.26.5-.18.43-.32.36-.48.73-.17.39,0,.45-.19,1-.09.28-.19.43-.11.58.07.12.24.21.37.17.18-.06.16-.36.32-.97.15-.57.22-.85.43-1.06.26-.27.55-.3.58-.54.02-.18-.12-.32-.13-.33-.14-.14-.37-.16-.52-.07Z" fill="#fff"/><path d="m41.05,32.16c.23-.07.43-.01.47,0,.24.07.51.29.48.47-.03.18-.35.15-.67.45-.1.09-.18.26-.35.6-.31.61-.35.8-.6,1.04-.1.1-.33.33-.5.26-.11-.04-.17-.18-.19-.3-.04-.31.27-.42.47-.84.2-.42-.02-.51.19-.97.05-.12.26-.58.71-.71Z" fill="#fff"/><path d="m40.23,35.79c.11,0,.22.12.22.22,0,.13-.17.17-.41.41-.27.27-.29.47-.45.48-.11,0-.25-.09-.3-.2-.11-.25.24-.42.24-.89,0-.21-.06-.34.02-.41.08-.06.25-.03.3.06.03.06,0,.1-.04.24-.03.13-.04.35.02.37.08.03.2-.29.39-.28Z" fill="#fff"/><path d="m39,35.1c.1-.04.25,0,.3.09.04.08,0,.17-.02.22-.19.49.06.84-.17,1.04-.12.11-.33.14-.43.06-.06-.05-.07-.14.06-.73.12-.55.16-.65.26-.69Z" fill="#fff"/><path d="m37.96,34.95c.12-.15.47-.13.58.02.07.1-.01.19-.06.47-.08.5.11.72-.06.89-.1.1-.28.14-.37.07-.11-.08,0-.28-.02-.69-.02-.47-.19-.63-.07-.76Z" fill="#fff"/><path d="m37.29,35c.07-.13.27-.19.35-.13.06.04.04.14.06.33,0,.11.01.06.13.67.07.34.08.42.02.5-.07.09-.21.14-.28.09-.08-.06,0-.21.02-.43.03-.54-.43-.8-.3-1.04Z" fill="#fff"/><path d="m36.51,35.28c.03-.16.22-.29.33-.26.05.01.09.05.22.33.11.23.17.39.17.39.23.63.23.72.19.8-.04.08-.14.17-.2.15-.11-.03-.06-.28-.17-.58-.18-.49-.59-.58-.54-.84Z" fill="#fff"/><path d="m36.21,35.47c-.08,0-.19.16-.19.32,0,.06.03.16.37.47.27.24.4.35.47.32.08-.05.06-.32-.07-.5-.11-.16-.22-.13-.37-.32-.13-.16-.13-.28-.2-.28Z" fill="#fff"/><path d="m35.58,35.9c-.1.03-.17.15-.17.26,0,.17.21.22.54.48.39.32.45.56.65.54.13-.01.26-.14.26-.24,0-.17-.37-.15-.63-.48-.11-.15-.11-.23-.26-.37-.09-.08-.25-.23-.39-.19Z" fill="#fff"/><path d="m35.08,36.37c-.1.05-.2.16-.2.27,0,.09.08.14.38.34.39.27.39.28.49.33.15.07.49.2.56.1.06-.08-.11-.29-.13-.31-.23-.27-.45-.18-.64-.43-.13-.16-.12-.31-.26-.34-.09-.02-.17.02-.2.04Z" fill="#fff"/><path d="m34.18,37.89c-.05-.15,0-.36.12-.4.04-.02.09,0,.28.09.31.17.3.22.44.27.28.11.52,0,.55.07.02.05-.04.12-.09.16-.17.12-.33-.05-.71-.03-.23.01-.34.09-.47,0-.08-.06-.11-.15-.12-.18Z" fill="#fff"/><path d="m34.82,36.93c-.13-.02-.29.09-.32.21-.03.17.2.32.26.35.35.23.6,0,.95.24.12.08.19.17.28.15.09-.03.16-.16.12-.25-.03-.09-.15-.08-.38-.15-.2-.06-.47-.14-.68-.35-.11-.11-.14-.19-.23-.2Z" fill="#fff"/><path d="m36.02,38.24c.06.07.07.19.03.26-.06.09-.19.06-.46.07-.12,0-.38.01-.64.08-.32.09-.36.2-.56.18-.03,0-.31-.04-.39-.25-.05-.12-.02-.29.07-.35.1-.06.21.04.43.08.14.03.19,0,.61-.06.73-.11.84-.08.9,0Z" fill="#fff"/><path d="m34.07,39.08c-.13.11-.04.41.04.57.05.11.11.23.2.24.15.02.2-.22.47-.4.25-.17.56-.2.86-.23.3-.03.44,0,.5-.09.06-.1,0-.29-.11-.37-.08-.06-.19-.06-.71.08-.59.17-.63.22-.85.21-.22-.01-.32-.08-.4,0Z" fill="#fff"/><path d="m35.13,39.73c-.22.12-.3.1-.47.24-.09.08-.17.15-.2.26-.03.18.09.39.22.41.05,0,.1-.02.35-.32.3-.36.29-.41.44-.53.21-.17.4-.19.39-.27,0-.06-.11-.1-.2-.11-.18-.02-.24.15-.54.32Z" fill="#fff"/><path d="m36.27,39.44c.17,0,.34.22.31.37-.02.1-.13.11-.28.2-.22.13-.34.33-.59.72-.26.41-.27.56-.4.58-.16.02-.38-.21-.37-.42,0-.18.18-.2.53-.59.14-.15.31-.37.43-.51.22-.27.27-.35.37-.35Z" fill="#fff"/><path d="m42.43,32.96c.23.07.42.36.36.56-.05.17-.25.18-.59.39-.03.02-.42.26-.7.61-.41.52-.34.97-.59,1-.15.02-.33-.12-.36-.28-.06-.23.23-.36.53-.84.29-.46.17-.57.45-.92.08-.11.5-.64.89-.53Z" fill="#fff"/><path d="m43.27,34.05c.25,0,.49.21.5.39,0,.18-.24.26-.64.56-.72.53-.79.93-1.4,1.12-.12.04-.4.12-.5,0-.11-.13.02-.45.17-.64.19-.26.39-.29.7-.47.74-.44.77-.96,1.17-.95Z" fill="#fff"/><path d="m44.03,35.05c-.13-.04-.23.12-.61.47-.34.31-.58.54-.89.73-.5.3-.84.31-.87.53-.02.13.08.27.2.33.25.13.45-.17.92-.22.47-.06.59.2,1.2.14.38-.04.48-.16.5-.2.16-.23.04-.64-.14-.7-.15-.05-.23.17-.59.28-.3.09-.6.06-.61,0,0-.04.14-.09.5-.28.48-.26.54-.35.56-.39.13-.25.01-.65-.17-.7Z" fill="#fff"/><path d="m44.32,37.35c-.08-.08-.17-.07-.57-.06-.76.02-.91.01-.93.08-.03.09.19.23.4.36.45.28.85.53,1.07.38.2-.14.22-.59.03-.77Z" fill="#fff"/><path d="m41.82,37.55c-.1.14-.06.34,0,.46.14.26.42.16.89.4.44.22.51.46,1.03.64.17.06.3.08.39.01.14-.09.17-.34.08-.5-.09-.18-.27-.15-.67-.32-.57-.24-1-.59-1-.59-.15-.12-.31-.26-.5-.24-.02,0-.15.02-.22.13Z" fill="#fff"/><path d="m36.77,40.05c.1,0,.21.1.22.2.02.13-.13.21-.29.4-.24.28-.21.45-.6,1.07-.07.1-.12.19-.21.2-.13,0-.28-.19-.29-.38-.01-.25.24-.31.59-.74.35-.43.39-.76.59-.75Z" fill="#fff"/><path d="m37.23,40.42c-.26.12-.18.43-.46.89-.26.42-.53.51-.49.73.03.16.22.29.38.28.2-.02.32-.27.42-.47.18-.37.08-.47.24-.81.16-.35.38-.47.32-.57-.05-.09-.25-.11-.4-.04Z" fill="#fff"/><path d="m37.87,40.66c.11-.05.27-.05.35.04.07.08.04.19-.01.39-.12.49-.18.74-.2.85-.05.39.06.52-.06.63-.16.16-.57.09-.64-.08-.05-.11.08-.18.17-.43.12-.37-.04-.49.07-.91.04-.15.11-.4.32-.49Z" fill="#fff"/><path d="m38.61,40.86c-.15.19,0,.37-.06.75-.06.48-.36.68-.24.87.06.09.2.14.29.11.11-.03.17-.15.27-.35.08-.18.12-.31.14-.31.02,0-.03.19.03.42.02.09.05.19.14.24.1.05.25.03.32-.06.16-.17-.02-.59-.14-.87-.16-.38-.27-.4-.32-.68-.02-.12-.02-.23-.1-.27-.09-.05-.25.03-.33.14Z" fill="#fff"/><path d="m39.64,40.69c-.09,0-.21.05-.25.14-.05.11.03.22.27.61.28.48.33.59.31.73-.02.14-.1.22-.06.28.06.08.29.06.4-.06.12-.13.07-.33,0-.67-.09-.43-.24-.65-.29-.73-.11-.16-.22-.31-.38-.31Z" fill="#fff"/><path d="m41.63,38.47c-.1.08-.13.26-.07.38.1.2.35.09.73.28.26.13.66.46.89.88.04.07.07.15.15.17.21.06.57-.31.52-.56-.03-.12-.14-.16-.45-.33-.53-.3-.46-.34-.89-.56-.43-.22-.73-.37-.88-.25Z" fill="#fff"/><path d="m40.34,40.27c-.14-.01-.29.1-.33.24-.07.24.24.47.28.5.23.17.32.06.52.21.23.17.15.37.45.64.17.16.26.15.29.14.11-.02.2-.15.21-.27.02-.2-.17-.37-.47-.63-.29-.25-.32-.2-.5-.39-.25-.26-.27-.43-.43-.45Z" fill="#fff"/><path d="m40.83,39.81c-.1.04-.18.16-.18.28,0,.14.12.22.53.53.56.42.61.48.67.57.13.2.13.34.24.36.15.03.38-.17.39-.38,0-.15-.1-.2-.6-.7-.16-.16-.34-.34-.63-.53-.21-.14-.32-.18-.42-.14Z" fill="#fff"/><path d="m40.55,41.47c-.17.11-.16.55.07.73.13.1.29.09.31.08.12-.02.28-.09.28-.18,0-.1-.19-.09-.31-.28-.1-.16-.04-.3-.14-.36-.06-.04-.15-.03-.21.01Z" fill="#fff"/><path d="m41.47,39.2c-.12.04-.25.16-.25.28,0,.12.13.19.5.43.7.44.78.53.84.64.1.17.1.3.2.32.13.03.35-.15.36-.33,0-.12-.07-.19-.43-.57-.38-.39-.39-.42-.5-.5-.22-.16-.47-.35-.71-.27Z" fill="#fff"/><path d="m46.14,44.39c-.12.11-.24.23-.36.34-.12.11-.24.21-.37.32-.19.17-.39.34-.59.5-.14.12-.28.24-.43.34-.23.19-.46.37-.69.54-.19.15-.39.29-.59.42-.27.19-.54.37-.81.54-.06.05-.11.08-.17.11v.16s-.08-.05-.12-.09c-.22.16-.44.29-.67.41-.49.3-.98.57-1.49.82-.23.13-.47.25-.72.35-2.67,1.27-5.59,2.1-8.67,2.41h-5.4c-6.58-.71-12.26-3.96-16.47-8.29.11-.07.21-.14.31-.2,0,0,.01,0,.01-.01,4.4-2.78,7.83-3.77,10.49-3.92.03,0,.06-.01.08-.01,1.12-.06,2.1.03,2.95.19.85.16,1.6.41,2.29.7,1.79.78,3.15,1.93,4.75,3,.34.23.68.45,1.05.66.12.08.24.14.36.21.22.12.44.24.67.36.11.04.22.1.33.15.16.07.32.14.48.21.15.06.3.12.45.18.02,0,.05.02.07.03.21.07.42.14.64.21.34.11.69.21,1.07.3.08.02.17.04.25.06.1.02.21.05.31.06.26.06.5.1.76.14h.01c.1.02.21.04.32.04.19.03.37.06.55.07.22.03.44.04.65.05.31.03.6.04.9.04.16,0,.31,0,.46-.01.17.01.33,0,.5-.02h0c.17.01.33,0,.49-.02,0,.01.02,0,.02,0,.2,0,.39-.02.58-.05.05,0,.1,0,.14-.02.23,0,.46-.04.69-.08.42-.05.81-.12,1.21-.2h.01c.25-.04.49-.09.73-.15.3-.06.58-.13.86-.21.16-.04.32-.08.47-.13.2-.05.41-.11.6-.18.18-.05.35-.1.52-.16.17-.06.34-.12.51-.17Z" fill="#fff"/><path d="m46.66,44.2v.21c-.04-.06-.09-.11-.12-.17.04,0,.08-.03.12-.04Z" fill="#fff"/><path d="m.82,27.07c8.41-6.29,13.76,6.09,22.01,3.85,1.07-.28,2.08-.78,3.02-1.4-3.81,3.41-8.75,2.34-12.69-.27-4.1-2.52-7.51-4.3-12.09-1.79,0,0-.25-.4-.25-.4h0Z" fill="#fff"/><path d="m42.3,47.39c-.06.05-.11.08-.17.11v.16s-.08-.05-.12-.09c-.22.16-.44.29-.67.41-.49.3-.98.57-1.49.82-.23.13-.47.25-.72.35-2.67,1.27-5.59,2.1-8.67,2.41-.9.09-1.81.14-2.74.14s-1.77-.05-2.63-.14h-.03c-.22-.54-.44-1.07-.66-1.6,2.1-2.01,3.97-3.39,5.63-4.3h.01c.32-.18.61-.34.91-.47.41-.2.8-.37,1.17-.5.09-.03.17-.06.24-.08.39-.14.76-.25,1.11-.33t.02-.01c.22-.04.44-.09.64-.12.35-.06.69-.09,1.02-.1.17-.02.34-.03.51-.02.2,0,.38.01.57.03.12.01.25.02.37.04.19.02.38.05.56.09.11.02.22.05.32.08.05.01.09.02.13.03.22.06.44.13.65.21.14.05.27.1.39.16.07.03.14.06.21.09.24.11.47.23.69.37.29.17.58.36.85.56.17.13.33.25.5.39h.01c.42.36.81.73,1.2,1.12.07.06.13.13.19.19Z" fill="#fff"/><path d="m32.68,44.23s.05-.08.06-.1c-.07,0-.07.13-.06.1Z" fill="#fff"/><polygon points="32 44.25 32.03 44.21 31.9 44.28 32 44.25" fill="#fff"/><path d="m31.45,44.03c-.02.19.21.05.29.15v.04s.1-.12.1-.12c-.13-.02-.32,0-.39-.08Z" fill="#fff"/><path d="m31.3,43.55c0,.07-.09.03.06.05,0,0,0-.01,0-.02-.01,0-.03-.01-.05-.03Z" fill="#fff"/><path d="m31.36,43.58c.06.02-.01-.07,0,0h0Z" fill="#fff"/><path d="m31.08,43.5l.1-.02s-.06-.08-.02-.1c-.09,0-.09.04-.07.12Z" fill="#fff"/><path d="m30.96,43.59h.05s0-.04-.05,0Z" fill="#fff"/><path d="m31.11,43.57h-.1s-.02.1.05.01c-.03.05,0,0,.06-.01Z" fill="#fff"/><path d="m31.15,43.62c.03.05.07.1-.03.13.16.04.18-.09.03-.13Z" fill="#fff"/><path d="m31.35,44.19l.04.07.07-.04s-.09-.09-.11-.04Z" fill="#fff"/><path d="m30.66,43.21s-.02.1-.03.15h.07c-.02-.05-.06-.1-.04-.15Z" fill="#fff"/><path d="m30.63,43.36l-.11.02c.07.04.1.02.11-.02Z" fill="#fff"/><polygon points="30.86 43.77 31.05 43.7 30.84 43.76 30.86 43.77" fill="#fff"/><polygon points="30.35 43.06 30.44 43 30.3 43.08 30.35 43.06" fill="#fff"/><path d="m30.14,42.97c.07-.05.01-.13.07-.16-.06-.02-.14.02-.2.04.06,0,.1.03.14.11Z" fill="#fff"/><path d="m29.9,42.9s.07-.02.11-.04c-.03,0-.07.01-.11.04Z" fill="#fff"/><path d="m30.39,43.3s.02-.08-.02-.13l-.02.11.03.02Z" fill="#fff"/><path d="m30.35,43.29h0s-.06-.04-.07-.04c0,0,.03.02.07.04Z" fill="#fff"/><path d="m30.39,43.3h0s0,.01,0,0Z" fill="#fff"/><path d="m30.68,43.58c-.07.03-.2.05-.14.17.07-.05.03-.12.14-.17Z" fill="#fff"/><path d="m30.37,43.44l.08.06s.01-.07.05-.09l-.13.02Z" fill="#fff"/><polygon points="30.32 43.45 30.37 43.44 30.35 43.42 30.32 43.45" fill="#fff"/><path d="m30,43.06c-.06.02-.1,0-.15-.01.04.04.08.08.13.11.02-.03.07-.07.02-.09Z" fill="#fff"/><path d="m30.16,43.18h-.01s0,.02.01,0Z" fill="#fff"/><polygon points="29.4 42.81 29.4 42.83 29.41 42.82 29.4 42.81" fill="#fff"/><path d="m29.98,43.18s.06.03.1,0c-.03,0-.06-.01-.1-.03,0,.01-.02.02,0,.02Z" fill="#fff"/><path d="m29.75,42.88s.02.06.04.09c0-.04-.02-.11-.04-.09Z" fill="#fff"/><path d="m30.15,43.15h0s0-.02,0,0Z" fill="#fff"/><path d="m30.15,43.15s-.05.02-.08.03c.03,0,.05,0,.08,0,0,0,0-.02,0-.03Z" fill="#fff"/><path d="m28.93,43.34c.06-.08.2-.11.23.03.12-.02.22-.34.24-.54-.02.04-.04.07-.16.08,0,.06.12.21,0,.25-.14-.02-.07-.08-.1-.16-.01.13-.23.08-.3.25h.13s-.07.04-.06.08Z" fill="#fff"/><path d="m29.56,42.93h.04s-.04-.08-.05-.18c-.08.01-.11.04-.13.06l.16.11h-.02Z" fill="#fff"/><path d="m29.75,43.02c-.08.08-.18.08-.19.21.11.05.11-.04.2-.05-.18-.06.08-.03-.01-.15.04,0,.07.01.1.02-.02-.03-.04-.06-.06-.09h0s0,0,0,0h0s0,.03,0,.01h0s-.02.02-.03.03c-.04-.04,0-.03.03-.03h0s0-.01,0-.01l-.19-.03s.07.05.16.08Z" fill="#fff"/><path d="m30.35,43.93s0-.02,0-.03c-.02,0-.02.01,0,.03Z" fill="#fff"/><path d="m30.31,43.83s.05-.04.08-.01c.02.05-.02.05-.04.08.04-.01.12-.03.06-.11h-.02c-.05-.06-.08-.22-.06-.23-.02.1-.03.17-.03.28Z" fill="#fff"/><path d="m30.01,43.45l-.16-.02.03.12.02-.05c.07.06.08-.01.11-.04Z" fill="#fff"/><polygon points="29.42 42.75 29.49 42.66 29.33 42.76 29.42 42.75" fill="#fff"/><polygon points="29.23 42.67 29.29 42.59 29.21 42.61 29.23 42.67" fill="#fff"/><path d="m18.74,39.87l-.04.04s.03-.02.04-.04Z" fill="#fff"/><path d="m19.06,39.81v-.05s-.01.05,0,.05Z" fill="#fff"/><path d="m25.32,39.73c.02-.11.07-.27,0-.18l-.06.09s.06.05.07.09Z" fill="#fff"/><path d="m21.71,39.05l.02.03s.04-.07.05-.1l-.07.07Z" fill="#fff"/><path d="m21.64,39.5l-.08-.07s.04.05.08.07Z" fill="#fff"/><path d="m17.05,40.42l-.02.12c.08-.03.03-.07.02-.12Z" fill="#fff"/><path d="m27.49,41.59c-.02-.07-.05-.11-.08-.14.02.09,0,.2.08.14Z" fill="#fff"/><path d="m18.65,38.7s-.03.05-.03.07c.03-.02.04-.05.03-.07Z" fill="#fff"/><path d="m27.28,41.36s0,.02,0,.04c.04.01.09.02.12.06-.01-.07-.04-.12-.13-.1Z" fill="#fff"/><path d="m10.9,42.85s-.01,0-.02,0c0,.01.01.01.02,0Z" fill="#fff"/><path d="m8.67,42.65s.04-.03.07-.04c-.02,0-.04,0-.07.04Z" fill="#fff"/><path d="m28.57,42.22s.01,0,0,0h0Z" fill="#fff"/><path d="m28.52,42.69s-.03.02-.04.04c.02-.02.03-.03.04-.04Z" fill="#fff"/><path d="m26.53,41.64h0s0,.02,0,0Z" fill="#fff"/><path d="m28.6,42.29s-.02-.04-.03-.06c0,.01.01.03.03.06Z" fill="#fff"/><path d="m28.62,42.24s.02.02.03.03c.01-.01.02-.02-.03-.03Z" fill="#fff"/><path d="m28.52,42.19s.04.03.05.05c0-.01,0-.02,0-.02-.01,0-.03-.01-.05-.03Z" fill="#fff"/><path d="m14.05,41.13s0,0-.01,0c-.02.06,0,.04.01,0Z" fill="#fff"/><polygon points="23.77 39.92 23.78 39.92 23.77 39.91 23.77 39.92" fill="#fff"/><path d="m23.62,39.96c.1-.11.13-.08.16-.04l.09-.3c-.09.11-.17.23-.25.34Z" fill="#fff"/><path d="m17.99,40.07l.13.07c-.09.19-.19.15-.06.27-.07-.34.39-.13.33-.47l.08.05s-.02.02-.04.02c.17.13.04-.27.23-.25.07.01.12.05.08.1l.12-.11s.04.06,0,.06l.2-.07h0s.07-.14.1-.18c.06.04-.02.04,0,.08l.1-.1c.06.08-.02.18-.1.18.16.32.08-.1.34.06l-.1.06c.1.18.17.1.3.21-.03-.06-.28-.27-.17-.37.04.02.09.03.14-.05.02.12.08.08.16.06v.16c.09-.06.08-.14.12-.22.1,0,.13.13.16.23.16.01-.13-.19.06-.24.14.05.22-.02.37-.13.09.05-.01.1.02.14l.07-.13s.02.04.01.06c.07-.05,0-.16.11-.21.03-.18.23.26.36.05.03.05-.02.1,0,.16.18-.14.16-.1.31-.27l.13.11c-.09-.13.04-.26.15-.38-.03-.06-.06-.11-.08-.14l.18-.08s0,.08-.03.15l.03-.04c.06.06.02.15-.03.24l-.06-.1c-.05.1-.09.2-.09.3.01-.02.03-.03.06-.04-.01.03-.02.05-.02.07,0,.02.02-.02.05-.06l.03.18v-.07s.22.12.22.12c.17-.16.34-.41.61-.45-.08.12-.04.21-.07.37-.05-.17-.2.05-.33,0,.07.03.04.1.02.12l.25-.12c-.02.13.04.1.09.16,0-.26.2-.14.3-.2,0,.08-.05.17-.16.12.09.21.21-.26.31-.08-.03,0-.04-.02-.06.02.08-.06.23.03.17.09h-.03c.2.05.5.14.61-.05,0,.03-.12.23-.14.27.17-.19.38-.38.61-.55-.11.16-.23.57-.4.62.03.04.05.07.14.05,0-.03.09-.26.13-.26-.03.23,0,.13,0,.34,0-.05.2-.26.25-.2-.04.03-.18.22-.22.23.1-.04.2-.07.31-.1-.07,0-.17.17-.2.26.03-.05.1.1.16.12v-.1c.11.17.42-.14.56.02-.06.02-.3.21-.24.31.14-.07.64-.35.85-.31l-.03.08.17.02c-.21.11-.71.27-.93.3.01.1-.05.09.04.17-.02.09-.13.04-.16.02l.17.23c.11-.13.28.02.36-.09l-.35-.08c.11-.13.46-.23.58-.08,0,.08-.23.2-.27.24.06-.03.21.04.2.09h-.12c.04.13.28-.04.28.17.03.04-.04.26.03.18.07-.2.45-.66.58-.74,0,.02.06.29.03.4-.04.16-.32.21-.35.35.03-.03.1-.05.13-.05.01.06-.11.1-.01.15.12-.12.16.14.13-.08.11.03.06.1.16.17.04-.11.32-.23.43-.2-.03.03-.05.09-.06.12.15.14.19.27.35.38-.01.04.04.14-.04.18.04,0,.1-.04.15,0,0,.19-.12-.06-.16.14.07-.08.21-.02.31-.02.07-.14-.14-.14-.25-.14.13-.17.38-.27.59-.23.16.05-.02.15.02.14.22.2.42-.17.53.1,0,.17-.15.23-.18.32-.14-.03-.12-.18-.19-.23l.05.11c-.06.01-.15,0-.17-.06,0,.15.4.3.54.52.06-.02.14-.02.14-.08l-.07-.02c0-.13.2-.06.15-.15.12-.01.28-.06.36.06l-.06.15s-.03-.12-.09-.1c.08-.03.07.29.23.14l-.03-.14c.12-.02.31-.1.39,0,.03-.16-.03,0-.01-.2-.05.23-.26-.16-.27.1.03-.22-.08-.15-.09-.36-.02.05-.02.1-.09.03-.01.01-.03.02-.04.03h0s0,0,0,0c0,0,0,0,0,0,0,.03.01.06,0,.09-.1.07-.24-.02-.31,0-.04-.05.05-.04.05-.1l-.12.03c.05-.1-.03-.24.12-.22l-.1-.07c-.03-.09-.1-.17-.17-.17-.03-.05-.19.02-.1-.02l-.2-.05v-.02c-.13-.12-.42-.08-.48-.38-.07-.02-.14-.03-.21-.12l.04-.09c-.09-.02-.14-.23-.23-.17.1-.26-.28-.3-.36-.43l-.09.09c-.07-.07-.17-.11-.3-.15l-.07.09c-.15,0-.16-.24-.29-.35.04-.02.06.01.07.05.02-.32-.45-.16-.45-.42-.06,0-.08-.04-.08-.08h.01s-.01-.01-.01-.01c0-.03,0-.06,0-.09,0,.03,0,.06,0,.08-.03-.02-.08-.05-.13-.07l.07-.1s0,0-.01,0c0-.07-.07.01-.12.1-.03,0-.07,0-.1,0,.11-.17-.15-.06-.05-.25-.09.05-.29-.16-.45,0,.02-.02,0-.05.04-.03-.04-.06-.08-.13-.17-.11l.06-.15c-.08.03-.17.06-.25.1-.04-.11-.05-.18.09-.25-.29.08-.21,0-.45.1l.04-.09c-.07-.02-.21.07-.22-.02-.1-.25-.66-.18-.98-.41.03.3-.15-.15-.19.07-.01-.07-.06-.12,0-.17-.19.05-.26-.14-.41.03-.01-.07.05-.1.03-.14-.02.01-.06.05-.08.01-.02-.04.03-.06.06-.08-.19,0-.22.21-.25.41-.09-.1-.13-.09-.21.04-.03-.07-.08-.14.04-.16-.06-.01-.39-.12-.4.05-.02-.04-.09-.01-.11,0-.14,0-.16-.02-.3,0l.04.03c-.05.2-.11.05-.23.07v-.02c-.26-.13-.1.07-.37-.07l.02.12c0,.26-.23-.13-.37-.02l.06.06c-.07.1-.26-.34-.35-.35-.02-.02.02-.04.05-.06-.23-.12,0,.16-.16.22-.04-.08.01-.22-.1-.22-.07-.06-.27.32-.44.18.04.06.08.12.02.18-.11.04-.34-.19-.41.04-.02-.01-.03-.03-.03-.05-.07.07-.26.14-.28.26-.17-.39-.47.32-.56-.05l-.25.08v-.04c-.17.02-.21.13-.24.23-.04-.01-.03-.06-.03-.08-.26,0-.28.01-.42.26l-.06-.11c-.03.09-.4-.08-.58.13,0-.01,0-.04,0-.06-.21.22-.73-.11-.67.35l-.13.17c.23-.04.04.2.15.24-.07.06-.26-.05-.17-.11l.02.02c-.04-.24-.29.02-.35-.13-.42.17-.87.22-1.27.37l.12.15-.14.05c-.05-.02-.1-.11,0-.15-.09-.07-.13.15-.11.19-.22.01-.01-.23-.07-.21l-.07.05h.03c-.03.11,0,.18-.13.23-.09,0-.08-.09-.11-.08,0-.01-.02-.01-.05.01l-.18.06.13.1c-.05.1-.16.06-.02.18-.22-.18-.67.19-.77.15-.06.14-.16.19-.3.23.04.01.13.15.01.19-.1-.33-.26-.04-.45-.22.15.11-.3.18-.08.33-.1.02-.06-.11-.16-.15-.16.22-.52.14-.77.3.01.04.09.08.06.17l-.23-.14s.06.26-.1.16c.03.03.07.07.04.1-.62.04-1,.65-1.71.52.11.05.06.08,0,.1.04,0,.04.1.08.15l-.29-.05c.03.17-.24.12-.19.28l.06-.06c-.02.21.3.32.39.55.02-.24.41.16.46-.19.06.03,0,.09.04.13,0-.11.05-.16.16-.16v.03c.27-.15.43-.11.76-.19l-.07-.1c.07-.02.1.01.15.03,0-.2-.19.08-.2-.14.19.18.47-.21.65.02.1-.05-.09-.11.02-.16l.06.06v-.1c.06-.02.13.05.16.11-.02,0-.04.04-.05.05.12.04.23-.14.28-.13h-.12c.25-.19.63-.25.84-.51l-.04-.04c.16-.19.19-.02.4-.17v.02c.02-.07.07-.12.13-.15-.03.09.16.07.12.17.18-.2.07-.13.14-.39l.07.07c.02-.1,0-.14.11-.22-.06.12.13.1.07.24.32.08.27-.34.5-.12,0-.29-.26-.04-.22-.12-.09-.05.01-.22.1-.23.08-.03.26.25.45.16-.02,0-.01.03-.03.03.1.03.1-.14.24-.08-.01-.16.12-.04.05-.23l-.16.12c.08-.09.08-.35.29-.31,0,.04-.03.11-.05.15.07.03.08-.08.15-.04.06.19-.2.13-.24.32.08.06.14-.22.18,0-.03-.29.2-.05.25-.3l.04.11s.03-.1.07-.11v.17c.05-.17.24.02.31-.08-.21.09-.1-.11-.22-.16.2-.25.27.23.54.06-.03.03-.17,0-.13-.08.06,0,.15.01.21.06.18-.1-.07-.1-.02-.2.12.11.07-.09.14-.17l.04.11c.25-.01-.03-.26.2-.25l-.03.19.09-.08.03.14c.08-.14.12-.13.25-.13-.06-.07-.06-.21.04-.25.09.04,0,.12.14.06,0,.08,0,.19-.11.1,0,.04,0,.08,0,.12.1.05.19-.05.24-.07-.02,0-.05,0-.06,0l.15-.23s.03.08.02.12c.04-.03.05-.09.1-.12.02.1.05.19-.02.27l.16-.17s.14.08.12.12c.12.02.2-.27.37-.24,0-.02.01-.04.04-.07.14-.02.29.07.41-.11l.14.15c.11-.07-.18-.18,0-.3.13-.1.09.13.16.16.05-.11.13-.31.3-.21-.04.04-.08.03-.12.05Zm1.54-.39s-.08.12-.11.05c.01-.14.05-.08.11-.05Zm2.41-.38s-.06.02-.1-.03c.03,0,.06,0,.1.03Zm6.19,2.75h0c-.03-.08-.02-.05,0,0Zm.09.12s.03-.02.03-.04c-.03.02-.05,0-.08-.02,0,.03,0,.06.05.06Zm-14.92-1.61l.04.02c-.05.06-.04.02-.04-.02Z" fill="#fff"/><path d="m21.65,39.45s0-.04,0-.07c-.01.02-.01.04,0,.07Z" fill="#fff"/><polygon points="17.05 40.4 17.04 40.4 17.05 40.42 17.05 40.4" fill="#fff"/><path d="m25.76,41.64s-.01-.06,0-.09c-.02.02-.03.05,0,.09Z" fill="#fff"/><path d="m28.97,42.4l-.09-.02s.04.05.05.08c.01-.03.02-.07.04-.06Z" fill="#fff"/><path d="m29.3,43.45s.03.01.05,0l.02-.05c-.05-.03-.11,0-.07.05Z" fill="#fff"/><path d="m28.84,42.79c-.05.09.02.09.09.11h0c.09-.12,0-.11-.08-.11Z" fill="#fff"/><path d="m28.94,42.9s.04.01.05.03c.04-.05-.02-.02-.05-.03Z" fill="#fff"/><path d="m28.41,42.21s.09-.1.08-.06c.1-.09-.26.02-.08.06Z" fill="#fff"/><polygon points="28.71 43.11 28.76 42.98 28.67 43.05 28.71 43.11" fill="#fff"/><path d="m28.31,42.76l.07.09s.03-.02.05-.02c-.05-.04-.1-.1-.12-.06Z" fill="#fff"/><path d="m28.43,42.82s.06.03.08.03c-.02,0-.05-.02-.08-.03Z" fill="#fff"/><polygon points="28.57 43.06 28.56 43.03 28.5 42.98 28.57 43.06" fill="#fff"/><path d="m27.38,42.11l-.11-.04s-.02.07.02.08c.04,0,.08,0,.09-.04Z" fill="#fff"/><path d="m27.47,42.59s0-.06.01-.11l-.09.13.08-.02Z" fill="#fff"/><path d="m27.17,42.43s-.21,0-.08.08c.03-.03.15.01.08-.08Z" fill="#fff"/><polygon points="25.9 41.19 25.92 41.21 26.08 41.01 25.9 41.19" fill="#fff"/><path d="m24.32,40.58c.06.14.14-.09.17.05.07-.02-.03-.12.03-.13-.11-.01-.11-.07-.2.08Z" fill="#fff"/><path d="m24.53,40.51s.04,0,.06,0c-.03,0-.05,0-.06,0Z" fill="#fff"/><polygon points="8.31 42.66 8.21 42.65 8.3 42.7 8.31 42.66" fill="#fff"/><path d="m8.24,42.9l-.09-.14v.16s.06-.04.09-.02Z" fill="#fff"/><path d="m19.8,39.98v-.04s-.04-.04-.08-.04l.08.08Z" fill="#fff"/><polygon points="18.67 40.04 18.69 40.04 18.62 39.9 18.67 40.04" fill="#fff"/><path d="m17.78,40.45s.07-.05.11-.05c-.08.05-.17-.12-.11.05Z" fill="#fff"/><path d="m42.31,47.3s-.02.05-.02.06c.05-.12.02-.06.02-.06Z" fill="#fff"/><polygon points="41.92 47.04 41.96 47.01 41.83 47.05 41.92 47.04" fill="#fff"/><path d="m41.55,46.76c-.08.17.15.08.18.18v.04s.1-.09.1-.09c-.09-.04-.26-.04-.28-.12Z" fill="#fff"/><path d="m41.61,46.3c-.03.06-.08.01.03.05,0,0,0-.01,0-.02,0,0-.02-.01-.03-.03Z" fill="#fff"/><path d="m41.64,46.33s.01-.07,0,0h0Z" fill="#fff"/><path d="m41.44,46.22h.09s-.02-.09.01-.1c-.07-.02-.09.02-.1.1Z" fill="#fff"/><path d="m41.32,46.28h.04s0-.03-.04,0Z" fill="#fff"/><path d="m41.45,46.28h-.09s-.05.07.04,0c-.04.04,0,0,.05,0Z" fill="#fff"/><path d="m41.46,46.33c0,.05.02.1-.07.11.11.06.17-.05.07-.11Z" fill="#fff"/><path d="m41.42,46.89v.07s.08-.02.08-.02c-.04.01-.05-.09-.08-.05Z" fill="#fff"/><path d="m41.21,45.89s-.05.09-.08.13h.06s-.02-.09.02-.13Z" fill="#fff"/><path d="m41.13,46.02h-.1c.04.05.07.03.1,0Z" fill="#fff"/><polygon points="41.18 46.42 41.36 46.4 41.16 46.41 41.18 46.42" fill="#fff"/><polygon points="41.01 45.71 41.1 45.67 40.96 45.72 41.01 45.71" fill="#fff"/><path d="m40.87,45.6c.07-.04.05-.12.11-.13-.04-.02-.12,0-.18.02.05,0,.08.04.08.12Z" fill="#fff"/><path d="m40.69,45.51s.06,0,.1-.02c-.03,0-.06,0-.1.02Z" fill="#fff"/><path d="m40.95,45.93s.04-.07.03-.12l-.05.1.02.02Z" fill="#fff"/><path d="m40.93,45.91h0s-.03-.04-.04-.05c0,0,.02.02.04.05Z" fill="#fff"/><path d="m40.96,45.93h0s0,0,0,0Z" fill="#fff"/><path d="m41.1,46.23c-.07.02-.18,0-.17.14.07-.04.07-.11.17-.14Z" fill="#fff"/><path d="m40.9,46.06l.04.07s.03-.06.07-.07h-.11Z" fill="#fff"/><polygon points="40.85 46.06 40.9 46.06 40.88 46.03 40.85 46.06" fill="#fff"/><path d="m40.71,45.66c-.06.01-.09,0-.12-.03.02.04.04.08.08.11.03-.02.08-.05.05-.08Z" fill="#fff"/><path d="m40.81,45.79h0s0,.01,0,0Z" fill="#fff"/><polygon points="40.3 45.38 40.29 45.39 40.3 45.38 40.3 45.38" fill="#fff"/><path d="m40.66,45.76s.04.03.08.02c-.03,0-.05-.02-.07-.04-.01,0-.02.02,0,.02Z" fill="#fff"/><path d="m40.57,45.47s0,.05,0,.08c.01-.04.02-.1,0-.08Z" fill="#fff"/><path d="m40.82,45.76h0s0-.02,0,0Z" fill="#fff"/><path d="m40.82,45.76s-.05.01-.08.02c.02,0,.04.01.06,0,0,0,0-.02.01-.03Z" fill="#fff"/><path d="m39.73,45.8s.04-.03.06-.04h0s.07-.02.06,0h.03s.04.03.04.08c.11,0,.3-.27.38-.45-.03.03-.05.05-.12.05l-.32.32s0-.03.02-.04c0,0-.01,0-.02.04l.28-.27c0,.07.02.16-.07.18-.05-.01-.06-.03-.06-.05l-.15.14s0-.03.04-.05c-.01,0-.01,0,0,0l.04-.14c-.07.04-.17.03-.25.15h.11s-.07.05-.07.09Z" fill="#fff"/><path d="m40.39,45.49h.03s0-.07.01-.16c-.07,0-.11.02-.13.04l.1.11h-.02Z" fill="#fff"/><path d="m40.52,45.6c-.09.06-.18.05-.23.16.07.05.11-.02.18-.02-.13-.08.07-.02.04-.13.03,0,.06.02.08.03-.01-.03-.02-.06-.02-.09h0s0,0,0,0h0s0,.02,0,.01h0s-.03.03-.03.03c-.02-.04.01-.02.03-.03h.01s0-.01,0-.01l-.15-.05s.04.05.1.09Z" fill="#fff"/><path d="m40.71,46.49s0-.02.01-.02c-.02,0-.02,0-.01.02Z" fill="#fff"/><path d="m40.71,46.4s.05-.03.07,0c0,.04-.03.04-.06.07.03,0,.11-.01.09-.09h-.02c-.02-.06.01-.22.03-.22-.05.08-.09.15-.12.25Z" fill="#fff"/><path d="m40.59,46.01l-.13-.04-.02.11.04-.04c.04.06.07,0,.11-.03Z" fill="#fff"/><path d="m40.32,45.33l.09-.07-.11.05-.46.46s0-.03.01-.03c0,0-.01.01-.01.03l.44-.43h.04Z" fill="#fff"/><polygon points="40.16 45.19 40.22 45.12 40.16 45.14 40.16 45.19" fill="#fff"/><path d="m31.24,45.86l-.03.04s.02-.02.03-.04Z" fill="#fff"/><path d="m31.49,45.8v-.05s-.01.05,0,.05Z" fill="#fff"/><path d="m36.14,43.78c-.05-.09-.12-.24-.11-.13l.02.11s.07,0,.09.02Z" fill="#fff"/><path d="m33.42,44.69l.02.03s.01-.08.02-.11l-.04.08Z" fill="#fff"/><path d="m33.47,45.14l-.08-.06s.05.04.08.06Z" fill="#fff"/><path d="m29.95,46.47v.12c.06-.03.01-.07,0-.12Z" fill="#fff"/><path d="m38.61,44.17c-.04-.06-.07-.09-.1-.11.04.08.06.19.1.11Z" fill="#fff"/><path d="m30.98,44.73s-.02.05-.01.07c.02-.02.02-.05.01-.07Z" fill="#fff"/><path d="m38.34,44.02h0s.05.02.05.02v.02s.07-.03.12,0c-.04-.06-.05-.09-.11-.04h-.05s0,0,0,0Z" fill="#fff"/><path d="m25.13,48.47s0,0-.02,0c0,.01.01.01.02,0Z" fill="#fff"/><path d="m23.28,48.1s.03-.02.05-.03c-.01,0-.03,0-.05.03Z" fill="#fff"/><path d="m39.71,44.72s.01,0,0,0h0Z" fill="#fff"/><path d="m39.56,45.17s-.03.01-.05.03c.02-.02.03-.03.05-.03Z" fill="#fff"/><path d="m37.84,44.61h0s0,.02,0,0Z" fill="#fff"/><path d="m39.72,44.8s0-.04-.02-.06c0,.01,0,.03.02.06Z" fill="#fff"/><path d="m39.75,44.75s.01.02.02.03c.02-.01.02-.02-.02-.03Z" fill="#fff"/><path d="m39.66,44.69s.03.03.04.05c0-.01,0-.02,0-.02-.01,0-.02-.02-.05-.03Z" fill="#fff"/><path d="m27.58,47.06s0,0-.01,0c-.01.06,0,.04.01,0Z" fill="#fff"/><polygon points="35.26 44.93 35.26 44.93 35.26 44.92 35.26 44.93" fill="#fff"/><path d="m35.15,45.02c.04-.14.07-.12.11-.1l-.06-.31-.05.41Z" fill="#fff"/><path d="m30.67,46.1l.11.06c-.04.19-.12.16,0,.26-.11-.33.29-.14.18-.47l.08.05s-.01.02-.03.02c.15.12,0-.27.14-.26.06.01.1.05.08.1l.08-.11s.04.06.01.06l.15-.07h0s.03-.14.05-.18c.05.04,0,.04.01.08l.06-.1c.06.07.01.18-.05.18.18.3.05-.1.28.04l-.07.07c.11.17.15.09.28.18-.04-.05-.27-.24-.2-.35.03.02.07.02.11-.06.03.12.08.07.14.05l.04.16c.05-.06.03-.14.05-.22.08,0,.13.11.17.21.13,0-.13-.17,0-.24.12.03.17-.05.27-.18.08.03.01.1.05.14l.03-.14s.02.04.02.06c.04-.06-.03-.16.04-.23-.01-.1.07-.02.15.03l.07-.02s-.01.13-.02-.05l.11.04h0s.01.09.04.15c.11-.16.09-.12.17-.31l.12.08c-.1-.1-.04-.26.03-.4-.04-.05-.07-.1-.09-.12l.12-.11s.02.08,0,.15l.02-.04c.06.05.05.15.03.24l-.07-.09c-.02.1-.02.22,0,.31,0-.02.02-.04.03-.05,0,.03,0,.05,0,.07,0,.02.01-.02.03-.07l.06.17v-.07s.18.08.18.08c.05-.11.09-.24.15-.35h-.03s0-.01,0-.01h.04c.05-.1.11-.18.2-.22-.03.14.02.21.04.37-.07-.13-.12.02-.2.06h-.07s0,0,0,0h.06s-.02,0-.04,0c.02,0,.04.02.04.04-.12.02-.03.02-.06.03h0s0,.02,0,.02h0s0,0,0,0h.07s0,.02,0,.03h0s-.07,0-.07,0h0s.09-.02.09-.02l.14-.15c.02.13.05.09.11.14-.07-.25.11-.18.17-.27.02.08.01.17-.08.16.13.18.09-.31.21-.16-.02,0-.04,0-.04.04.04-.08.18-.04.16.04h-.02c.15.02.45-.05.45-.26,0,.03,0,.26,0,.3.07-.25.14-.49.22-.74-.01.19.1.62-.01.73.04.02.08.05.15-.02-.02-.02-.07-.26-.04-.28.1.2.07.11.18.27-.04-.04,0-.33.05-.32,0,.04.01.29,0,.32l.14-.28c-.04.05,0,.24.03.32-.01-.06.12,0,.16-.02l-.06-.07c.16.04.16-.4.33-.38-.02.06-.05.36.02.4.04-.14.17-.63.33-.78h-.03s.03-.02.04-.02l.03.09.12-.08c-.05.1-.12.26-.18.41h0c-.09.17-.17.34-.22.43.05.07.01.1.09.09.02.08-.05.12-.08.12l.15.04h.06s.01.01.02.01c0-.17.15-.16.15-.3-.06.04-.14.09-.17.13h-.05s-.03.02-.03.02c0-.05.02-.12.05-.19h.04c.03-.14.15-.27.24-.24.03.07-.05.3-.05.36.02-.06.14-.1.15-.06l-.07.09c.07.07.15-.21.22-.04.03.01.07.23.09.13-.03-.2.04-.8.1-.93.01.02.16.21.19.31.03.16-.14.34-.11.48,0-.05.05-.1.06-.11.03.04-.04.14.04.13.04-.17.15.04.06-.14.08-.03.07.05.16.06,0-.11.15-.35.24-.39-.01.04,0,.1,0,.13.14.04.2.12.32.16h0s.05.01.05.01c0,.04.06.11,0,.17.03-.02.06-.07.11-.06.03.17-.1-.01-.09.18.04-.09.15-.09.23-.13.04-.15-.13-.08-.21-.04.06-.2.24-.38.44-.41.15,0,0,.15.04.13.22.13.4-.23.51.02,0,.16-.15.22-.19.32-.12-.01-.09-.16-.16-.19.02.03.03.07.04.1-.05.02-.13.02-.14-.03,0,.12.33.23.38.45.05-.01.12-.01.14-.07l-.05-.02c.03-.12.18-.04.16-.13.11,0,.26-.03.31.09l-.09.13s0-.12-.05-.1c.08-.02-.01.27.16.16,0-.04.01-.08.02-.13.12,0,.28-.07.31.02.08-.14-.03,0,.06-.17-.11.2-.15-.15-.25.08.09-.2-.04-.15,0-.36-.03.04-.04.1-.09.02-.01,0-.03.02-.04.02h0s0,0,0,0c0,0,0,0,0,0,0,.03,0,.06-.02.09-.11.06-.21-.04-.29-.02-.02-.05.05-.03.06-.09l-.11.02c.06-.09,0-.25.14-.21l-.09-.08c0-.1-.1-.17-.17-.17-.03-.05-.2.03-.1-.02l-.24-.04v-.03c-.15-.07-.42.04-.51-.19h-.02s-.05,0-.05,0c-.06.02-.12.03-.19-.02v-.1c-.07.02-.19-.14-.24-.04-.03-.27-.34-.13-.46-.19l-.02.13c-.09-.02-.17,0-.29.04v.11c-.11.08-.24-.1-.4-.1.01-.04.05-.03.08,0-.09-.14-.17-.1-.3-.05h.05c-.1.05-.19.11-.27.02-.04.04-.07.02-.1,0h.01s-.01,0-.02,0c-.02-.02-.04-.04-.05-.06.02.03.03.05.04.06-.03,0-.08.02-.12.04l-.02-.12s0,0-.01,0c-.04-.04-.04.06-.01.15-.02.02-.04.04-.06.07-.03-.2-.12.07-.17-.14-.03.1-.22.08-.24.29,0-.03-.02-.04,0-.04-.05-.02-.1-.04-.14.02l-.03-.15-.1.21c-.07-.09-.1-.14-.04-.27-.15.19-.13.07-.25.27v-.1s-.11.15-.15.07c-.13-.18-.52.04-.82-.11.1.28-.15-.12-.12.11-.03-.07-.07-.1-.04-.17-.03.02-.06.03-.09.03h.1s0-.01,0-.01h-.07c-.08,0-.15-.04-.2.11-.03-.07.02-.11,0-.14,0,.02-.04.07-.06.03-.02-.04.01-.06.03-.1-.15.04-.13.25-.1.45-.09-.08-.12-.06-.15.08-.04-.06-.09-.12,0-.16-.05,0-.33-.03-.3.12-.03-.04-.07,0-.08.02-.02,0-.04,0-.05,0h.08c-.1,0-.16,0-.27.04l.05-.02s-.02,0-.03.01l.03.02c0,.2-.08.07-.16.11v-.02c-.23-.08-.07.09-.3-.01l.04.11c.05.26-.21-.1-.29.03l.06.06c-.04.1-.26-.29-.33-.31-.02-.02.01-.04.03-.06-.2-.1.02.16-.09.23-.05-.08-.03-.22-.12-.21-.06-.05-.16.33-.31.21.04.06.09.11.05.18-.08.05-.3-.17-.32.05-.02-.01-.03-.03-.03-.04-.05.07-.18.14-.18.27-.2-.37-.32.34-.45-.03l-.19.09v-.04c-.14.02-.15.13-.16.23-.04-.01-.03-.05-.04-.07-.03,0-.05,0-.07,0l.16-.03h0s-.16.03-.16.03c-.13.01-.15.06-.22.26l-.06-.11c-.01.08-.32-.08-.44.13,0-.01,0-.04,0-.06-.14.22-.59-.13-.5.33l-.09.16c.18-.04.05.19.15.23-.05.05-.22-.06-.15-.11l.02.02c-.06-.23-.24,0-.29-.14-.32.15-.69.16-1,.28l.11.15-.11.04s-.1-.12-.02-.14c-.08-.08-.09.13-.08.17-.18,0-.03-.22-.08-.21l-.06.04h.02c-.02.1,0,.18-.09.21-.07,0-.08-.09-.1-.09,0-.01-.02-.01-.04,0l-.14.04.11.11c-.03.09-.13.05,0,.17-.2-.2-.53.14-.62.09-.04.13-.12.17-.22.2.04.02.12.16.03.18-.11-.32-.22-.06-.39-.25.13.12-.23.15-.04.31-.08,0-.06-.11-.14-.16-.12.2-.41.09-.61.23.02.04.08.09.06.17l-.2-.15s.07.25-.07.14c.03.03.07.07.04.1-.5,0-.77.54-1.36.37.09.05.06.08.02.1.04,0,.04.1.08.15l-.25-.07c.04.17-.18.1-.14.25l.04-.05c0,.21.28.33.37.56,0-.23.35.19.36-.15.05.03,0,.08.05.13,0-.11.02-.15.12-.14v.03c.21-.12.34-.07.62-.12l-.07-.1c.06,0,.09.02.12.04-.01-.19-.15.06-.18-.15.17.19.37-.16.53.07.08-.04-.08-.12,0-.15l.05.06-.02-.1c.06,0,.12.06.15.12-.02,0-.03.03-.04.04.11.05.18-.11.22-.1h-.1c.19-.17.5-.2.65-.44l-.04-.04c.12-.17.16,0,.31-.13v.02c.01-.07.05-.11.1-.13-.02.08.14.08.11.17.13-.18.05-.12.08-.36l.07.07c0-.1-.01-.14.07-.2-.04.11.12.1.08.24.27.1.19-.31.4-.08-.02-.27-.22-.06-.2-.13-.08-.06,0-.21.06-.21.06-.02.24.26.39.19-.02,0,0,.02-.02.03.08.04.07-.13.19-.06-.02-.16.09-.03.02-.22l-.12.1c.06-.08.04-.33.21-.28,0,.04-.01.11-.03.14.06.04.06-.07.12-.03.07.19-.15.11-.17.29.07.06.1-.2.15.02-.05-.28.16-.03.18-.27l.04.11s.02-.09.05-.1v.17c.04-.16.21.04.26-.06-.16.07-.09-.12-.2-.17.14-.23.24.24.45.09-.02.03-.14-.02-.12-.09.05,0,.13.02.18.07.14-.09-.07-.1-.03-.2.11.11.05-.09.1-.16l.05.11c.2,0-.05-.25.14-.23v.18s.06-.07.06-.07l.04.14c.05-.13.09-.12.19-.12-.05-.07-.07-.21,0-.25.08.04.01.12.12.06,0,.08.01.18-.08.1.01.04,0,.08.01.12.09.05.15-.04.19-.06-.02,0-.04,0-.05,0l.09-.22s.04.07.03.12c.03-.03.03-.09.07-.12.02.1.06.19.02.26l.11-.17s.12.08.11.12c.1.02.13-.26.27-.24,0-.02,0-.04.02-.07.1-.02.22.04.3-.09l-.24.04h0s.25-.06.25-.06v-.02s.14.14.14.14c.08-.07-.17-.17-.04-.29.09-.09.1.13.15.16.02-.1.06-.31.21-.21-.02.04-.06.03-.09.05Zm1.17-.46s-.04.12-.08.06c-.01-.14.03-.08.08-.06Zm1.8-.76s-.04.03-.08-.01c.02-.01.05-.01.08.01Zm5.68-.37h0c-.03-.07-.02-.04,0,0Zm.07.13s.03-.02.04-.04c-.03.02-.05,0-.07-.03-.01.03-.01.06.03.07Zm-12.48,1.81l.03.02c-.03.05-.03.02-.03-.02Z" fill="#fff"/><path d="m33.46,45.09s-.02-.04-.02-.06c0,.02,0,.05.02.06Z" fill="#fff"/><polygon points="29.95 46.44 29.95 46.44 29.95 46.47 29.95 46.44" fill="#fff"/><path d="m37.31,45s-.03-.04-.03-.07c0,.03,0,.06.03.07Z" fill="#fff"/><path d="m40.06,44.96l-.09-.04s.03.05.03.08c.02-.02.04-.06.06-.04Z" fill="#fff"/><path d="m40,45.93s.02.01.04.01l.04-.04s-.09-.02-.07.03Z" fill="#fff"/><path d="m39.82,45.29c-.07.08-.01.08.04.1h0c.11-.1.04-.1-.03-.1Z" fill="#fff"/><path d="m39.86,45.39s.03.01.03.03c.04-.04,0-.02-.03-.03Z" fill="#fff"/><path d="m39.56,44.7s.09-.09.08-.05c.1-.08-.24,0-.08.05Z" fill="#fff"/><polygon points="39.61 45.56 39.69 45.46 39.6 45.51 39.61 45.56" fill="#fff"/><path d="m39.37,45.21l.04.08s.03-.02.05-.02c-.04-.04-.06-.1-.09-.07Z" fill="#fff"/><path d="m39.46,45.28s.04.04.07.03c-.01,0-.04-.03-.07-.03Z" fill="#fff"/><polygon points="39.5 45.51 39.5 45.48 39.47 45.43 39.5 45.51" fill="#fff"/><path d="m38.62,44.68h-.1s0,.07.03.07c.03-.02.07-.03.07-.07Z" fill="#fff"/><path d="m38.71,45.09s0-.06.02-.1l-.08.14.06-.04Z" fill="#fff"/><path d="m38.48,45.04s-.16.08-.06.1c.02-.04.12-.04.06-.1Z" fill="#fff"/><polygon points="37.24 44.56 37.26 44.56 37.29 44.3 37.24 44.56" fill="#fff"/><path d="m36.03,45.09c.1.06.03-.16.12-.08.03-.06-.07-.06-.05-.12-.06.06-.1.03-.07.2Z" fill="#fff"/><path d="m36.1,44.89s.02-.02.03-.04c-.02.02-.03.03-.03.04Z" fill="#fff"/><polygon points="22.99 48.07 22.91 48.05 22.98 48.11 22.99 48.07" fill="#fff"/><path d="m22.95,48.3l-.08-.14.02.15s.03-.04.06,0Z" fill="#fff"/><path d="m32.11,45.91v-.04s-.04-.04-.07-.03l.07.07Z" fill="#fff"/><polygon points="31.21 46.04 31.23 46.04 31.15 45.9 31.21 46.04" fill="#fff"/><path d="m30.57,46.47s.05-.05.08-.05c-.05.05-.16-.12-.08.05Z" fill="#fff"/><text transform="translate(5.82 50.74)" fill="#07338b" font-family="Liana, Liana" font-size="12"><tspan x="0" y="0">Stranden</tspan></text></svg>