<?xml version="1.0" encoding="UTF-8"?><svg id="Layer_1" xmlns="http://www.w3.org/2000/svg" width="52" height="50" viewBox="0 0 52 50"><path d="m1.76,13.23v14.99c0,1.52.81,2.92,2.12,3.68l12.98,7.49c1.31.76,2.93.76,4.25,0l12.98-7.49c1.31-.76,2.12-2.16,2.12-3.68v-14.99c0-1.52-.81-2.92-2.12-3.68l-12.98-7.49c-1.31-.76-2.93-.76-4.25,0L3.88,9.55c-1.31.76-2.12,2.16-2.12,3.68Z" fill="#4ba659"/><text transform="translate(7.43 19.49)" fill="#fff" font-family="Mukta-Bold, Mukta" font-size="11.5" font-weight="700"><tspan x="0" y="0">VILD</tspan><tspan x="-.63" y="9.5">MAD</tspan></text><circle cx="40.99" cy="31.87" r="10.37" fill="#fbb040" stroke="#fff" stroke-miterlimit="10"/><text transform="translate(32.77 35.47)" fill="#fff" font-family="MyriadPro-Regular, &apos;Myriad Pro&apos;" font-size="7"><tspan x="0" y="0">BØRN</tspan></text><text transform="translate(34.37 28.94)" fill="#fff" font-family="Arial-BoldMT, Arial" font-size="3.81" font-weight="700"><tspan x="0" y="0">for</tspan></text><path d="m29.58,36.33c-.03.14-.27.22-.46.21-.34-.02-.57-.35-.69-.54-.9-1.33-.81-1.83-1.4-2.38-.66-.62-1.44-.63-1.41-.92.02-.19.37-.31.62-.33.13-.01.43-.01.93.36.82.61,1.17,1.49,1.26,1.72.22.59.13.73.39,1.08.35.46.82.59.77.8Z" fill="#fff" stroke="#fbb040" stroke-miterlimit="10" stroke-width=".1"/><path d="m28.39,36.61c-.08.21-.36.37-.59.33-.18-.03-.29-.18-.34-.24-.27-.35-.68-.74-1.49-1.51-.55-.53-.85-.81-1.34-.9-.44-.08-.84.02-.87-.1-.03-.1.19-.27.41-.36.61-.25,1.31.17,1.67.39.29.17.75.5,1.16,1.08-.14-.35-.37-.78-.8-1.11-.73-.55-1.58-.47-1.59-.72,0-.16.33-.35.64-.36.28-.01.54.11,1,.54.6.56.7.83,1.44,1.78.53.68.79.92.69,1.18Z" fill="#fff" stroke="#fbb040" stroke-miterlimit="10" stroke-width=".1"/><path d="m27.42,37.24c-.04.16-.19.3-.34.32-.28.04-.45-.34-.93-.77-.39-.35-.76-.54-.98-.64-.57-.28-1.11-.54-1.7-.41-.4.09-.64.32-.9.18-.13-.07-.24-.22-.21-.33.03-.09.15-.17.72-.21.37-.02.9-.02,1.54.1-.28-.31-.52-.4-.69-.41-.29-.02-.5.13-.8,0-.02-.01-.24-.11-.23-.21.01-.14.47-.22.67-.23.57-.05,1.02.22,1.85.8,1.97,1.36,2.02,1.65,1.98,1.81Z" fill="#fff" stroke="#fbb040" stroke-miterlimit="10" stroke-width=".1"/><path d="m26.75,37.98c-.03.12-.18.17-.21.18-.44.15-.78-.62-1.7-1.08-.25-.12-1.08-.54-1.96-.31-.45.12-.79.38-.95.23-.11-.1-.1-.35,0-.51.21-.34.82-.31,1.34-.28.29.01.52.05.64.08.3.06,1.35.28,2.34,1.05.44.35.52.53.49.64Z" fill="#fff" stroke="#fbb040" stroke-miterlimit="10" stroke-width=".1"/><path d="m26.36,38.49c0,.14-.23.25-.26.26-.36.16-.71-.08-1.54-.44-.48-.2-.72-.31-.95-.36-.39-.09-1.03-.25-1.7,0-.38.14-.59.34-.69.26-.1-.08-.03-.36.1-.54.09-.12.27-.28.98-.36.55-.06,1.21-.14,1.98.15.32.12.21.14.75.38.82.37,1.33.45,1.33.65Z" fill="#fff" stroke="#fbb040" stroke-miterlimit="10" stroke-width=".1"/><path d="m25.82,39.62c.12-.11.17-.3.13-.44-.09-.28-.58-.3-1.75-.54-.73-.15-.57-.14-.95-.21-.94-.16-1.68-.27-2.16.13-.2.16-.37.42-.31.51.06.1.36-.01.64-.08.49-.11.87-.08,1.62,0,1.61.16,2.38.98,2.78.62Z" fill="#fff" stroke="#fbb040" stroke-miterlimit="10" stroke-width=".1"/><path d="m25.74,40.21c.06.18-.03.33.08.72.04.14.06.2.02.26-.09.15-.46.05-.8,0-.19-.03-.56,0-1.29.03-1.06.06-1.6.08-1.95.32-.4.27-.59.65-.74.58-.11-.05-.12-.3-.06-.48.1-.31.42-.48.74-.6.93-.36,2.09-.44,2.7-.46-.25-.04-1.71-.29-2.31-.04-.58.24-.7.32-.7.32-.19.12-.29.22-.36.18-.1-.05-.09-.32,0-.5.15-.3.54-.4.87-.46.48-.09,1.24-.2,2.29-.16-.68-.2-1.24-.24-1.63-.24-.37,0-.65,0-1.03.08-.48.11-.78.27-.85.18-.06-.08.07-.3.22-.44.12-.12.44-.36,1.59-.28.42.03.96.16,2.01.42.76.19,1.12.29,1.21.56Z" fill="#fff" stroke="#fbb040" stroke-miterlimit="10" stroke-width=".1"/><path d="m26.15,41.9c.05-.14,0-.34-.12-.42-.14-.1-.35,0-.46.04-.05.02,0,0-1.39.12-1.1.1-1.65.15-1.83.2-.44.13-1.03.32-1.21.81-.11.3-.04.65.08.68.13.04.31-.29.75-.6.06-.04.11-.07.12-.08.18-.12.35-.19.46-.24-.26.23-.46.44-.6.6-.36.4-.44.54-.46.7-.03.19,0,.48.12.52.17.06.38-.4.81-.83.66-.67,1.51-.9,1.99-1.03.97-.26,1.64-.14,1.75-.48Z" fill="#fff" stroke="#fbb040" stroke-miterlimit="10" stroke-width=".1"/><path d="m26.45,42.38s.18.15.16.28c-.03.25-.61.27-1.19.5-.71.29-1.15.78-1.45,1.13-.73.84-.88,1.64-1.15,1.59-.14-.03-.24-.26-.24-.44,0-.31.29-.45.38-.95.02-.12.03-.23,0-.24-.08-.03-.24.71-.64.78-.19.04-.41-.07-.46-.22-.03-.09-.03-.26.44-.7.59-.55,1.19-.83,1.43-.95,2.26-1.05,2.59-.89,2.72-.78Z" fill="#fff" stroke="#fbb040" stroke-miterlimit="10" stroke-width=".1"/><path d="m26.99,43.41c0-.12-.06-.3-.18-.36-.13-.07-.29,0-.52.12-.57.28-.85.41-.87.42-.15.1-.59.4-1.27,1.17-.69.79-1.03,1.19-.93,1.59.06.2.23.42.4.42.18,0,.32-.21.48-.48.42-.69.59-1.05.7-1.25.67-1.1,2.17-1.02,2.17-1.63Z" fill="#fff" stroke="#fbb040" stroke-miterlimit="10" stroke-width=".1"/><path d="m27.7,44.01c-.02-.17-.21-.33-.36-.32-.17.01-.24.24-.42.46-.28.34-.62.43-.89.54-.96.42-2.03,1.73-1.77,2.42.07.19.26.36.4.34.26-.04.18-.67.58-1.31.16-.26.55-.54,1.31-1.09.82-.6,1.18-.79,1.15-1.05Z" fill="#fff" stroke="#fbb040" stroke-miterlimit="10" stroke-width=".1"/><path d="m28.36,44.48c-.06-.13-.23-.22-.36-.2-.15.03-.24.21-.28.3-.22.46-.32.3-.78,1.03-.44.69-.62,1.26-.81,1.81-.23.69-.22.91-.1,1.07.14.2.46.31.62.2.23-.15.01-.6.12-1.27.07-.43.23-.7.56-1.25.6-1,1.18-1.38,1.03-1.69Z" fill="#fff" stroke="#fbb040" stroke-miterlimit="10" stroke-width=".1"/><path d="m26.29,46.03c.14-.3.22-.45.18-.48-.08-.06-.48.32-.52.36-.13.12-1.31,1.25-.99,1.87.11.22.4.35.56.28.18-.08.08-.36.26-.93.06-.19.21-.5.5-1.11Z" fill="#fff" stroke="#fbb040" stroke-miterlimit="10" stroke-width=".1"/><path d="m29.25,44.82c-.1-.14-.32-.23-.44-.16-.13.07-.11.28-.14.48-.08.47-.41.73-.64.99-.7.77-1.2,2.3-.76,2.76.16.17.47.21.62.1.22-.16-.02-.55.06-1.13.08-.57.37-.6.95-1.69.54-1.03.42-1.27.36-1.35Z" fill="#fff" stroke="#fbb040" stroke-miterlimit="10" stroke-width=".1"/><path d="m29.33,47.5c0,.21.06.34.22,1.35.02.13.04.27-.04.36-.15.18-.6.15-.83-.08-.07-.07-.15-.19-.18-.52-.07-.67.14-1.2.16-1.25.29-.7.58-.57.76-1.13.22-.65-.09-1.12.22-1.37.13-.11.35-.15.46-.06.23.18-.06.91-.3,1.51-.35.87-.49.84-.48,1.19Z" fill="#fff" stroke="#fbb040" stroke-miterlimit="10" stroke-width=".1"/><path d="m31.1,44.84c-.15-.1-.39-.08-.48.04-.09.12,0,.33.02.4.21.57-.04.9.04,2.07.06.86.12,1.6.56,1.81.25.12.62.06.76-.14.14-.19.05-.48-.04-.72-.18-.52-.39-.53-.56-.93-.1-.22-.11-.7-.12-1.65,0-.51,0-.77-.18-.89Z" fill="#fff" stroke="#fbb040" stroke-miterlimit="10" stroke-width=".1"/><path d="m30.41,45.99c.09.03-.15.57-.08,1.39.09.98.55,1.43.3,1.73-.15.19-.49.22-.66.1-.13-.09-.13-.25-.12-1.13.01-.83.02-.91.04-.99.12-.6.43-1.14.52-1.11Z" fill="#fff" stroke="#fbb040" stroke-miterlimit="10" stroke-width=".1"/><path d="m31.74,45.1c-.08-.24-.13-.36-.18-.36-.05,0-.09.14-.1.18-.11.44.11.98.22,1.35.19.62.01.56.2,1.31.16.61.29,1.15.7,1.31.31.12.71.01.76-.16.05-.16-.23-.29-.56-.72-.32-.42-.47-.82-.54-1.03-.11-.32-.09-.38-.32-1.33,0,0-.02-.06-.18-.54Z" fill="#fff" stroke="#fbb040" stroke-miterlimit="10" stroke-width=".1"/><path d="m32.22,44.66c-.13-.05-.3-.04-.36.04-.09.11.07.35.16.52.32.6.1.7.4,1.53.1.27.31.61.72,1.27.2.32.32.48.5.5.24.03.55-.19.56-.42.02-.32-.54-.42-1.05-1.16-.13-.19-.21-.35-.28-.49-.46-.99-.29-1.63-.66-1.79Z" fill="#fff" stroke="#fbb040" stroke-miterlimit="10" stroke-width=".1"/><path d="m32.91,44.22c-.15-.02-.32.11-.36.24-.05.16.11.3.24.54.19.34.12.49.24.89.1.32.34.65.83,1.29.54.71.67.77.78.76.31,0,.64-.38.6-.68-.04-.32-.46-.3-.99-.83-.33-.32-.5-.66-.68-1.01-.38-.73-.4-1.17-.66-1.21Z" fill="#fff" stroke="#fbb040" stroke-miterlimit="10" stroke-width=".1"/><path d="m33.41,43.77c-.12.02-.21.16-.22.28-.02.18.15.31.3.48.29.34.19.48.44.93.21.36.28.27,1.03,1.05.41.43.52.59.68.56.22-.04.4-.39.34-.66-.06-.29-.35-.31-.85-.68-.47-.36-.78-.77-.99-1.05-.41-.55-.54-.94-.74-.91Z" fill="#fff" stroke="#fbb040" stroke-miterlimit="10" stroke-width=".1"/><path d="m37.1,44.94c.05.22-.05.51-.22.58-.11.04-.23-.02-.46-.14-.36-.19-.64-.34-.83-.44.18.3.37.48.52.58.2.14.39.2.4.34,0,.1-.07.2-.16.24-.06.03-.21.07-.58-.2-.32-.23-.43-.43-.68-.72-.11-.13-.36-.37-.87-.85-.46-.44-.62-.57-.62-.81,0-.18.1-.39.26-.44.18-.06.38.12.56.26.2.15.69.4,1.67.91.69.35.94.42,1.01.68Z" fill="#fff" stroke="#fbb040" stroke-miterlimit="10" stroke-width=".1"/><path d="m37.54,44.12c.03.16-.04.35-.14.38-.11.04-.24-.13-.42-.28-.21-.17-.29-.16-.97-.44-.8-.33-.64-.33-1.07-.48-.52-.18-.8-.2-.89-.42-.05-.13-.02-.31.08-.38.13-.09.33.02.6.16.34.17.69.32,1.03.5,1.11.62,1.71.58,1.77.97Z" fill="#fff" stroke="#fbb040" stroke-miterlimit="10" stroke-width=".1"/><path d="m34.24,41.87c-.04.07.05.19.08.24.22.3.58.32.99.43.59.16,1.04.43,1.42.67.54.33.71.56.86.48.18-.09.2-.55,0-.75-.11-.11-.25-.09-.54-.13-.2-.03-.47-.09-.81-.21.12-.06.29-.13.51-.16.39-.05.57.09.72-.03.17-.14.18-.51.03-.62-.13-.09-.32.1-.7.21-.4.13-.74.08-1.37,0-.71-.09-1.13-.27-1.21-.13Z" fill="#fff" stroke="#fbb040" stroke-miterlimit="10" stroke-width=".1"/><path d="m37.43,40.91c.1.09.13.27.08.4-.16.39-1.06.38-1.4.38-.73-.01-.79-.21-1.31-.11-.22.04-.42.12-.56,0-.12-.1-.16-.32-.08-.43.09-.13.32-.1.51-.08.85.09,1.31.13,1.74.05.55-.1.83-.37,1.02-.21Z" fill="#fff" stroke="#fbb040" stroke-miterlimit="10" stroke-width=".1"/><path d="m36.92,39.94c.16.08.3.25.27.38-.03.14-.27.2-.67.3-.2.05-.39.09-.67.11-.56.03-.61-.1-.99-.03-.35.07-.44.2-.64.13-.22-.07-.4-.31-.35-.46.02-.04.08-.15.7-.19.7-.05.74.08,1.15.03.65-.08.88-.43,1.21-.27Z" fill="#fff" stroke="#fbb040" stroke-miterlimit="10" stroke-width=".1"/><path d="m36.52,39.21c.22.24.22.27.21.3-.02.09-.14.11-.72.24-.4.09-.56.13-.81.11-.07,0-.37-.03-.38-.11-.01-.09.41-.09.81-.4.3-.24.36-.48.54-.46.06,0,.16.11.35.32Z" fill="#fff" stroke="#fbb040" stroke-miterlimit="10" stroke-width=".1"/><path d="m35.95,38.44c.03-.21-.09-.43-.21-.46-.13-.03-.22.2-.51.51-.33.35-.68.56-.86.67-.48.29-.75.31-.78.51-.02.13.09.29.21.32.19.05.37-.19.62-.43.79-.75,1.47-.67,1.53-1.13Z" fill="#fff" stroke="#fbb040" stroke-miterlimit="10" stroke-width=".1"/><path d="m35.17,37.66c-.01-.22-.21-.45-.35-.43-.12.02-.12.21-.24.46-.18.34-.38.36-1.13.99-.39.33-.49.45-.46.56.03.11.19.18.32.19.32.03.47-.28,1.1-.89.53-.51.77-.63.75-.89Z" fill="#fff" stroke="#fbb040" stroke-miterlimit="10" stroke-width=".1"/><path d="m34.29,36.91c-.08-.2-.42-.31-.62-.21-.14.07-.14.2-.27.54-.15.4-.31.81-.62,1.15-.18.2-.36.31-.32.43.03.08.16.14.27.13.22,0,.32-.21.78-.75.26-.32.33-.37.48-.59.24-.35.36-.54.3-.7Z" fill="#fff" stroke="#fbb040" stroke-miterlimit="10" stroke-width=".1"/><path d="m33.22,36.37c-.13-.21-.51-.29-.64-.16-.11.1.03.27.03.62-.01.51-.32.94-.43,1.1-.21.3-.4.42-.35.56.03.11.19.2.32.19.23-.02.32-.32.72-1.21.34-.75.45-.93.35-1.1Z" fill="#fff" stroke="#fbb040" stroke-miterlimit="10" stroke-width=".1"/><path d="m30.59,41.25c.03-.12.22-.17.35-.16.1,0,.27.06.3.19.03.14-.13.31-.3.32-.2.01-.39-.21-.35-.35Z" fill="#fff" stroke="#fbb040" stroke-miterlimit="10" stroke-width=".1"/><path d="m30.4,41.4c.15.07.24.27.17.39-.07.13-.31.09-.4.07-.01,0-.26-.08-.27-.2,0-.14.28-.35.5-.25Z" fill="#fff" stroke="#fbb040" stroke-miterlimit="10" stroke-width=".1"/><path d="m30.78,40.95c-.05.1-.21.14-.27.09-.05-.04-.02-.1-.02-.3,0-.22-.05-.27,0-.34.07-.12.28-.15.33-.09.04.05-.04.11-.06.27-.02.19.08.27.03.36Z" fill="#fff" stroke="#fbb040" stroke-miterlimit="10" stroke-width=".1"/><path d="m31.32,40.53c-.03-.08-.12-.16-.2-.15-.06,0-.1.06-.19.17-.07.09-.1.14-.09.19.01.08.12.13.2.13.16,0,.33-.2.28-.35Z" fill="#fff" stroke="#fbb040" stroke-miterlimit="10" stroke-width=".1"/><path d="m31.69,40.8s-.06-.16-.12-.16c-.07,0-.07.12-.23.24-.07.06-.12.07-.12.11,0,.06.1.12.19.13.1.02.25-.02.3-.12.03-.07,0-.15-.01-.2Z" fill="#fff" stroke="#fbb040" stroke-miterlimit="10" stroke-width=".1"/><path d="m30.3,41.07s.03.13-.01.17c-.08.1-.25-.01-.38.09-.06.06-.05.12-.09.12-.08,0-.22-.25-.15-.35.04-.05.1-.01.36-.04.16-.02.23-.04.27,0Z" fill="#fff" stroke="#fbb040" stroke-miterlimit="10" stroke-width=".1"/><path d="m30.22,40.53c.09.02.16.17.12.27-.02.06-.08.09-.12.11-.03.01-.14.06-.25.01-.03-.01-.11-.05-.12-.11-.01-.08.11-.15.2-.21.08-.05.13-.08.17-.07Z" fill="#fff" stroke="#fbb040" stroke-miterlimit="10" stroke-width=".1"/><path d="m31.44,41.48c-.05-.05-.05-.16,0-.21.07-.06.16.02.34-.03.12-.04.15-.1.2-.08.07.03.1.17.04.25-.03.05-.12.06-.28.08-.17.02-.26.03-.3-.01Z" fill="#fff" stroke="#fbb040" stroke-miterlimit="10" stroke-width=".1"/><path d="m31.12,41.84c-.02.11.08.19.19.3.12.11.2.19.31.16.12-.03.21-.18.17-.27-.02-.07-.1-.05-.23-.13-.17-.11-.18-.23-.27-.23-.08,0-.16.09-.17.17Z" fill="#fff" stroke="#fbb040" stroke-miterlimit="10" stroke-width=".1"/><path d="m31.98,41.7c.04.07-.01.19-.09.22-.02,0-.06.01-.32-.15-.12-.07-.13-.08-.13-.09,0-.07.46-.13.54.02Z" fill="#fff" stroke="#fbb040" stroke-miterlimit="10" stroke-width=".1"/><path d="m31.03,42.03c.11.04.07.18.21.31.1.09.17.07.19.13.03.1-.12.27-.23.25-.09-.01-.07-.14-.24-.36-.1-.14-.18-.18-.16-.24.02-.07.14-.13.23-.09Z" fill="#fff" stroke="#fbb040" stroke-miterlimit="10" stroke-width=".1"/><path d="m30.63,42.17c.08.03.06.13.16.36.09.21.14.24.12.31-.04.14-.33.21-.42.12-.07-.07.04-.18-.01-.4-.04-.16-.13-.22-.09-.3.03-.08.16-.13.24-.09Z" fill="#fff" stroke="#fbb040" stroke-miterlimit="10" stroke-width=".1"/><path d="m30.22,42.17c.04.09-.03.12-.03.28,0,.17.1.21.07.32-.02.08-.1.16-.19.17-.14.03-.28-.07-.32-.19-.03-.1.03-.14.07-.36.04-.23,0-.3.05-.35.09-.07.3,0,.35.12Z" fill="#fff" stroke="#fbb040" stroke-miterlimit="10" stroke-width=".1"/><path d="m29.7,41.87c.03.11-.02.18-.07.31-.1.29,0,.44-.08.48-.09.04-.29-.1-.32-.27-.02-.08.04-.19.15-.39.14-.27.2-.27.21-.27.05,0,.09.08.11.13Z" fill="#fff" stroke="#fbb040" stroke-miterlimit="10" stroke-width=".1"/><path d="m29.46,41.39s.03.13.03.15c-.02.12-.12.14-.24.27-.15.16-.12.28-.2.3-.11.02-.28-.17-.27-.35.02-.17.2-.26.34-.32.06-.03.27-.12.35-.04Z" fill="#fff" stroke="#fbb040" stroke-miterlimit="10" stroke-width=".1"/><path d="m29.36,40.88c.03.08.02.18-.03.25-.05.08-.12.07-.31.16-.23.11-.27.19-.34.16-.09-.04-.11-.28-.01-.38.11-.11.31,0,.34-.07.02-.05-.1-.17-.21-.17-.06,0-.08.03-.12.01-.09-.03-.14-.25-.07-.32.06-.05.18,0,.38.08.21.09.33.14.38.27Z" fill="#fff" stroke="#fbb040" stroke-miterlimit="10" stroke-width=".1"/><path d="m29.06,39.99c.11,0,.12.1.44.38.08.06.14.11.15.19,0,.09-.05.19-.12.2-.09,0-.1-.16-.27-.28-.2-.15-.41-.05-.46-.15-.05-.1.1-.32.25-.34Z" fill="#fff" stroke="#fbb040" stroke-miterlimit="10" stroke-width=".1"/><path d="m32.06,36.14c-.1-.11-.3-.15-.39-.08-.1.07-.04.24-.04.46,0,.45-.24.55-.48,1.41-.07.23-.09.38-.01.48.09.11.28.16.4.09.16-.09.09-.33.21-.81.08-.29.11-.25.23-.62.14-.44.24-.76.08-.94Z" fill="#fff" stroke="#fbb040" stroke-miterlimit="10" stroke-width=".1"/><path d="m31.06,36.1c.11.06.17.2.17.31.01.18-.1.22-.19.54-.04.14-.04.22-.08.23-.07.02-.18-.19-.19-.21-.1-.19-.04-.28-.13-.4-.1-.13-.21-.12-.21-.19-.01-.14.39-.41.63-.27Z" fill="#fff" stroke="#fbb040" stroke-miterlimit="10" stroke-width=".1"/><path d="m30.17,36.37c.18.06.14.28.39.79.14.29.18.28.27.51.08.21.21.57.04.79-.09.12-.28.19-.36.13-.08-.05-.03-.18-.04-.47,0-.12-.02-.38-.12-.63-.06-.14-.15-.27-.35-.54-.18-.25-.25-.31-.23-.4.03-.13.25-.24.4-.19Z" fill="#fff" stroke="#fbb040" stroke-miterlimit="10" stroke-width=".1"/><path d="m29.47,36.71c.11.06.1.17.19.36.13.31.23.26.35.52.12.28,0,.32.13.72.07.2.14.31.08.42-.05.09-.18.15-.27.12-.13-.05-.11-.26-.23-.7-.11-.41-.16-.61-.31-.76-.19-.19-.39-.21-.42-.39-.02-.13.09-.23.09-.24.1-.1.27-.11.38-.05Z" fill="#fff" stroke="#fbb040" stroke-miterlimit="10" stroke-width=".1"/><path d="m28.71,37.01c-.17-.05-.31,0-.34,0-.17.05-.37.21-.35.34.02.13.25.11.48.32.07.07.13.19.25.43.22.44.25.58.43.75.07.07.23.23.36.19.08-.03.12-.13.13-.21.03-.22-.19-.3-.34-.6-.14-.3.01-.37-.13-.7-.04-.09-.19-.42-.51-.51Z" fill="#fff" stroke="#fbb040" stroke-miterlimit="10" stroke-width=".1"/><path d="m29.3,39.63c-.08,0-.16.09-.16.16,0,.1.12.12.3.3.19.2.21.34.32.35.08,0,.18-.06.21-.15.08-.18-.17-.3-.17-.64,0-.15.05-.25-.01-.3-.06-.05-.18-.02-.21.04-.02.04,0,.07.03.17.02.09.03.25-.01.27-.06.02-.14-.21-.28-.2Z" fill="#fff" stroke="#fbb040" stroke-miterlimit="10" stroke-width=".1"/><path d="m30.18,39.13c-.07-.03-.18,0-.21.07-.03.06,0,.13.01.16.14.35-.05.6.12.75.09.08.24.1.31.04.04-.04.05-.1-.04-.52-.08-.4-.12-.47-.19-.5Z" fill="#fff" stroke="#fbb040" stroke-miterlimit="10" stroke-width=".1"/><path d="m30.93,39.03c-.09-.11-.34-.09-.42.01-.05.07,0,.14.04.34.06.36-.08.52.04.64.07.07.2.1.27.05.08-.06,0-.2.01-.5.01-.34.14-.45.05-.55Z" fill="#fff" stroke="#fbb040" stroke-miterlimit="10" stroke-width=".1"/><path d="m31.42,39.07c-.05-.09-.19-.13-.25-.09-.05.03-.03.1-.04.24,0,.08,0,.04-.09.48-.05.24-.06.31-.01.36.05.07.15.1.2.07.06-.04,0-.15-.01-.31-.02-.39.31-.58.21-.75Z" fill="#fff" stroke="#fbb040" stroke-miterlimit="10" stroke-width=".1"/><path d="m31.98,39.27c-.02-.11-.16-.21-.24-.19-.03,0-.06.03-.16.24-.08.16-.12.28-.12.28-.17.45-.16.52-.13.58.03.06.1.12.15.11.08-.02.04-.2.12-.42.13-.36.42-.42.39-.6Z" fill="#fff" stroke="#fbb040" stroke-miterlimit="10" stroke-width=".1"/><path d="m32.2,39.4c.06,0,.14.12.13.23,0,.05-.02.12-.27.34-.19.17-.29.26-.34.23-.06-.03-.04-.23.05-.36.08-.11.16-.09.27-.23.09-.12.1-.2.15-.2Z" fill="#fff" stroke="#fbb040" stroke-miterlimit="10" stroke-width=".1"/><path d="m32.65,39.71c.07.02.12.11.12.19,0,.13-.15.16-.39.35-.28.23-.33.4-.47.39-.09,0-.19-.1-.19-.17,0-.12.26-.1.46-.35.08-.11.08-.16.19-.27.06-.06.18-.17.28-.13Z" fill="#fff" stroke="#fbb040" stroke-miterlimit="10" stroke-width=".1"/><path d="m33.01,40.05c.07.04.14.11.14.19,0,.07-.06.1-.28.25-.28.19-.28.2-.36.23-.11.05-.36.14-.4.07-.04-.06.08-.21.09-.22.16-.2.32-.13.46-.31.09-.12.09-.22.19-.25.06-.02.12.02.15.03Z" fill="#fff" stroke="#fbb040" stroke-miterlimit="10" stroke-width=".1"/><path d="m33.66,41.15c.03-.11,0-.26-.09-.29-.03-.01-.07,0-.2.07-.22.12-.22.16-.32.19-.2.08-.37,0-.4.05-.01.03.03.09.07.11.12.09.24-.04.51-.02.17.01.25.07.34,0,.06-.04.08-.11.09-.13Z" fill="#fff" stroke="#fbb040" stroke-miterlimit="10" stroke-width=".1"/><path d="m33.2,40.46c.09-.01.21.06.23.15.02.12-.14.23-.19.25-.26.16-.44,0-.68.17-.09.06-.14.13-.2.11-.06-.02-.11-.12-.09-.18.02-.06.11-.06.28-.11.14-.04.34-.1.49-.25.08-.08.1-.14.17-.15Z" fill="#fff" stroke="#fbb040" stroke-miterlimit="10" stroke-width=".1"/><path d="m32.34,41.4c-.04.05-.05.14-.02.19.04.06.14.04.33.05.08,0,.27,0,.46.06.23.06.26.14.4.13.02,0,.22-.03.28-.18.03-.09.02-.21-.05-.25-.07-.04-.15.03-.31.06-.1.02-.14,0-.44-.04-.52-.08-.61-.06-.65,0Z" fill="#fff" stroke="#fbb040" stroke-miterlimit="10" stroke-width=".1"/><path d="m33.74,42.01c.09.08.03.3-.03.41-.04.08-.08.16-.15.17-.11.02-.14-.16-.34-.29-.18-.13-.41-.15-.62-.17-.21-.02-.32,0-.36-.07-.04-.07,0-.21.08-.27.06-.04.14-.05.51.06.42.12.46.16.61.15.16,0,.23-.06.29,0Z" fill="#fff" stroke="#fbb040" stroke-miterlimit="10" stroke-width=".1"/><path d="m32.97,42.48c.16.09.22.07.34.17.07.05.13.1.14.19.02.13-.06.28-.16.3-.04,0-.08-.01-.25-.23-.22-.26-.21-.3-.32-.38-.15-.12-.29-.14-.28-.19,0-.04.08-.08.14-.08.13-.01.17.11.39.23Z" fill="#fff" stroke="#fbb040" stroke-miterlimit="10" stroke-width=".1"/><path d="m32.16,42.27c-.12,0-.25.16-.22.27.02.07.09.08.2.15.16.1.25.24.42.52.19.3.2.41.29.42.12.01.27-.15.27-.3,0-.13-.13-.14-.38-.42-.1-.11-.23-.27-.31-.37-.16-.19-.2-.25-.27-.25Z" fill="#fff" stroke="#fbb040" stroke-miterlimit="10" stroke-width=".1"/><path d="m27.71,37.59c-.17.05-.3.26-.26.4.03.12.18.13.42.28.02.01.3.19.5.44.29.37.25.7.42.72.11.02.23-.09.26-.2.04-.17-.16-.26-.38-.6-.21-.33-.13-.41-.32-.66-.06-.08-.36-.46-.64-.38Z" fill="#fff" stroke="#fbb040" stroke-miterlimit="10" stroke-width=".1"/><path d="m27.1,38.38c-.18,0-.36.15-.36.28,0,.13.17.19.46.4.52.39.57.67,1.01.81.08.03.29.09.36,0,.08-.09-.02-.32-.12-.46-.14-.19-.28-.21-.5-.34-.53-.32-.55-.69-.85-.68Z" fill="#fff" stroke="#fbb040" stroke-miterlimit="10" stroke-width=".1"/><path d="m26.56,39.1c.09-.03.16.09.44.34.24.23.42.39.64.52.36.22.6.23.62.38.01.09-.06.2-.14.24-.18.1-.32-.12-.66-.16-.34-.04-.42.15-.87.1-.28-.03-.34-.11-.36-.14-.11-.16-.03-.46.1-.5.11-.03.17.12.42.2.21.07.43.04.44,0,0-.03-.1-.06-.36-.2-.35-.19-.39-.25-.4-.28-.09-.18,0-.47.12-.5Z" fill="#fff" stroke="#fbb040" stroke-miterlimit="10" stroke-width=".1"/><path d="m26.35,40.76c.06-.05.13-.05.41-.04.55.02.66,0,.67.06.02.07-.14.16-.29.26-.32.2-.61.39-.77.27-.14-.1-.16-.43-.02-.55Z" fill="#fff" stroke="#fbb040" stroke-miterlimit="10" stroke-width=".1"/><path d="m28.15,40.9c.07.1.04.25,0,.33-.1.19-.3.12-.64.29-.32.16-.37.33-.74.46-.12.04-.21.06-.28.01-.1-.07-.12-.24-.06-.36.07-.13.2-.11.48-.23.41-.17.72-.42.72-.42.11-.09.22-.19.36-.17.01,0,.1.02.16.09Z" fill="#fff" stroke="#fbb040" stroke-miterlimit="10" stroke-width=".1"/><path d="m31.79,42.7c-.07,0-.15.07-.16.14-.02.1.09.15.21.29.17.2.15.32.43.77.05.07.09.14.15.14.09,0,.21-.14.21-.27,0-.18-.18-.22-.42-.53-.25-.31-.28-.55-.42-.54Z" fill="#fff" stroke="#fbb040" stroke-miterlimit="10" stroke-width=".1"/><path d="m31.46,42.98c.19.09.13.31.33.64.18.31.38.37.35.52-.02.11-.16.21-.27.2-.14-.01-.23-.19-.3-.34-.13-.27-.06-.34-.17-.58-.12-.25-.27-.34-.23-.41.03-.06.18-.08.29-.03Z" fill="#fff" stroke="#fbb040" stroke-miterlimit="10" stroke-width=".1"/><path d="m31,43.15c-.08-.03-.2-.03-.25.03-.05.06-.03.14.01.28.09.35.13.53.14.61.03.28-.04.37.04.45.12.11.41.06.46-.06.03-.08-.06-.13-.12-.31-.09-.26.03-.35-.05-.65-.03-.11-.08-.29-.23-.35Z" fill="#fff" stroke="#fbb040" stroke-miterlimit="10" stroke-width=".1"/><path d="m30.46,43.29c.11.14,0,.27.04.54.04.35.26.49.17.62-.04.07-.14.1-.21.08-.08-.02-.12-.11-.19-.25-.06-.13-.09-.22-.1-.22-.02,0,.03.14-.02.3-.02.06-.04.14-.1.17-.07.04-.18.02-.23-.04-.12-.12.01-.42.1-.62.12-.28.2-.29.23-.49.01-.08.02-.16.07-.19.07-.03.18.02.24.1Z" fill="#fff" stroke="#fbb040" stroke-miterlimit="10" stroke-width=".1"/><path d="m29.72,43.17c.07,0,.15.03.18.1.04.08-.02.16-.19.44-.2.34-.24.42-.22.52.02.1.07.16.04.2-.04.06-.21.05-.29-.04-.09-.09-.05-.24,0-.48.07-.31.17-.47.21-.52.08-.11.16-.22.27-.22Z" fill="#fff" stroke="#fbb040" stroke-miterlimit="10" stroke-width=".1"/><path d="m28.29,41.57c.07.06.09.18.05.27-.07.14-.26.06-.52.2-.19.1-.48.33-.64.63-.03.05-.05.11-.11.12-.15.04-.41-.22-.37-.4.02-.09.1-.11.32-.24.39-.22.33-.24.64-.4.31-.16.52-.27.63-.18Z" fill="#fff" stroke="#fbb040" stroke-miterlimit="10" stroke-width=".1"/><path d="m29.22,42.86c.1-.01.21.07.24.17.05.17-.17.34-.2.36-.16.12-.23.04-.37.15-.16.13-.11.27-.32.46-.13.11-.19.11-.21.1-.08-.02-.14-.11-.15-.19-.02-.14.12-.27.34-.45.21-.18.23-.15.36-.28.18-.18.2-.31.31-.32Z" fill="#fff" stroke="#fbb040" stroke-miterlimit="10" stroke-width=".1"/><path d="m28.86,42.53c.07.03.13.12.13.2,0,.1-.09.16-.38.38-.4.3-.44.35-.48.41-.09.15-.09.24-.17.26-.11.02-.27-.12-.28-.27,0-.11.07-.14.43-.5.12-.11.25-.25.45-.38.15-.1.23-.13.3-.1Z" fill="#fff" stroke="#fbb040" stroke-miterlimit="10" stroke-width=".1"/><path d="m29.07,43.73c.12.08.11.39-.05.52-.1.07-.21.06-.22.06-.09-.01-.2-.07-.2-.13,0-.07.14-.07.22-.2.07-.12.03-.22.1-.26.05-.03.11-.02.15.01Z" fill="#fff" stroke="#fbb040" stroke-miterlimit="10" stroke-width=".1"/><path d="m28.4,42.09c.09.03.18.11.18.2,0,.09-.09.14-.36.31-.5.32-.56.38-.6.46-.07.12-.07.21-.14.23-.1.02-.25-.11-.26-.24,0-.09.05-.14.31-.41.27-.28.28-.3.36-.36.16-.12.34-.25.51-.19Z" fill="#fff" stroke="#fbb040" stroke-miterlimit="10" stroke-width=".1"/></svg>